<?xml version="1.0" encoding="iso-8859-1"?>
<!-- Generator: Adobe Illustrator 19.0.0, SVG Export Plug-In . SVG Version: 6.00 Build 0)  -->
<svg version="1.1" id="Capa_1" xmlns="http://www.w3.org/2000/svg" xmlns:xlink="http://www.w3.org/1999/xlink" x="0px" y="0px"
	 viewBox="0 0 512 512" style="enable-background:new 0 0 512 512;" xml:space="preserve">
<g>
	<g>
		<path d="M509.069,162.41c-1.859-1.87-4.439-2.931-7.069-2.931s-5.21,1.061-7.07,2.931c-1.86,1.859-2.93,4.439-2.93,7.069
			s1.069,5.21,2.93,7.07c1.861,1.86,4.43,2.93,7.07,2.93c2.63,0,5.21-1.069,7.069-2.93c1.86-1.86,2.931-4.44,2.931-7.07
			S510.93,164.269,509.069,162.41z"/>
	</g>
</g>
<g>
	<g>
		<path d="M502,139c5.522,0,10-4.478,10-10V96c0-23.159-18.841-42-42-42H42C18.841,54,0,72.841,0,96v320c0,23.159,18.841,42,42,42
			h428c23.159,0,42-18.841,42-42V211c0-5.522-4.478-10-10-10c-5.522,0-10,4.478-10,10v35.127H381.934
			c4.049-6.473,6.399-14.112,6.399-22.294c0-23.25-18.916-42.166-42.166-42.166c-8.128,0-15.722,2.318-22.167,6.318V74h146
			c12.131,0,22,9.869,22,22v33C492,134.522,496.478,139,502,139z M304,438H42c-12.131,0-22-9.869-22-22V266.127h269.73
			l-25.385,25.385c-3.905,3.905-3.905,10.237,0,14.143c1.953,1.952,4.512,2.929,7.071,2.929s5.118-0.977,7.071-2.929L304,280.143
			V438z M304,246h-22.167c-12.223,0-22.166-9.944-22.166-22.167c0-12.223,9.943-22.166,22.166-22.166S304,211.61,304,223.833V246z
			 M304,187.985c-6.445-4-14.039-6.318-22.167-6.318c-23.25,0-42.166,18.916-42.166,42.166c0,8.182,2.35,15.821,6.399,22.294H20V96
			c0-12.131,9.869-22,22-22h262V187.985z M492,266.127V416c0,12.131-9.869,22-22,22H324V280.143l59.673,59.673
			c1.953,1.952,4.512,2.929,7.071,2.929s5.118-0.977,7.071-2.929c3.905-3.905,3.905-10.237,0-14.143l-59.546-59.546H492z
			 M346.167,201.667c12.223,0,22.166,9.943,22.166,22.166S358.39,246,346.167,246H324v-22.167
			C324,211.61,333.944,201.667,346.167,201.667z"/>
	</g>
</g>
<g>
	<g>
		<path d="M194,108.085H74c-11.028,0-20,8.972-20,20v62c0,11.028,8.972,20,20,20h120c11.028,0,20-8.972,20-20v-62
			C214,117.057,205.028,108.085,194,108.085z M194,190.085H74v-62h120l0.013,61.999C194.013,190.084,194.009,190.085,194,190.085z"
			/>
	</g>
</g>
<g>
	<g>
		<path d="M171.769,392.93c-1.859-1.861-4.439-2.93-7.069-2.93c-2.631,0-5.21,1.069-7.07,2.93c-1.86,1.861-2.93,4.44-2.93,7.07
			s1.069,5.21,2.93,7.069c1.86,1.86,4.439,2.931,7.07,2.931c2.63,0,5.21-1.07,7.069-2.931c1.87-1.859,2.931-4.439,2.931-7.069
			S173.639,394.79,171.769,392.93z"/>
	</g>
</g>
<g>
	<g>
		<path d="M131.002,390H64.013c-5.522,0-10,4.478-10,10c0,5.522,4.478,10,10,10h66.989c5.522,0,10-4.478,10-10
			C141.002,394.478,136.524,390,131.002,390z"/>
	</g>
</g>
<g>
	<g>
		<path d="M216.356,342H64.063c-5.522,0-10,4.478-10,10c0,5.522,4.478,10,10,10h152.293c5.522,0,10-4.478,10-10
			C226.356,346.478,221.879,342,216.356,342z"/>
	</g>
</g>
<g>
	<g>
		<path d="M216.293,294H64c-5.522,0-10,4.478-10,10c0,5.522,4.478,10,10,10h152.293c5.522,0,10-4.478,10-10
			C226.293,298.478,221.815,294,216.293,294z"/>
	</g>
</g>
<g>
</g>
<g>
</g>
<g>
</g>
<g>
</g>
<g>
</g>
<g>
</g>
<g>
</g>
<g>
</g>
<g>
</g>
<g>
</g>
<g>
</g>
<g>
</g>
<g>
</g>
<g>
</g>
<g>
</g>
</svg>
