<?xml version="1.0" encoding="iso-8859-1"?>
<!-- Generator: Adobe Illustrator 19.0.0, SVG Export Plug-In . SVG Version: 6.00 Build 0)  -->
<svg version="1.1" id="Capa_1" xmlns="http://www.w3.org/2000/svg" xmlns:xlink="http://www.w3.org/1999/xlink" x="0px" y="0px"
	 viewBox="0 0 512 512" style="enable-background:new 0 0 512 512;" xml:space="preserve">
<g>
	<g>
		<path d="M511.993,137.999c0-1.235-0.223-2.476-0.688-3.658l-21.311-54.238V34c0-18.748-15.252-34-34-34H55.998
			c-18.748,0-34,15.252-34,34v46.106L0.694,134.343c-0.464,1.182-0.688,2.422-0.688,3.657c-0.002,0-0.003,0-0.005,0v24.958
			c0,17.064,8.528,31.51,21.997,39.969v299.07c0,5.522,4.478,10,10,10h352.57c5.522,0,10-4.478,10-10c0-5.522-4.476-10-9.999-10
			H41.999V210.26c2.91,0.449,5.913,0.696,9.003,0.696c17.181,0,31.861-7.208,41-18.75c9.139,11.542,23.819,18.75,41,18.75
			c17.181,0,31.861-7.208,41-18.75c9.139,11.542,23.819,18.75,41,18.75s31.861-7.208,41-18.75c9.139,11.542,23.819,18.75,41,18.75
			c17.181,0,31.861-7.208,41-18.75c9.139,11.542,23.819,18.75,41,18.75s31.861-7.208,41-18.75c9.139,11.542,23.819,18.75,41,18.75
			c3.088,0,6.088-0.246,8.997-0.695v79.861c0,5.522,4.478,10,10,10s10-4.478,10-10v-87.193
			c13.473-8.458,22.003-22.906,22.003-39.973v-24.958C511.996,137.999,511.995,137.999,511.993,137.999z M41.999,34
			c0-7.72,6.28-14,14-14h399.997c7.72,0,14,6.28,14,14v38H41.999V34z M82.002,162.957c0,16.225-13.037,28-31,28
			c-17.963,0-31-11.775-31-28v-14.958h62V162.957z M164.001,162.957c0,16.225-13.037,28-31,28c-17.963,0-31-11.775-31-28v-14.958h62
			V162.957z M246.001,162.957c0,16.225-13.037,28-31,28s-31-11.775-31-28v-14.958h62V162.957z M328,162.957
			c0,16.225-13.037,28-31,28c-17.963,0-31-11.775-31-28v-14.958h62V162.957z M409.999,162.957c0,16.225-13.037,28-31,28
			c-17.963,0-31-11.775-31-28v-14.958h62V162.957z M24.674,127.999l14.14-36H473.18l14.146,36H24.674z M491.999,162.957
			c0,16.225-13.037,28-31,28c-17.963,0-31-11.775-31-28v-14.958h62V162.957z"/>
	</g>
</g>
<g>
	<g>
		<path d="M509.069,449.674l-43.596-43.596l17.283-17.283c2.526-2.526,3.513-6.209,2.588-9.659c-0.925-3.451-3.62-6.146-7.071-7.071
			l-119.899-32.127c-3.453-0.927-7.133,0.063-9.659,2.588c-2.526,2.526-3.513,6.209-2.588,9.659l32.127,119.899
			c0.925,3.451,3.62,6.146,7.071,7.071c3.452,0.926,7.133-0.063,9.659-2.588l11.093-11.093l43.596,43.596
			c1.953,1.952,4.512,2.929,7.071,2.929c2.559,0,5.118-0.977,7.071-2.929l45.255-45.255
			C512.974,459.911,512.974,453.579,509.069,449.674z M399.006,444.263l-5.916,5.917l-23.161-86.438l86.438,23.161l-12.107,12.106
			L399.006,444.263z M456.744,487.857l-36.524-36.524l31.112-31.112l36.524,36.524L456.744,487.857z"/>
	</g>
</g>
<g>
	<g>
		<path d="M339.882,315.864l-32.813-32.813c-3.906-3.904-10.236-3.904-14.143,0c-3.905,3.905-3.905,10.237,0,14.143l32.813,32.813
			c1.953,1.952,4.512,2.929,7.071,2.929s5.119-0.977,7.072-2.929C343.787,326.101,343.787,319.769,339.882,315.864z"/>
	</g>
</g>
<g>
	<g>
		<path d="M363.993,275.67c-5.522,0-10,4.477-10,10v21.684c0,5.522,4.478,10,10,10s10-4.478,10-10V285.67
			C373.993,280.148,369.515,275.67,363.993,275.67z"/>
	</g>
</g>
<g>
	<g>
		<path d="M317.222,344.082h-21.684c-5.522,0-10,4.478-10,10s4.478,10,10,10h21.684c5.522,0,10-4.478,10-10
			S322.744,344.082,317.222,344.082z"/>
	</g>
</g>
<g>
	<g>
		<path d="M236.991,352.53l14.165-69.58c0.599-2.941-0.155-5.997-2.055-8.321c-1.899-2.325-4.742-3.674-7.744-3.674H115.201
			l-4.319-17.371c-1.107-4.457-5.11-7.587-9.704-7.587H75.999c-5.522,0-10,4.478-10,10s4.478,10,10,10h17.36l29.939,120.413
			c1.107,4.457,5.11,7.587,9.704,7.587h98.59c5.522,0,10-4.478,10-10c0-5.522-4.478-10-10-10h-90.772l-3.347-13.462h89.719
			C231.946,360.535,236.043,357.188,236.991,352.53z M132.499,340.535l-12.327-49.581h108.943l-10.093,49.581H132.499z"/>
	</g>
</g>
<g>
	<g>
		<path d="M148.07,399.007c-1.859-1.86-4.439-2.93-7.069-2.93c-2.63,0-5.21,1.069-7.07,2.93c-1.86,1.86-2.93,4.44-2.93,7.07
			c0,2.63,1.069,5.21,2.93,7.069c1.86,1.86,4.44,2.931,7.07,2.931c2.63,0,5.21-1.07,7.069-2.931c1.86-1.859,2.931-4.439,2.931-7.069
			C151.001,403.447,149.931,400.867,148.07,399.007z"/>
	</g>
</g>
<g>
	<g>
		<path d="M222.07,399.007c-1.859-1.86-4.439-2.93-7.069-2.93c-2.63,0-5.21,1.069-7.07,2.93c-1.86,1.86-2.93,4.44-2.93,7.07
			c0,2.63,1.069,5.21,2.93,7.069c1.86,1.86,4.44,2.931,7.07,2.931c2.63,0,5.21-1.07,7.069-2.931c1.86-1.859,2.931-4.439,2.931-7.069
			C225.001,403.447,223.931,400.867,222.07,399.007z"/>
	</g>
</g>
<g>
	<g>
		<path d="M241.357,437.997H116.002c-5.522,0-10,4.478-10,10s4.477,10,10,10h125.355c5.522,0,10-4.478,10-10
			S246.879,437.997,241.357,437.997z"/>
	</g>
</g>
<g>
	<g>
		<path d="M82.241,440.927c-1.86-1.86-4.44-2.93-7.07-2.93c-2.639,0-5.209,1.069-7.07,2.93c-1.859,1.86-2.93,4.44-2.93,7.07
			c0,2.63,1.07,5.21,2.93,7.069c1.86,1.86,4.44,2.931,7.07,2.931c2.63,0,5.21-1.07,7.07-2.931c1.859-1.859,2.93-4.439,2.93-7.069
			C85.171,445.367,84.101,442.786,82.241,440.927z"/>
	</g>
</g>
<g>
</g>
<g>
</g>
<g>
</g>
<g>
</g>
<g>
</g>
<g>
</g>
<g>
</g>
<g>
</g>
<g>
</g>
<g>
</g>
<g>
</g>
<g>
</g>
<g>
</g>
<g>
</g>
<g>
</g>
</svg>
