<?xml version="1.0" encoding="iso-8859-1"?>
<!-- Generator: Adobe Illustrator 19.0.0, SVG Export Plug-In . SVG Version: 6.00 Build 0)  -->
<svg version="1.1" id="Capa_1" xmlns="http://www.w3.org/2000/svg" xmlns:xlink="http://www.w3.org/1999/xlink" x="0px" y="0px"
	 viewBox="0 0 512.001 512.001" style="enable-background:new 0 0 512.001 512.001;" xml:space="preserve">
<g>
	<g>
		<path d="M503.706,108.987l-62.975-89.604C432.201,7.246,418.25,0,403.416,0h-240.83C147.75,0,133.8,7.246,125.269,19.384
			l-62.975,89.604C56.868,116.707,54,125.776,54,135.213V194.5c0,5.522,4.477,10,10,10s10-4.478,10-10v-59.287
			c0-0.423,0.028-0.842,0.048-1.262h133.074V229c0,3.572,1.906,6.874,5,8.66c3.095,1.788,6.906,1.787,10,0.001l61.29-35.376
			l60.417,35.347c1.56,0.912,3.304,1.368,5.05,1.368c1.717,0,3.434-0.441,4.975-1.325c3.108-1.783,5.025-5.092,5.025-8.675v-95.049
			h133.074c0.02,0.42,0.048,0.839,0.048,1.262v277.178C492,426.512,480.511,438,466.391,438H210.333c-5.523,0-10,4.478-10,10
			c0,5.522,4.477,10,10,10h256.057c25.149,0,45.61-20.46,45.61-45.609V135.213C512,125.776,509.133,116.707,503.706,108.987z
			 M311.198,20l24.711,93.951H230.092L254.803,20H311.198z M209.413,113.951H83.251l58.381-83.067
			C146.422,24.068,154.255,20,162.586,20h71.538L209.413,113.951z M338.878,211.564l-50.383-29.477
			c-3.102-1.814-6.938-1.824-10.049-0.029l-51.324,29.623v-77.73h111.756V211.564z M356.589,113.951L331.878,20h71.538
			c8.33,0,16.163,4.068,20.953,10.884l58.382,83.067H356.589z"/>
	</g>
</g>
<g>
	<g>
		<path d="M113.563,220.111C50.945,220.111,0,271.055,0,333.673c0,25.944,8.975,51.296,25.278,71.426
			c0.026,0.034,0.052,0.068,0.079,0.103l80.32,102.95c1.895,2.429,4.803,3.849,7.883,3.849s5.988-1.419,7.883-3.847l79.937-102.41
			c0.153-0.196,0.297-0.395,0.433-0.598c16.33-20.146,25.31-45.483,25.31-71.473C227.123,271.055,176.18,220.111,113.563,220.111z
			 M185.729,393.22c-0.267,0.324-0.512,0.662-0.732,1.01l-71.433,91.515l-72.232-92.584c-0.106-0.146-0.216-0.288-0.331-0.429
			c-13.542-16.615-21-37.59-21-59.06c0-51.59,41.971-93.562,93.561-93.562c51.59,0,93.561,41.972,93.561,93.562
			C207.122,355.373,199.524,376.521,185.729,393.22z"/>
	</g>
</g>
<g>
	<g>
		<path d="M113.561,279.673c-29.776,0-54,24.225-54,54c0,29.775,24.224,54,54,54c29.776,0,54-24.225,54-54
			C167.562,303.898,143.338,279.673,113.561,279.673z M113.561,367.673c-18.748,0-34-15.252-34-34s15.252-34,34-34
			c18.748,0,34,15.252,34,34S132.31,367.673,113.561,367.673z"/>
	</g>
</g>
<g>
	<g>
		<path d="M426.57,384.93c-1.86-1.86-4.44-2.93-7.07-2.93s-5.21,1.069-7.07,2.93c-1.86,1.86-2.93,4.44-2.93,7.07
			s1.07,5.21,2.93,7.069c1.86,1.86,4.44,2.931,7.07,2.931s5.21-1.07,7.07-2.931c1.86-1.859,2.93-4.439,2.93-7.069
			S428.43,386.79,426.57,384.93z"/>
	</g>
</g>
<g>
	<g>
		<path d="M381.628,382H300.5c-5.523,0-10,4.478-10,10c0,5.522,4.477,10,10,10h81.127c5.523,0,10-4.478,10-10
			C391.628,386.478,387.151,382,381.628,382z"/>
	</g>
</g>
<g>
	<g>
		<path d="M447.916,334H300.549c-5.523,0-10,4.478-10,10c0,5.522,4.477,10,10,10h147.366c5.524,0,10.001-4.478,10.001-10
			C457.916,338.478,453.439,334,447.916,334z"/>
	</g>
</g>
<g>
</g>
<g>
</g>
<g>
</g>
<g>
</g>
<g>
</g>
<g>
</g>
<g>
</g>
<g>
</g>
<g>
</g>
<g>
</g>
<g>
</g>
<g>
</g>
<g>
</g>
<g>
</g>
<g>
</g>
</svg>
