<?xml version="1.0" encoding="iso-8859-1"?>
<!-- Generator: Adobe Illustrator 19.0.0, SVG Export Plug-In . SVG Version: 6.00 Build 0)  -->
<svg version="1.1" id="Capa_1" xmlns="http://www.w3.org/2000/svg" xmlns:xlink="http://www.w3.org/1999/xlink" x="0px" y="0px"
	 viewBox="0 0 512.002 512.002" style="enable-background:new 0 0 512.002 512.002;" xml:space="preserve">
<g>
	<g>
		<path d="M422.704,42.662L283.848,0.564C282.816,0.209,281.726,0,280.602,0h-0.098H163.496h-0.098
			c-1.125,0-2.214,0.208-3.247,0.564L21.297,42.662C8.559,46.523,0,58.061,0,71.372v56.723c0,5.522,4.478,10,10,10s10-4.478,10-10
			V71.372c0-4.438,2.853-8.283,7.099-9.569l68.035-20.627l56.723,105.639c1.801,3.354,5.247,5.271,8.818,5.271
			c1.5,0,3.023-0.339,4.455-1.053L212,127.661V424h-43.769c1.11-3.13,1.72-6.494,1.72-10V309.22c0-16.542-13.458-30-30-30H91.008H20
			V207.5c0-5.522-4.478-10-10-10s-10,4.478-10,10V414c0,16.542,13.458,30,30,30h384c16.542,0,30-13.458,30-30V71.372
			C444,58.061,435.441,46.523,422.704,42.662z M81.008,424H30c-5.514,0-10-4.486-10-10V299.22h61.008V424z M149.951,414
			c0,5.514-4.486,10-10,10h-38.943V299.22h38.943c5.514,0,10,4.486,10,10V414z M285.358,21.921l44.063,13.359l-50.219,93.525
			l-43.135-21.509L285.358,21.921z M164.888,128.806l-50.231-93.549l44.064-13.359l10.443,18.088l38.86,67.31L164.888,128.806z
			 M185.554,28.375L180.719,20h82.562L222,91.501L185.554,28.375z M342.992,424h-38.943c-5.514,0-10-4.486-10-10V309.22
			c0-5.514,4.486-10,10-10h38.943V424z M424,414c0,5.514-4.486,10-10,10h-51.008V299.22H424V414z M424,279.22h-71.008h-48.943
			c-16.542,0-30,13.458-30,30V414c0,3.506,0.61,6.87,1.72,10H232V127.616l24.005,11.97c-2.595,0.033-5.115,1.093-6.945,2.923
			c-1.87,1.86-2.93,4.44-2.93,7.07c0,2.64,1.06,5.21,2.93,7.069c1.86,1.87,4.431,2.931,7.07,2.931c2.63,0,5.2-1.061,7.07-2.931
			c1.859-1.859,2.93-4.43,2.93-7.069c0-2.128-0.71-4.216-1.962-5.923l14.792,7.376c1.432,0.714,2.955,1.053,4.455,1.053
			c3.571,0,7.018-1.919,8.818-5.271l56.711-105.615l67.958,20.604c4.245,1.286,7.098,5.132,7.098,9.569V279.22z"/>
	</g>
</g>
<g>
	<g>
		<path d="M17.069,160.491c-1.859-1.86-4.439-2.931-7.069-2.931s-5.21,1.07-7.07,2.931C1.069,162.35,0,164.93,0,167.56
			s1.069,5.21,2.93,7.07s4.44,2.93,7.07,2.93s5.21-1.069,7.069-2.93c1.86-1.86,2.931-4.44,2.931-7.07S18.93,162.35,17.069,160.491z"
			/>
	</g>
</g>
<g>
	<g>
		<path d="M132.55,393.32c-1.86-1.86-4.441-2.93-7.07-2.93c-2.63,0-5.21,1.07-7.069,2.93c-1.86,1.86-2.931,4.44-2.931,7.07
			s1.07,5.21,2.931,7.07c1.859,1.859,4.439,2.93,7.069,2.93c2.63,0,5.21-1.07,7.07-2.93c1.86-1.86,2.93-4.44,2.93-7.07
			S134.411,395.18,132.55,393.32z"/>
	</g>
</g>
<g>
	<g>
		<path d="M325.59,393.32c-1.86-1.86-4.44-2.93-7.07-2.93s-5.21,1.07-7.069,2.93c-1.86,1.86-2.931,4.44-2.931,7.07
			s1.07,5.21,2.931,7.07c1.859,1.859,4.439,2.93,7.069,2.93s5.21-1.07,7.07-2.93c1.86-1.86,2.93-4.44,2.93-7.07
			S327.451,395.18,325.59,393.32z"/>
	</g>
</g>
<g>
	<g>
		<path d="M263.2,213.19c-1.86-1.86-4.44-2.93-7.07-2.93c-2.64,0-5.21,1.07-7.07,2.93c-1.87,1.86-2.93,4.44-2.93,7.07
			s1.06,5.21,2.93,7.07c1.86,1.859,4.431,2.93,7.07,2.93c2.63,0,5.21-1.07,7.07-2.93c1.859-1.86,2.93-4.44,2.93-7.07
			S265.06,215.05,263.2,213.19z"/>
	</g>
</g>
<g>
	<g>
		<path d="M263.2,283.86c-1.87-1.86-4.44-2.93-7.07-2.93c-2.64,0-5.21,1.07-7.07,2.93c-1.87,1.87-2.93,4.44-2.93,7.07
			c0,2.64,1.06,5.21,2.93,7.07c1.86,1.87,4.44,2.939,7.07,2.939s5.2-1.069,7.07-2.939c1.859-1.86,2.93-4.431,2.93-7.07
			C266.13,288.3,265.06,285.73,263.2,283.86z"/>
	</g>
</g>
<g>
	<g>
		<path d="M263.2,354.54c-1.86-1.86-4.44-2.931-7.07-2.931c-2.64,0-5.21,1.07-7.07,2.931c-1.87,1.859-2.93,4.439-2.93,7.069
			c0,2.631,1.06,5.21,2.93,7.07c1.86,1.86,4.44,2.93,7.07,2.93s5.2-1.069,7.07-2.93c1.859-1.86,2.93-4.439,2.93-7.07
			C266.13,358.979,265.06,356.399,263.2,354.54z"/>
	</g>
</g>
<g>
	<g>
		<path d="M354.239,212h-53.163c-5.522,0-10,4.478-10,10c0,5.522,4.478,10,10,10h53.163c5.522,0,10-4.478,10-10
			C364.239,216.478,359.761,212,354.239,212z"/>
	</g>
</g>
<g>
	<g>
		<path d="M400.569,214.93c-1.869-1.86-4.439-2.93-7.069-2.93c-2.641,0-5.21,1.069-7.07,2.93c-1.87,1.86-2.93,4.44-2.93,7.07
			s1.06,5.21,2.93,7.069c1.86,1.861,4.429,2.931,7.07,2.931c2.63,0,5.2-1.07,7.069-2.931c1.86-1.859,2.931-4.439,2.931-7.069
			S402.43,216.79,400.569,214.93z"/>
	</g>
</g>
<g>
	<g>
		<path d="M439,479.483l-24-13.856c-4.785-2.762-10.9-1.122-13.66,3.66c-1.623,2.811-1.716,6.077-0.555,8.856H43.215
			c1.161-2.78,1.067-6.046-0.555-8.856c-2.762-4.782-8.876-6.421-13.66-3.66L5,479.483c-3.094,1.786-5,5.088-5,8.66
			c0,3.572,1.906,6.874,5,8.66l24,13.856c1.575,0.909,3.294,1.342,4.99,1.342c3.456,0,6.818-1.794,8.67-5.002
			c1.623-2.811,1.716-6.077,0.555-8.856h357.569c-1.161,2.78-1.067,6.046,0.555,8.856c1.853,3.208,5.213,5.002,8.67,5.002
			c1.696,0,3.416-0.433,4.99-1.342l24-13.856c3.094-1.786,5-5.088,5-8.66C443.999,484.571,442.094,481.27,439,479.483z"/>
	</g>
</g>
<g>
	<g>
		<path d="M507,401.34c-2.811-1.623-6.077-1.716-8.856-0.555V43.221c1.222,0.51,2.536,0.781,3.866,0.781
			c1.696,0,3.416-0.433,4.99-1.342c4.783-2.762,6.422-8.877,3.66-13.66L496.804,5c-1.786-3.094-5.088-5-8.66-5
			c-3.572,0-6.874,1.906-8.66,5l-13.856,24c-2.762,4.783-1.123,10.898,3.66,13.66c2.811,1.622,6.077,1.715,8.856,0.555v357.57
			c-2.779-1.161-6.046-1.068-8.856,0.555c-4.783,2.762-6.422,8.877-3.66,13.66l13.856,24c1.786,3.094,5.088,5,8.66,5
			c3.572,0,6.874-1.906,8.66-5l13.856-24C513.422,410.217,511.783,404.102,507,401.34z"/>
	</g>
</g>
<g>
</g>
<g>
</g>
<g>
</g>
<g>
</g>
<g>
</g>
<g>
</g>
<g>
</g>
<g>
</g>
<g>
</g>
<g>
</g>
<g>
</g>
<g>
</g>
<g>
</g>
<g>
</g>
<g>
</g>
</svg>
