<?xml version="1.0" encoding="iso-8859-1"?>
<!-- Generator: Adobe Illustrator 19.0.0, SVG Export Plug-In . SVG Version: 6.00 Build 0)  -->
<svg version="1.1" id="Capa_1" xmlns="http://www.w3.org/2000/svg" xmlns:xlink="http://www.w3.org/1999/xlink" x="0px" y="0px"
	 viewBox="0 0 512 512" style="enable-background:new 0 0 512 512;" xml:space="preserve">
<g>
	<g>
		<path d="M507.865,178.913c-0.001-0.005-0.001-0.01-0.003-0.015l-66.988-48.471V40.699c0-5.522-4.477-10-10-10H404
			c-5.523,0-10,4.478-10,10c0,5.522,4.477,10,10,10h16.875v189.628l-104.942,85.682l-54.071-39.124
			c-3.499-2.531-8.226-2.531-11.725,0l-54.07,39.124L89.624,239.101V50.699H109c5.523,0,10-4.478,10-10c0-5.522-4.477-10-10-10
			H79.624c-5.523,0-10,4.478-10,10v90.839c-0.105,0.07-0.214,0.131-0.318,0.206L4.138,178.898c0.001,0.003,0.003,0.006,0.005,0.009
			C1.636,180.724,0,183.668,0,187v275c0,27.57,22.43,50,50,50h412c27.57,0,50-22.43,50-50V187
			C512,183.671,510.367,180.731,507.865,178.913z M440.875,155.114l44.728,32.364l-44.728,36.519V155.114z M69.624,156.201v66.57
			l-43.226-35.293L69.624,156.201z M20,208.074L179.302,338.14L20,453.407V208.074z M462,492H50
			c-11.611,0-21.695-6.635-26.68-16.309L256,307.329l232.68,168.362C483.695,485.365,473.611,492,462,492z M492,453.407
			L332.698,338.14L492,208.074V453.407z"/>
	</g>
</g>
<g>
	<g>
		<path d="M378.692,60.684L344.76,12.405C339.302,4.638,330.375,0,320.881,0H191.119c-9.494,0-18.421,4.638-23.879,12.404
			l-33.932,48.279C129.835,65.625,128,71.428,128,77.467v149.347C128,242.907,141.093,256,157.187,256h197.626
			C370.907,256,384,242.907,384,226.813V77.467C384,71.428,382.165,65.625,378.692,60.684z M265.28,20h55.601
			c2.989,0,5.798,1.46,7.516,3.904l26.352,37.494H265.28V20z M183.603,23.904C185.321,21.46,188.13,20,191.119,20h54.162v41.398
			h-88.029L183.603,23.904z M364,226.813c0,5.066-4.121,9.187-9.187,9.187H157.187c-5.066,0-9.187-4.121-9.187-9.187V81.398h216
			V226.813z"/>
	</g>
</g>
<g>
	<g>
		<path d="M253,113.133h-74c-5.523,0-10,4.478-10,10s4.477,10,10,10h74c5.523,0,10-4.478,10-10
			C263,117.611,258.523,113.133,253,113.133z"/>
	</g>
</g>
<g>
	<g>
		<path d="M232.333,157.133H179c-5.523,0-10,4.478-10,10c0,5.522,4.477,10,10,10h53.333c5.523,0,10-4.478,10-10
			C242.333,161.611,237.856,157.133,232.333,157.133z"/>
	</g>
</g>
<g>
	<g>
		<path d="M281.4,160.06c-1.86-1.86-4.43-2.93-7.07-2.93c-2.63,0-5.21,1.07-7.07,2.93s-2.93,4.44-2.93,7.07s1.07,5.21,2.93,7.07
			c1.87,1.869,4.44,2.93,7.07,2.93c2.64,0,5.21-1.061,7.07-2.93c1.87-1.86,2.93-4.431,2.93-7.07
			C284.33,164.5,283.27,161.92,281.4,160.06z"/>
	</g>
</g>
<g>
</g>
<g>
</g>
<g>
</g>
<g>
</g>
<g>
</g>
<g>
</g>
<g>
</g>
<g>
</g>
<g>
</g>
<g>
</g>
<g>
</g>
<g>
</g>
<g>
</g>
<g>
</g>
<g>
</g>
</svg>
