<?xml version="1.0" encoding="iso-8859-1"?>
<!-- Generator: Adobe Illustrator 19.0.0, SVG Export Plug-In . SVG Version: 6.00 Build 0)  -->
<svg version="1.1" id="Capa_1" xmlns="http://www.w3.org/2000/svg" xmlns:xlink="http://www.w3.org/1999/xlink" x="0px" y="0px"
	 viewBox="0 0 512 512" style="enable-background:new 0 0 512 512;" xml:space="preserve">
<g>
	<g>
		<path d="M445.561,449.144l-42.071-72.87c-2.761-4.782-8.879-6.424-13.661-3.66c-4.783,2.762-6.423,8.878-3.66,13.661
			l30.042,52.033l-42.351-11.235c-5.325-1.41-10.784,1.744-12.219,7.06l-11.349,42.016L285.16,363.337
			c11.991,2.586,24.842-1.896,32.482-11.948l11.679-15.37c2.178-2.865,5.489-4.611,9.083-4.79l19.167-0.952
			c15.177-0.754,27.561-11.742,30.115-26.723l3.292-19.315c0.601-3.522,2.708-6.591,5.782-8.416l16.731-9.933
			c12.984-7.709,18.825-23.133,14.202-37.509l-6.04-18.782c-1.09-3.388-0.645-7.069,1.22-10.101l10.322-16.775
			c7.901-12.839,5.918-29.195-4.821-39.775l-13.96-13.752c-2.539-2.501-3.85-5.976-3.597-9.531l1.398-19.643
			c1.076-15.107-8.301-28.712-22.802-33.083l-18.485-5.573c-3.435-1.036-6.224-3.518-7.651-6.811l-7.737-17.849
			c-5.968-13.767-20.987-21.669-35.709-18.773l-18.757,3.681c-3.539,0.694-7.179-0.206-9.985-2.472L276.156,7.089
			C264.447-2.363,247.45-2.364,235.74,7.09l-14.929,12.053c-2.806,2.266-6.446,3.166-9.986,2.473l-18.758-3.681
			c-14.723-2.892-29.74,5.004-35.708,18.769l-7.742,17.856c-1.427,3.291-4.215,5.772-7.65,6.809l-18.482,5.573
			c-14.501,4.371-23.877,17.977-22.801,33.083l1.398,19.643c0.253,3.556-1.058,7.03-3.598,9.531L83.525,142.95
			c-10.74,10.579-12.723,26.936-4.823,39.775l10.322,16.776c1.865,3.03,2.31,6.712,1.22,10.1l-6.04,18.782
			c-4.622,14.375,1.217,29.8,14.202,37.509l16.731,9.933c3.074,1.825,5.181,4.893,5.783,8.417l3.292,19.315
			c1.547,9.076,6.707,16.681,13.904,21.438L66.438,449.144c-2.02,3.499-1.736,7.87,0.719,11.079
			c2.455,3.208,6.602,4.622,10.506,3.588l55.983-14.852l15.031,55.646c1.054,3.901,4.352,6.786,8.359,7.31
			c0.435,0.057,0.868,0.084,1.298,0.084c3.538,0,6.857-1.88,8.658-5l65.463-113.386c2.762-4.783,1.123-10.899-3.66-13.661
			c-4.782-2.761-10.9-1.123-13.661,3.66l-53.425,92.536l-11.35-42.016c-1.436-5.316-6.896-8.472-12.219-7.06l-42.351,11.235
			l62.266-107.847l15.435,0.767c3.593,0.179,6.904,1.925,9.082,4.789l11.684,15.372c6.215,8.177,15.877,12.668,25.72,12.668
			c4.57,0,9.181-0.969,13.501-2.986l17.323-8.09c1.477-0.69,3.053-1.051,4.638-1.118l89.568,155.135c1.801,3.12,5.12,5,8.658,5
			c0.43,0,0.864-0.027,1.298-0.084c4.007-0.523,7.306-3.407,8.359-7.31l15.031-55.646l55.983,14.852
			c3.908,1.038,8.051-0.379,10.506-3.588C447.298,457.013,447.582,452.644,445.561,449.144z M242.338,334.859l-17.323,8.091
			c-5.155,2.405-11.393,0.866-14.834-3.661l-11.685-15.373c-5.759-7.576-14.511-12.191-24.013-12.662L155.32,310.3
			c-5.74-0.285-10.423-4.441-11.389-10.107l-3.292-19.314c-1.588-9.317-7.161-17.429-15.289-22.255l-16.731-9.933
			c-4.91-2.915-7.12-8.749-5.372-14.187l6.04-18.781c2.88-8.958,1.704-18.692-3.227-26.706l-10.322-16.775
			c-2.988-4.857-2.238-11.042,1.824-15.043l13.959-13.752c6.715-6.614,10.182-15.799,9.512-25.2l-1.398-19.644
			c-0.407-5.714,3.139-10.858,8.624-12.512l18.482-5.573c9.083-2.738,16.456-9.3,20.228-18.002l7.742-17.856
			c1.945-4.485,6.431-7.322,11.197-7.322c0.765,0,1.538,0.073,2.308,0.224l18.757,3.681c9.358,1.835,18.981-0.544,26.404-6.537
			l14.929-12.054c4.428-3.576,10.857-3.575,15.285-0.001l14.931,12.056c7.421,5.991,17.045,8.373,26.401,6.536l18.756-3.681
			c5.566-1.087,11.249,1.894,13.505,7.102l7.737,17.849c3.772,8.705,11.146,15.267,20.23,18.006l18.485,5.573
			c5.485,1.653,9.031,6.799,8.624,12.513l-1.398,19.643c-0.669,9.401,2.797,18.587,9.512,25.2l13.96,13.752
			c4.062,4.001,4.812,10.187,1.824,15.043l-10.322,16.774c-4.931,8.015-6.108,17.749-3.227,26.706l6.04,18.783
			c1.748,5.438-0.46,11.271-5.372,14.186l-16.731,9.933c-8.128,4.826-13.7,12.938-15.288,22.254l-3.292,19.315
			c-0.966,5.666-5.65,9.822-11.389,10.107l-19.166,0.952c-9.504,0.471-18.258,5.087-24.016,12.664l-11.679,15.37
			c-3.442,4.528-9.682,6.067-14.834,3.662l-17.322-8.09C260.909,330.821,250.988,330.821,242.338,334.859z"/>
	</g>
</g>
<g>
	<g>
		<path d="M255.948,58.742c-67.977,0-123.28,55.303-123.28,123.281s55.303,123.281,123.28,123.281s123.28-55.304,123.28-123.281
			C379.228,114.045,323.925,58.742,255.948,58.742z M255.948,285.302c-56.947,0-103.278-46.331-103.278-103.279
			s46.33-103.279,103.278-103.279s103.278,46.33,103.278,103.279C359.226,238.971,312.896,285.302,255.948,285.302z"/>
	</g>
</g>
<g>
	<g>
		<path d="M283.124,128.815c-4.809-2.715-10.91-1.018-13.625,3.792l-56.397,99.9c-2.715,4.81-1.018,10.91,3.792,13.625
			c1.554,0.877,3.241,1.294,4.907,1.294c3.49,0,6.88-1.83,8.718-5.086l56.397-99.9C289.631,137.631,287.933,131.53,283.124,128.815z
			"/>
	</g>
</g>
<g>
	<g>
		<path d="M292.707,191.465c-17.082,0-30.979,13.897-30.979,30.979c0,17.082,13.897,30.979,30.979,30.979
			s30.979-13.897,30.979-30.979C323.686,205.362,309.788,191.465,292.707,191.465z M292.706,233.421
			c-6.053,0-10.977-4.924-10.977-10.977c0-6.053,4.926-10.977,10.977-10.977c6.053,0,10.977,4.924,10.977,10.977
			C303.683,228.496,298.758,233.421,292.706,233.421z"/>
	</g>
</g>
<g>
	<g>
		<path d="M219.407,110.623c-17.082,0-30.979,13.897-30.979,30.979c0,17.082,13.897,30.979,30.979,30.979
			c17.082,0,30.979-13.897,30.979-30.979C250.386,124.52,236.488,110.623,219.407,110.623z M219.407,152.579
			c-6.053-0.001-10.977-4.925-10.977-10.977c0-6.053,4.924-10.977,10.977-10.977c6.053,0,10.977,4.924,10.977,10.977
			C230.384,147.655,225.459,152.579,219.407,152.579z"/>
	</g>
</g>
<g>
</g>
<g>
</g>
<g>
</g>
<g>
</g>
<g>
</g>
<g>
</g>
<g>
</g>
<g>
</g>
<g>
</g>
<g>
</g>
<g>
</g>
<g>
</g>
<g>
</g>
<g>
</g>
<g>
</g>
</svg>
