<?xml version="1.0" encoding="iso-8859-1"?>
<!-- Generator: Adobe Illustrator 19.0.0, SVG Export Plug-In . SVG Version: 6.00 Build 0)  -->
<svg version="1.1" id="Capa_1" xmlns="http://www.w3.org/2000/svg" xmlns:xlink="http://www.w3.org/1999/xlink" x="0px" y="0px"
	 viewBox="0 0 512 512" style="enable-background:new 0 0 512 512;" xml:space="preserve">
<g>
	<g>
		<path d="M481.928,431.974h-21.921V325.657c0-5.521-4.476-9.999-9.998-9.999c-5.522,0-9.999,4.477-9.999,9.999v106.317h-19.997
			V183.379c3.281,0.401,6.612,0.632,9.998,0.632s6.718-0.231,9.999-0.632v67.622c0,5.521,4.476,9.999,9.999,9.999
			c5.522,0,9.998-4.477,9.998-9.998v-72.698c30.409-12,51.992-41.658,51.992-76.28c0-45.208-36.78-81.988-81.988-81.988
			c-45.208,0-81.988,36.78-81.988,81.988c0,34.623,21.583,64.279,51.992,76.28v253.671h-63.773c1.11-3.13,1.72-6.493,1.72-9.998
			V317.991c0-16.54-13.456-29.996-29.996-29.996h-43.714c1.11-3.13,1.72-6.493,1.72-9.999V174.012
			c0-16.54-13.456-29.996-29.996-29.996H131.993c-16.54,0-29.996,13.456-29.996,29.996v103.985c0,3.505,0.61,6.869,1.72,9.999
			H60.004c-16.54,0-29.996,13.456-29.996,29.996v103.985c0,3.505,0.61,6.869,1.72,9.998h-1.733C13.456,431.974,0,445.43,0,461.969
			c0,16.54,13.456,29.996,29.996,29.996h451.933c16.54,0,29.996-13.456,29.996-29.996
			C511.924,445.43,498.468,431.974,481.928,431.974z M368.021,102.023c0-34.182,27.809-61.991,61.991-61.991
			s61.991,27.809,61.991,61.991c0,34.182-27.809,61.991-61.991,61.991S368.021,136.205,368.021,102.023z M317.967,322.132v95.702
			l-47.85-47.851L317.967,322.132z M126.138,369.983l47.85-47.851v95.702L126.138,369.983z M159.847,431.974h-95.7l47.85-47.85
			L159.847,431.974z M163.99,287.995h-27.853l47.85-47.85l47.85,47.85h-27.853H163.99z M193.985,322.132l47.85,47.851l-47.85,47.851
			V322.132z M255.976,384.124l47.85,47.85h-95.7L255.976,384.124z M303.826,307.993l-47.85,47.85l-47.85-47.85H303.826z
			 M245.977,178.154v95.702l-47.85-47.851L245.977,178.154z M231.837,164.015l-47.85,47.85l-47.85-47.85H231.837z M121.996,178.154
			l47.85,47.851l-47.85,47.851V178.154z M159.847,307.992l-47.85,47.85l-47.85-47.85H159.847z M50.007,322.132l47.85,47.851
			l-47.85,47.851V322.132z M481.928,471.968H29.996c-5.513,0-9.999-4.485-9.999-9.999s4.485-9.999,9.999-9.999h451.933
			c5.513,0,9.999,4.485,9.999,9.999S487.442,471.968,481.928,471.968z"/>
	</g>
</g>
<g>
	<g>
		<path d="M457.076,280.596c-1.86-1.87-4.43-2.93-7.069-2.93c-2.63,0-5.209,1.06-7.069,2.93c-1.86,1.86-2.93,4.439-2.93,7.069
			c0,2.63,1.07,5.209,2.93,7.069c1.87,1.859,4.439,2.93,7.069,2.93s5.209-1.07,7.069-2.93c1.86-1.86,2.93-4.439,2.93-7.069
			C460.006,285.036,458.936,282.456,457.076,280.596z"/>
	</g>
</g>
<g>
	<g>
		<path d="M442.01,72.027h-23.996c-16.539,0-29.996,13.456-29.996,29.996c0,16.539,13.456,29.995,29.996,29.995h23.996
			c16.54,0,29.996-13.456,29.996-29.995C472.006,85.483,458.55,72.027,442.01,72.027z M442.01,112.021h-23.996
			c-5.513,0-9.998-4.485-9.998-9.998c0-5.513,4.485-9.999,9.998-9.999h23.996c5.513,0,9.999,4.485,9.999,9.999
			C452.009,107.536,447.524,112.021,442.01,112.021z"/>
	</g>
</g>
<g>
</g>
<g>
</g>
<g>
</g>
<g>
</g>
<g>
</g>
<g>
</g>
<g>
</g>
<g>
</g>
<g>
</g>
<g>
</g>
<g>
</g>
<g>
</g>
<g>
</g>
<g>
</g>
<g>
</g>
</svg>
