<?xml version="1.0" encoding="iso-8859-1"?>
<!-- Generator: Adobe Illustrator 19.0.0, SVG Export Plug-In . SVG Version: 6.00 Build 0)  -->
<svg version="1.1" id="Capa_1" xmlns="http://www.w3.org/2000/svg" xmlns:xlink="http://www.w3.org/1999/xlink" x="0px" y="0px"
	 viewBox="0 0 512 512" style="enable-background:new 0 0 512 512;" xml:space="preserve">
<g>
	<g>
		<path d="M469.069,225.93C467.21,224.07,464.63,223,462,223s-5.21,1.07-7.07,2.93c-1.86,1.86-2.93,4.44-2.93,7.07
			c0,2.64,1.069,5.21,2.93,7.07c1.861,1.86,4.44,2.93,7.07,2.93s5.21-1.07,7.069-2.93c1.86-1.86,2.931-4.44,2.931-7.07
			S470.93,227.79,469.069,225.93z"/>
	</g>
</g>
<g>
	<g>
		<path d="M489.333,264h-60.292c3.153-5.626,4.959-12.105,4.959-19c0-21.505-17.495-39-39-39c-11.503,0-21.855,5.009-29,12.956
			C358.855,211.009,348.503,206,337,206c-21.505,0-39,17.495-39,39c0,6.895,1.806,13.374,4.959,19h-60.292
			C230.168,264,220,274.168,220,286.667V330c0,5.522,4.478,10,10,10h1.751v69.201c0,0.003,0,0.007,0,0.01v64.165
			c0,6.75,1.745,13.097,4.8,18.624H44c-13.233,0-24-10.767-24-24V106.257h92v37.345c-16.116,4.402-28,19.163-28,36.655
			c0,20.953,17.047,38,38,38s38-17.047,38-38c0-17.492-11.884-32.253-28-36.655v-37.345h140v37.345
			c-16.116,4.402-28,19.163-28,36.655c0,20.953,17.047,38,38,38s38-17.047,38-38c0-17.492-11.884-32.253-28-36.655v-37.345h92v46v28
			c0,5.523,4.478,10,10,10c5.522,0,10-4.477,10-10v-28v-46h48v89.212c0,5.523,4.478,10,10,10c5.522,0,10-4.477,10-10V96.257
			c0-5.523-4.478-10-10-10h-68h-34.084C357.947,38.36,318.372,0,270,0c-5.522,0-10,4.477-10,10s4.478,10,10,10
			c37.342,0,67.946,29.393,69.898,66.257h-47.981C289.947,38.36,250.372,0,202,0s-87.947,38.36-89.916,86.257H10
			c-5.522,0-10,4.477-10,10V468c0,24.262,19.738,44,44,44h417.127c21.297,0,38.624-17.327,38.624-38.624V340H502
			c5.522,0,10-4.478,10-10v-43.333C512,274.168,501.832,264,489.333,264z M282,183.257c5.522,0,10-4.477,10-10v-7.956
			c4.82,3.233,8,8.729,8,14.956c0,9.925-8.075,18-18,18s-18-8.075-18-18c0-6.227,3.18-11.723,8-14.956v7.956
			C272,178.78,276.478,183.257,282,183.257z M202,20c37.342,0,67.946,29.393,69.898,66.257H132.102
			C134.054,49.393,164.658,20,202,20z M122,183.257c5.522,0,10-4.477,10-10v-7.956c4.82,3.233,8,8.729,8,14.956
			c0,9.925-8.075,18-18,18s-18-8.075-18-18c0-6.227,3.18-11.723,8-14.956v7.956C112,178.78,116.478,183.257,122,183.257z M376,245
			c0-10.477,8.523-19,19-19s19,8.523,19,19s-8.523,19-19,19h-5h-14V245z M366,284h14v36h-28v-36H366z M337,226
			c10.477,0,19,8.523,19,19v19h-14h-5c-10.477,0-19-8.523-19-19S326.523,226,337,226z M240,320v-33.333
			c0-1.471,1.196-2.667,2.667-2.667H332v36h-90.249H240z M296.815,340l-45.064,45.064V340H296.815z M251.751,413.349L325.101,340
			H342h39.551l-129.8,129.8V413.349z M274.988,492h-4.612c-3.578,0-6.912-1.032-9.752-2.788L409.836,340h56.451L314.286,492H274.988
			z M479.751,473.376c0,10.27-8.355,18.624-18.624,18.624h-41.895l60.519-60.519V473.376z M479.751,403.196L390.947,492h-48.376
			l137.18-137.179V403.196z M492,320h-2.249H400v-36h89.333c1.471,0,2.667,1.196,2.667,2.667V320z"/>
	</g>
</g>
<g>
	<g>
		<path d="M66,253c-5.522,0-10,4.478-10,10v102c0,5.522,4.478,10,10,10c5.522,0,10-4.478,10-10V263C76,257.478,71.522,253,66,253z"
			/>
	</g>
</g>
<g>
	<g>
		<path d="M73.069,397.93C71.21,396.069,68.63,395,66,395s-5.21,1.069-7.07,2.93C57.07,399.791,56,402.37,56,405
			s1.069,5.21,2.93,7.069C60.79,413.93,63.37,415,66,415s5.21-1.07,7.069-2.931C74.93,410.21,76,407.63,76,405
			S74.93,399.79,73.069,397.93z"/>
	</g>
</g>
<g>
</g>
<g>
</g>
<g>
</g>
<g>
</g>
<g>
</g>
<g>
</g>
<g>
</g>
<g>
</g>
<g>
</g>
<g>
</g>
<g>
</g>
<g>
</g>
<g>
</g>
<g>
</g>
<g>
</g>
</svg>
