<?xml version="1.0" encoding="iso-8859-1"?>
<!-- Generator: Adobe Illustrator 19.0.0, SVG Export Plug-In . SVG Version: 6.00 Build 0)  -->
<svg version="1.1" id="Capa_1" xmlns="http://www.w3.org/2000/svg" xmlns:xlink="http://www.w3.org/1999/xlink" x="0px" y="0px"
	 viewBox="0 0 512 512" style="enable-background:new 0 0 512 512;" xml:space="preserve">
<g>
	<g>
		<path d="M501.041,318.232c-11.31-12.065-28.315-15.708-43.063-10.492V57.01c0-16.541-13.457-29.999-29.999-29.999H315.985H195.99
			H83.996c-16.541,0-29.999,13.457-29.999,29.999v239.988H10c-5.523,0-10,4.478-10,10s4.477,10,10,10h77.996V464.99H10
			c-5.523,0-10,4.478-10,10s4.477,10,10,10h77.996c9.988,0,18.266-7.369,19.741-16.95l46.507,16.382
			c1.067,0.376,2.19,0.568,3.322,0.568h178.401c21.882,0,43.132-7.785,59.834-21.921l101.854-86.199
			c8.56-7.243,13.628-17.396,14.275-28.591C512.577,337.084,508.71,326.413,501.041,318.232z M205.99,47.01h99.995v56.914
			L293.16,90.715c-1.883-1.939-4.471-3.034-7.174-3.034s-5.292,1.094-7.174,3.034l-22.825,23.507l-22.825-23.507
			c-1.883-1.939-4.471-3.034-7.174-3.034s-5.292,1.094-7.174,3.034l-12.825,13.208V47.01z M491.965,347.125
			c-0.327,5.669-2.895,10.81-7.229,14.478l-101.855,86.198c-13.096,11.083-29.758,17.187-46.915,17.187H159.275l-51.28-18.063
			v-111.93h97.355c9.888,0,19.464,2.899,27.693,8.385l66.896,44.598c2.986,1.991,4.977,5.033,5.606,8.566s-0.189,7.076-2.306,9.976
			c-3.699,5.069-10.495,6.784-16.158,4.081l-57.23-27.337c-4.985-2.379-10.953-0.271-13.332,4.713
			c-2.38,4.984-0.27,10.953,4.713,13.333l57.229,27.337c4.565,2.181,9.419,3.228,14.218,3.227c10.287,0,20.325-4.808,26.715-13.564
			c5.36-7.345,7.434-16.318,5.84-25.27c-1.594-8.951-6.638-16.657-14.202-21.7l-66.896-44.598
			c-11.523-7.684-24.936-11.743-38.786-11.743h-97.457c-1.007-10.093-9.546-17.999-19.898-17.999H73.996V57.011
			c0-5.514,4.486-10,10-10h101.995v81.567c0,4.071,2.468,7.736,6.241,9.267c3.775,1.532,8.098,0.62,10.932-2.3l22.825-23.51
			l22.825,23.507c1.883,1.939,4.471,3.034,7.174,3.034s5.292-1.094,7.174-3.034l22.825-23.507l22.825,23.507
			c1.921,1.978,4.524,3.034,7.177,3.034c1.264,0,2.539-0.24,3.756-0.734c3.773-1.53,6.241-5.195,6.241-9.267V47.01h101.995
			c5.514,0,10,4.486,10,10v264.204l-73.455,62.145c-4.216,3.567-4.743,9.877-1.175,14.093c3.566,4.216,9.876,4.743,14.092,1.176
			l80.788-68.35c8.348-7.063,20.743-6.345,28.222,1.631C490.334,336.052,492.292,341.456,491.965,347.125z"/>
	</g>
</g>
<g>
	<g>
		<path d="M49.068,423.422c-1.86-1.86-4.44-2.93-7.07-2.93c-2.63,0-5.21,1.069-7.07,2.93c-1.86,1.86-2.93,4.44-2.93,7.07
			s1.07,5.21,2.93,7.069c1.86,1.87,4.44,2.931,7.07,2.931c2.63,0,5.21-1.061,7.07-2.931c1.86-1.859,2.93-4.439,2.93-7.069
			S50.927,425.282,49.068,423.422z"/>
	</g>
</g>
<g>
	<g>
		<path d="M351.383,269.929c-1.86-1.86-4.44-2.93-7.07-2.93s-5.21,1.069-7.07,2.93s-2.93,4.44-2.93,7.07s1.07,5.21,2.93,7.069
			c1.86,1.86,4.44,2.931,7.07,2.931s5.21-1.07,7.07-2.931c1.86-1.859,2.93-4.439,2.93-7.069S353.243,271.789,351.383,269.929z"/>
	</g>
</g>
<g>
	<g>
		<path d="M314.798,266.999h-58.671c-5.523,0-10,4.478-10,10s4.477,10,10,10h58.671c5.523,0,10-4.478,10-10
			S320.319,266.999,314.798,266.999z"/>
	</g>
</g>
<g>
	<g>
		<path d="M389.553,219.002H256.169c-5.523,0-10,4.477-10,10c0,5.523,4.477,10,10,10h133.383c5.523,0,10-4.477,10-10
			C399.552,223.478,395.076,219.002,389.553,219.002z"/>
	</g>
</g>
<g>
	<g>
		<path d="M389.498,171.004H256.115c-5.523,0-10,4.477-10,10s4.477,10,10,10h133.383c5.523,0,10-4.477,10-10
			S395.021,171.004,389.498,171.004z"/>
	</g>
</g>
<g>
	<g>
		<path d="M158.874,171.004c-31.979,0-57.997,26.018-57.997,57.997v3.4c0,4.077,2.475,7.745,6.254,9.272
			c3.78,1.527,8.109,0.607,10.94-2.326c4.003-4.146,9.363-6.429,15.092-6.429c6.055,0,11.749,2.604,15.712,7.074v33.007
			c0,2.206-1.794,4-4,4c-2.206,0-4-1.794-4-4c0-5.522-4.477-10-10-10s-10,4.478-10,10c0,13.232,10.766,23.999,23.999,23.999
			s23.999-10.766,23.999-23.999v-33.007c3.964-4.47,9.658-7.074,15.712-7.074c5.729,0,11.088,2.283,15.092,6.429
			c2.833,2.933,7.16,3.853,10.94,2.326c3.779-1.527,6.254-5.195,6.254-9.272v-3.4C216.871,197.021,190.854,171.004,158.874,171.004z
			 M184.586,212.919c-9.486,0-18.519,3.266-25.712,9.061c-7.194-5.795-16.226-9.061-25.712-9.061c-3.13,0-6.202,0.347-9.175,1.024
			c5.842-13.483,19.281-22.94,34.886-22.94c15.605,0,29.045,9.458,34.886,22.94C190.788,213.266,187.716,212.919,184.586,212.919z"
			/>
	</g>
</g>
<g>
</g>
<g>
</g>
<g>
</g>
<g>
</g>
<g>
</g>
<g>
</g>
<g>
</g>
<g>
</g>
<g>
</g>
<g>
</g>
<g>
</g>
<g>
</g>
<g>
</g>
<g>
</g>
<g>
</g>
</svg>
