<?xml version="1.0" encoding="iso-8859-1"?>
<!-- Generator: Adobe Illustrator 19.0.0, SVG Export Plug-In . SVG Version: 6.00 Build 0)  -->
<svg version="1.1" id="Capa_1" xmlns="http://www.w3.org/2000/svg" xmlns:xlink="http://www.w3.org/1999/xlink" x="0px" y="0px"
	 viewBox="0 0 512 512" style="enable-background:new 0 0 512 512;" xml:space="preserve">
<g>
	<g>
		<path d="M512,162.958V138l-0.005,0.001c0-1.235-0.223-2.476-0.688-3.658l-21.311-54.238V34c0-18.748-15.252-34-34-34h-400
			c-18.748,0-34,15.252-34,34v46.106L0.692,134.344c-0.464,1.182-0.688,2.422-0.688,3.657L0,138v24.958
			c0,17.064,8.528,31.51,21.997,39.969V492H10c-5.522,0-10,4.477-10,10s4.478,10,10,10h21.997H104h304h71.997H502
			c5.522,0,10-4.477,10-10s-4.478-10-10-10h-12.003V202.931C503.47,194.473,512,180.025,512,162.958z M38.813,92h169.182
			c5.522,0,10-4.477,10-10s-4.478-10-10-10H41.997V34c0-7.72,6.28-14,14-14h400c7.72,0,14,6.28,14,14v38h-167
			c-5.522,0-10,4.477-10,10s4.478,10,10,10h170.185l14.146,36H420h-82h-82h-82H92H24.672L38.813,92z M410,148v14.958
			c0,16.224-13.037,28-31,28s-31-11.776-31-28V148H410z M328,148v14.958c0,16.224-13.037,28-31,28s-31-11.776-31-28V148H328z
			 M246,148v14.958c0,16.224-13.037,28-31,28s-31-11.776-31-28V148H246z M164,148v14.958c0,16.224-13.037,28-31,28s-31-11.776-31-28
			V148H164z M20,162.958V148h62v14.958c0,16.224-13.037,28-31,28S20,179.182,20,162.958z M246,492H114V264h132V492z M469.997,492
			H418v-62.003c0-5.523-4.478-10-10-10c-5.522,0-10,4.477-10,10V492H266V264h132v85.601c0,5.523,4.478,10,10,10
			c5.522,0,10-4.477,10-10V254c0-5.523-4.478-10-10-10H104c-5.522,0-10,4.477-10,10v238H41.997V210.263
			c2.911,0.449,5.913,0.696,9.003,0.696c17.181,0,31.861-7.208,41-18.75c9.139,11.541,23.819,18.75,41,18.75
			c17.181,0,31.861-7.208,41-18.75c9.139,11.541,23.819,18.75,41,18.75c17.181,0,31.861-7.208,41-18.75
			c9.139,11.541,23.819,18.75,41,18.75c17.181,0,31.861-7.208,41-18.75c9.139,11.541,23.819,18.75,41,18.75
			c17.181,0,31.861-7.208,41-18.75c9.139,11.541,23.819,18.75,41,18.75c3.087,0,6.088-0.246,8.997-0.695V492z M461,190.958
			c-17.963,0-31-11.776-31-28V148h62v14.958C492,179.182,478.963,190.958,461,190.958z"/>
	</g>
</g>
<g>
	<g>
		<path d="M415.069,378.93C413.21,377.07,410.63,376,408,376s-5.21,1.07-7.07,2.93c-1.86,1.86-2.93,4.44-2.93,7.07
			s1.069,5.21,2.93,7.07c1.861,1.86,4.44,2.93,7.07,2.93s5.21-1.07,7.069-2.93c1.86-1.86,2.931-4.44,2.931-7.07
			S416.93,380.79,415.069,378.93z"/>
	</g>
</g>
<g>
	<g>
		<path d="M215.064,321.921c-3.906-3.905-10.236-3.905-14.143,0l-62.007,62.007c-3.905,3.905-3.905,10.237,0,14.143
			c1.954,1.953,4.513,2.929,7.072,2.929c2.56,0,5.118-0.976,7.071-2.929l62.007-62.007
			C218.969,332.159,218.969,325.827,215.064,321.921z"/>
	</g>
</g>
<g>
	<g>
		<path d="M225.064,386.922c-3.906-3.905-10.236-3.905-14.143,0l-72.007,72.007c-3.905,3.905-3.905,10.237,0,14.143
			c1.953,1.953,4.512,2.929,7.071,2.929s5.118-0.976,7.071-2.929l72.007-72.007C228.97,397.159,228.97,390.827,225.064,386.922z"/>
	</g>
</g>
<g>
	<g>
		<path d="M366.074,321.922c-3.906-3.905-10.236-3.905-14.142,0l-62.006,62.007c-3.905,3.905-3.905,10.237,0,14.142
			c1.953,1.953,4.512,2.929,7.071,2.929s5.118-0.977,7.071-2.929l62.006-62.007C369.979,332.159,369.979,325.827,366.074,321.922z"
			/>
	</g>
</g>
<g>
	<g>
		<path d="M263.069,74.93C261.21,73.07,258.63,72,256,72s-5.21,1.07-7.07,2.93S246,79.37,246,82s1.069,5.21,2.93,7.07
			c1.861,1.86,4.44,2.93,7.07,2.93s5.21-1.07,7.069-2.93C264.93,87.21,266,84.63,266,82S264.93,76.79,263.069,74.93z"/>
	</g>
</g>
<g>
</g>
<g>
</g>
<g>
</g>
<g>
</g>
<g>
</g>
<g>
</g>
<g>
</g>
<g>
</g>
<g>
</g>
<g>
</g>
<g>
</g>
<g>
</g>
<g>
</g>
<g>
</g>
<g>
</g>
</svg>
