<?xml version="1.0" encoding="iso-8859-1"?>
<!-- Generator: Adobe Illustrator 19.0.0, SVG Export Plug-In . SVG Version: 6.00 Build 0)  -->
<svg version="1.1" id="Capa_1" xmlns="http://www.w3.org/2000/svg" xmlns:xlink="http://www.w3.org/1999/xlink" x="0px" y="0px"
	 viewBox="0 0 512 512" style="enable-background:new 0 0 512 512;" xml:space="preserve">
<g>
	<g>
		<path d="M509.07,285.986l-40.798-40.791c0,0,0,0,0-0.001l-0.001-0.001L420.069,197c-1.875-1.875-4.418-2.928-7.07-2.928H360
			v-51.865c0-19.753-16.07-35.824-35.824-35.824H302V24.031c0-5.523-4.477-10-10-10H68c-5.523,0-10,4.477-10,10v82.353H35.824
			C16.07,106.384,0,122.454,0,142.208v297.761c0,5.523,4.477,10,10,10h44.329c-0.029,0.664-0.051,1.329-0.051,2
			c0,9.643,2.988,18.598,8.08,26H10c-5.523,0-10,4.477-10,10s4.477,10,10,10h156.987c5.523,0,10-4.477,10-10s-4.477-10-10-10
			h-28.789c5.091-7.402,8.08-16.357,8.08-26c0-25.364-20.636-46-46-46c-17.4,0-32.573,9.713-40.387,24H20v-34h472v34h-59.613
			c-7.814-14.287-22.987-24-40.387-24c-17.454,0-32.667,9.772-40.46,24.131c-0.504-0.078-1.016-0.131-1.541-0.131H185.667
			c-5.523,0-10,4.477-10,10s4.477,10,10,10h160.384c-0.029,0.664-0.051,1.329-0.051,2c0,9.643,2.988,18.598,8.079,26h-63.887
			c-5.523,0-10,4.477-10,10s4.477,10,10,10H391.98c0.007,0,0.013,0,0.019,0c0.006,0,0.013,0,0.019,0H459c5.523,0,10-4.477,10-10
			s-4.477-10-10-10h-29.079c5.091-7.402,8.079-16.357,8.079-26c0-0.671-0.022-1.336-0.051-2H502c5.523,0,10-4.477,10-10V293.058
			C512,290.406,510.946,287.862,509.07,285.986z M100.278,425.969c14.336,0,26,11.664,26,26s-11.664,26-26,26s-26-11.664-26-26
			S85.941,425.969,100.278,425.969z M78,34.031h204v204c0,12.131-9.869,22-22,22H100c-12.131,0-22-9.869-22-22V34.031z M340,375.168
			H20v-232.96c0-8.725,7.099-15.824,15.824-15.824H58v111.647c0,23.159,18.841,42,42,42h160c23.159,0,42-18.841,42-42V126.384
			h22.176c8.725,0,15.824,7.099,15.824,15.824V375.168z M392.019,477.968h-0.038c-14.328-0.01-25.981-11.67-25.981-26
			c0-14.336,11.664-26,26-26s26,11.664,26,26C418,466.298,406.347,477.957,392.019,477.968z M408.526,214.072h0.331l38.2,38.194
			l-37.34,37.34c-0.757-2.049-1.191-4.253-1.191-6.562V214.072z M492,375.168H360V214.073h28.526v68.972
			c0,21.519,17.506,39.025,39.025,39.025H492V375.168z M492,302.07h-64.449c-0.646,0-1.285-0.034-1.915-0.097l35.565-35.565
			L492,297.201V302.07z"/>
	</g>
</g>
<g>
	<g>
		<path d="M256.245,477.969h-0.13c-5.523,0-10,4.477-10,10s4.477,10,10,10h0.13c5.523,0,10-4.477,10-10
			S261.768,477.969,256.245,477.969z"/>
	</g>
</g>
<g>
	<g>
		<path d="M228,62.626c-5.523,0-10,4.477-10,10v33.405c0,20.953-17.047,38-38,38s-38-17.047-38-38V72.626c0-5.523-4.477-10-10-10
			s-10,4.477-10,10v33.405c0,31.982,26.019,58,58,58s58-26.019,58-58V72.626C238,67.103,233.523,62.626,228,62.626z"/>
	</g>
</g>
<g>
	<g>
		<path d="M244.716,308H126c-5.523,0-10,4.477-10,10s4.477,10,10,10h118.716c5.523,0,10-4.477,10-10S250.239,308,244.716,308z"/>
	</g>
</g>
<g>
	<g>
		<path d="M94.88,310.93c-1.86-1.86-4.44-2.93-7.07-2.93s-5.21,1.07-7.07,2.93c-1.87,1.86-2.93,4.44-2.93,7.07s1.06,5.21,2.93,7.07
			c1.86,1.86,4.43,2.93,7.07,2.93c2.63,0,5.21-1.07,7.07-2.93s2.93-4.44,2.93-7.07S96.74,312.79,94.88,310.93z"/>
	</g>
</g>
<g>
</g>
<g>
</g>
<g>
</g>
<g>
</g>
<g>
</g>
<g>
</g>
<g>
</g>
<g>
</g>
<g>
</g>
<g>
</g>
<g>
</g>
<g>
</g>
<g>
</g>
<g>
</g>
<g>
</g>
</svg>
