<?xml version="1.0" encoding="iso-8859-1"?>
<!-- Generator: Adobe Illustrator 19.0.0, SVG Export Plug-In . SVG Version: 6.00 Build 0)  -->
<svg version="1.1" id="Capa_1" xmlns="http://www.w3.org/2000/svg" xmlns:xlink="http://www.w3.org/1999/xlink" x="0px" y="0px"
	 viewBox="0 0 512 512" style="enable-background:new 0 0 512 512;" xml:space="preserve">
<g>
	<g>
		<path d="M423.069,191.93c-1.86-1.86-4.44-2.93-7.07-2.93s-5.21,1.07-7.07,2.93s-2.93,4.44-2.93,7.07s1.07,5.21,2.93,7.07
			s4.44,2.93,7.07,2.93s5.21-1.07,7.07-2.93c1.86-1.86,2.93-4.44,2.93-7.07S424.929,193.79,423.069,191.93z"/>
	</g>
</g>
<g>
	<g>
		<path d="M415.999,224c-5.523,0-10,4.477-10,10v183.917h-300V169.754c6.255,2.764,13.091,4.25,20.164,4.25
			c17.046,0,32.114-8.607,41.104-21.698c10.057,13.175,25.915,21.698,43.732,21.698c18.588,0,35.039-9.278,45-23.436
			c9.961,14.158,26.412,23.436,45,23.436c17.817,0,33.675-8.522,43.732-21.698c8.99,13.091,24.059,21.698,41.104,21.698
			c15.292,0,29.517-6.868,39.027-18.844c9.51-11.975,12.978-27.386,9.514-42.281l-8.578-36.884c0.131-0.645,0.2-1.312,0.2-1.995V30
			c0-16.542-13.458-30-30-30h-280c-16.542,0-30,13.458-30,30v45.168c0,0.438,0.038,0.867,0.093,1.29l-8.47,36.421
			c-3.32,14.277-0.256,29.019,8.377,40.764V482c0,16.542,13.458,30,30,30h280c16.542,0,30-13.458,30-30V234
			C425.999,228.477,421.522,224,415.999,224z M245.999,119.004c0,19.299-15.702,35-35,35c-19.299,0-35-15.701-35-35V84h70V119.004z
			 M335.999,119.004c0,19.299-15.702,35-35,35c-19.299,0-35-15.701-35-35V84h70V119.004z M414.896,117.409
			c2.073,8.918-0.002,18.144-5.696,25.314c-5.693,7.169-14.209,11.281-23.365,11.281c-16.452,0-29.836-13.385-29.836-29.836v-5.164
			V84h51.127L414.896,117.409z M105.999,30c0-5.514,4.485-10,10-10h280c5.514,0,10,4.486,10,10v34h-300V30z M102.798,142.722
			c-5.694-7.17-7.77-16.396-5.696-25.313l7.769-33.405h51.128v35v5.163c0,16.452-13.385,29.836-29.836,29.836
			C117.008,154.003,108.492,149.891,102.798,142.722z M405.999,482c0,5.514-4.486,10-10,10h-280c-5.514,0-10-4.486-10-10v-44.083
			h300V482z"/>
	</g>
</g>
<g>
	<g>
		<path d="M263.069,456.69c-1.86-1.86-4.44-2.93-7.07-2.93s-5.21,1.07-7.07,2.93c-1.86,1.86-2.93,4.44-2.93,7.07
			s1.07,5.21,2.93,7.07c1.86,1.86,4.44,2.93,7.07,2.93s5.21-1.07,7.07-2.93c1.86-1.86,2.93-4.44,2.93-7.07
			S264.929,458.55,263.069,456.69z"/>
	</g>
</g>
<g>
	<g>
		<path d="M300.227,32h-50.228c-5.523,0-10,4.477-10,10s4.477,10,10,10h50.228c5.523,0,10-4.477,10-10S305.75,32,300.227,32z"/>
	</g>
</g>
<g>
	<g>
		<path d="M218.839,34.93c-1.86-1.86-4.44-2.93-7.07-2.93s-5.21,1.07-7.07,2.93c-1.86,1.86-2.93,4.44-2.93,7.07s1.07,5.21,2.93,7.07
			c1.86,1.86,4.439,2.93,7.07,2.93c2.63,0,5.21-1.07,7.07-2.93c1.86-1.86,2.93-4.44,2.93-7.07S220.699,36.79,218.839,34.93z"/>
	</g>
</g>
<g>
	<g>
		<path d="M325.999,298h-140c-11.028,0-20,8.972-20,20v52c0,11.028,8.972,20,20,20h140c11.028,0,20-8.972,20-20v-52
			C345.999,306.972,337.027,298,325.999,298z M325.999,370h-140l-0.013-52c0,0,0.004,0,0.013,0h140V370z"/>
	</g>
</g>
<g>
	<g>
		<path d="M256.009,209c-5.523,0-10,4.477-10,10v47.98c0,5.523,4.477,10,10,10s10-4.477,10-10V219
			C266.009,213.477,261.532,209,256.009,209z"/>
	</g>
</g>
<g>
	<g>
		<path d="M324.818,245.023c-3.905-3.906-10.237-3.905-14.143,0l-19.562,19.562c-3.905,3.905-3.905,10.237,0,14.143
			c1.953,1.952,4.512,2.929,7.071,2.929s5.12-0.977,7.072-2.929l19.562-19.562C328.723,255.261,328.723,248.929,324.818,245.023z"/>
	</g>
</g>
<g>
	<g>
		<path d="M220.904,264.546l-19.562-19.562c-3.905-3.905-10.237-3.905-14.143,0c-3.905,3.905-3.905,10.237,0,14.143l19.563,19.562
			c1.953,1.952,4.512,2.929,7.071,2.929s5.119-0.977,7.071-2.929C224.809,274.784,224.809,268.452,220.904,264.546z"/>
	</g>
</g>
<g>
</g>
<g>
</g>
<g>
</g>
<g>
</g>
<g>
</g>
<g>
</g>
<g>
</g>
<g>
</g>
<g>
</g>
<g>
</g>
<g>
</g>
<g>
</g>
<g>
</g>
<g>
</g>
<g>
</g>
</svg>
