<?xml version="1.0" encoding="iso-8859-1"?>
<!-- Generator: Adobe Illustrator 19.0.0, SVG Export Plug-In . SVG Version: 6.00 Build 0)  -->
<svg version="1.1" id="Capa_1" xmlns="http://www.w3.org/2000/svg" xmlns:xlink="http://www.w3.org/1999/xlink" x="0px" y="0px"
	 viewBox="0 0 512 512" style="enable-background:new 0 0 512 512;" xml:space="preserve">
<g>
	<g>
		<path d="M208.68,41.93c-1.87-1.861-4.44-2.93-7.08-2.93c-2.63,0-5.21,1.069-7.07,2.93c-1.86,1.861-2.93,4.44-2.93,7.07
			s1.07,5.21,2.93,7.069c1.86,1.86,4.44,2.931,7.07,2.931c2.64,0,5.21-1.07,7.08-2.931c1.86-1.859,2.92-4.439,2.92-7.069
			S210.54,43.79,208.68,41.93z"/>
	</g>
</g>
<g>
	<g>
		<path d="M506.692,269.914l-33.932-48.281c-5.459-7.766-14.386-12.402-23.879-12.402H319.119c-9.493,0-18.42,4.637-23.879,12.403
			l-33.931,48.279c-3.473,4.94-5.309,10.743-5.309,16.783v149.347c0,16.094,13.093,29.188,29.187,29.188H384V482
			c0,5.514-4.486,10-10,10H30c-5.514,0-10-4.486-10-10V69c0-5.514,4.486-10,10-10h55.63c-0.011,0.333-0.025,0.665-0.025,1v26.986
			H58.293c-5.523,0-10,4.478-10,10V455.23c0,5.522,4.477,10,10,10h165.382c5.523,0,10-4.478,10-10c0-5.522-4.477-10-10-10H68.293
			V106.986H336V168c0,5.522,4.477,10,10,10s10-4.478,10-10V96.986c0-5.522-4.477-10-10-10h-28.396V60c0-0.335-0.014-0.667-0.025-1
			H374c5.514,0,10,4.486,10,10v100.083c0,5.522,4.477,10,10,10s10-4.478,10-10V69c0-16.542-13.458-30-30-30h-65
			c-5.447-5.549-13.025-9-21.397-9h-47.265c-4.451-17.233-20.13-30-38.734-30s-34.283,12.767-38.734,30h-47.265
			c-8.4,0-16.001,3.475-21.452,9.058C93.804,39.021,93.45,39,93.091,39H30C13.458,39,0,52.458,0,69v413c0,16.542,13.458,30,30,30
			h344c16.542,0,30-13.458,30-30v-16.77h78.813c16.094,0,29.187-13.094,29.187-29.188V286.696
			C512,280.656,510.165,274.854,506.692,269.914z M105.604,60c0-5.514,4.486-10,10-10h56c5.523,0,10-4.478,10-10
			c0-11.028,8.972-20,20-20s20,8.972,20,20c0,5.522,4.477,10,10,10h56c5.514,0,10,4.486,10,10v26.986h-192V60z M393.28,229.23
			h55.601c2.989,0,5.799,1.459,7.516,3.904l26.351,37.494H393.28V229.23z M311.602,233.135c1.718-2.445,4.528-3.904,7.517-3.904
			h54.162v41.397h-88.029L311.602,233.135z M492,436.043c0,5.066-4.121,9.187-9.187,9.187H285.187c-5.066,0-9.187-4.121-9.187-9.188
			V290.628h216V436.043z"/>
	</g>
</g>
<g>
	<g>
		<path d="M381,322.362h-74c-5.523,0-10,4.478-10,10c0,5.522,4.477,10,10,10h74c5.523,0,10-4.478,10-10
			C391,326.84,386.523,322.362,381,322.362z"/>
	</g>
</g>
<g>
	<g>
		<path d="M388.07,369.29c-1.86-1.86-4.44-2.931-7.07-2.931s-5.21,1.07-7.07,2.931c-1.86,1.859-2.93,4.439-2.93,7.069
			c0,2.631,1.07,5.21,2.93,7.07c1.86,1.87,4.44,2.93,7.07,2.93s5.21-1.06,7.07-2.93c1.86-1.86,2.93-4.439,2.93-7.07
			C391,373.729,389.93,371.149,388.07,369.29z"/>
	</g>
</g>
<g>
	<g>
		<path d="M340.333,366.362H307c-5.523,0-10,4.478-10,10c0,5.522,4.477,10,10,10h33.333c5.523,0,10-4.478,10-10
			C350.333,370.84,345.856,366.362,340.333,366.362z"/>
	</g>
</g>
<g>
	<g>
		<path d="M199.33,152.96c-1.86-1.86-4.43-2.93-7.07-2.93c-2.63,0-5.21,1.069-7.07,2.93c-1.86,1.859-2.93,4.439-2.93,7.07
			c0,2.63,1.07,5.21,2.93,7.069c1.86,1.871,4.44,2.931,7.07,2.931s5.21-1.061,7.07-2.931c1.87-1.859,2.93-4.439,2.93-7.069
			C202.26,157.399,201.2,154.819,199.33,152.96z"/>
	</g>
</g>
<g>
	<g>
		<path d="M305.675,150.033H231c-5.523,0-10,4.478-10,10c0,5.522,4.477,10,10,10h74.675c5.523,0,10-4.477,10-10
			C315.675,154.511,311.198,150.033,305.675,150.033z"/>
	</g>
</g>
<g>
	<g>
		<path d="M227.432,230.033h-35.169c-5.523,0-10,4.478-10,10c0,5.522,4.477,10,10,10h35.169c5.523,0,10-4.477,10-10
			C237.432,234.511,232.955,230.033,227.432,230.033z"/>
	</g>
</g>
<g>
	<g>
		<path d="M223.676,310.033h-31.414c-5.523,0-10,4.478-10,10c0,5.522,4.477,10,10,10h31.414c5.523,0,10-4.478,10-10
			C233.676,314.511,229.199,310.033,223.676,310.033z"/>
	</g>
</g>
<g>
	<g>
		<path d="M223.676,390.033h-31.414c-5.523,0-10,4.478-10,10c0,5.522,4.477,10,10,10h31.414c5.523,0,10-4.478,10-10
			C233.676,394.511,229.199,390.033,223.676,390.033z"/>
	</g>
</g>
<g>
	<g>
		<path d="M168.838,125.153c-3.905-3.904-10.237-3.904-14.142,0l-20.737,20.737l-10.214-10.214c-3.905-3.904-10.237-3.904-14.143,0
			c-3.905,3.905-3.905,10.237,0,14.143l17.285,17.285c1.875,1.875,4.419,2.929,7.071,2.929s5.196-1.054,7.071-2.929l27.808-27.809
			C172.744,135.391,172.744,129.059,168.838,125.153z"/>
	</g>
</g>
<g>
	<g>
		<path d="M168.838,205.153c-3.905-3.904-10.237-3.904-14.142,0l-20.737,20.737l-10.214-10.214c-3.905-3.904-10.237-3.904-14.143,0
			c-3.905,3.905-3.905,10.237,0,14.143l17.285,17.285c1.875,1.875,4.419,2.929,7.071,2.929s5.196-1.054,7.071-2.929l27.808-27.809
			C172.744,215.391,172.744,209.059,168.838,205.153z"/>
	</g>
</g>
<g>
	<g>
		<path d="M156.674,270.628h-40c-5.523,0-10,4.478-10,10v40c0,5.522,4.477,10,10,10h40c5.523,0,10-4.478,10-10v-40
			C166.674,275.106,162.197,270.628,156.674,270.628z M146.674,310.628h-20v-20h20V310.628z"/>
	</g>
</g>
<g>
	<g>
		<path d="M156.674,351.224h-40c-5.523,0-10,4.478-10,10v40c0,5.522,4.477,10,10,10h40c5.523,0,10-4.478,10-10v-40
			C166.674,355.701,162.197,351.224,156.674,351.224z M146.674,391.224h-20v-20h20V391.224z"/>
	</g>
</g>
<g>
</g>
<g>
</g>
<g>
</g>
<g>
</g>
<g>
</g>
<g>
</g>
<g>
</g>
<g>
</g>
<g>
</g>
<g>
</g>
<g>
</g>
<g>
</g>
<g>
</g>
<g>
</g>
<g>
</g>
</svg>
