<?xml version="1.0" encoding="iso-8859-1"?>
<!-- Generator: Adobe Illustrator 19.0.0, SVG Export Plug-In . SVG Version: 6.00 Build 0)  -->
<svg version="1.1" id="Capa_1" xmlns="http://www.w3.org/2000/svg" xmlns:xlink="http://www.w3.org/1999/xlink" x="0px" y="0px"
	 viewBox="0 0 511.999 511.999" style="enable-background:new 0 0 511.999 511.999;" xml:space="preserve">
<g>
	<g>
		<path d="M365.044,361.628h-46.899c-5.523,0-10,4.478-10,10c0,5.522,4.477,10,10,10h46.899c5.523,0,10-4.478,10-10
			C375.044,366.106,370.567,361.628,365.044,361.628z"/>
	</g>
</g>
<g>
	<g>
		<path d="M281.478,364.56c-1.86-1.87-4.44-2.93-7.07-2.93s-5.21,1.06-7.07,2.93c-1.86,1.86-2.93,4.44-2.93,7.07
			s1.07,5.21,2.93,7.07c1.86,1.86,4.44,2.93,7.07,2.93s5.21-1.07,7.07-2.93c1.86-1.86,2.93-4.44,2.93-7.07
			S283.338,366.42,281.478,364.56z"/>
	</g>
</g>
<g>
	<g>
		<path d="M365.045,315.14h-67.333c-5.523,0-10,4.478-10,10c0,5.522,4.477,10,10,10h67.333c5.523,0,10-4.478,10-10
			C375.045,319.618,370.568,315.14,365.045,315.14z"/>
	</g>
</g>
<g>
	<g>
		<path d="M153.549,180.63c-1.86-1.86-4.44-2.93-7.07-2.93s-5.21,1.069-7.07,2.93c-1.86,1.86-2.93,4.439-2.93,7.07
			c0,2.63,1.07,5.21,2.93,7.069c1.86,1.871,4.439,2.931,7.07,2.931c2.63,0,5.21-1.061,7.07-2.931c1.86-1.859,2.93-4.439,2.93-7.069
			C156.479,185.069,155.409,182.49,153.549,180.63z"/>
	</g>
</g>
<g>
	<g>
		<path d="M453.053,466.56l-44.647-44.647c7.377-6.242,12.073-15.558,12.073-25.956v-176c0-18.748-15.252-34-34-34h-44.74h-86.492
			h-44.768c-4.99,0-9.727,1.089-14,3.029V30c0-16.542-13.458-30-30-30H86.467C70.809,0,57.485,11.994,56.134,27.305
			c-0.741,8.396,2.084,16.762,7.751,22.951C69.556,56.448,77.622,60,86.015,60h50.463v78.46c0,5.522,4.477,10,10,10
			c5.523,0,10-4.478,10-10V50c0-5.522-4.477-10-10-10H86.015c-2.839,0-5.459-1.154-7.379-3.251
			c-1.916-2.092-2.832-4.822-2.579-7.687C76.505,23.98,81.078,20,86.467,20h80.012c5.514,0,10,4.486,10,10v189.956v148.666
			c-3.271-0.456-6.606-0.71-10-0.71s-6.729,0.253-10,0.709V232.275c0-5.522-4.477-10-10-10s-10,4.478-10,10V374.48
			c-24.785,11.402-42.044,36.453-42.044,65.475c0,39.726,32.319,72.044,72.044,72.044c29.022,0,54.073-17.259,65.475-42.044h139.642
			l39.03,39.031c1.875,1.875,4.419,2.929,7.071,2.929c2.652,0,5.196-1.054,7.071-2.929l28.285-28.285
			c1.875-1.876,2.929-4.419,2.929-7.071C455.982,470.978,454.928,468.436,453.053,466.56z M265.247,205.956h66.492v53.228
			l-29.504-11.904c-1.2-0.484-2.471-0.727-3.742-0.727s-2.542,0.242-3.742,0.727l-29.504,11.904V205.956z M166.478,492
			c-28.697,0-52.044-23.347-52.044-52.044s23.347-52.044,52.044-52.044c28.697,0,52.044,23.347,52.044,52.044
			S195.175,492,166.478,492z M231.953,409.956c-7.197-15.644-19.831-28.278-35.475-35.475V219.956h0.001c0-7.72,6.28-14,14-14
			h34.768v68.046c0,3.323,1.651,6.43,4.406,8.289c2.754,1.859,6.253,2.229,9.335,0.984l39.504-15.939l39.504,15.939
			c1.207,0.487,2.477,0.727,3.741,0.727c1.966,0,3.918-0.579,5.595-1.711c2.755-1.859,4.406-4.966,4.406-8.289v-68.046h34.74
			c7.72,0,14,6.28,14,14v176c0,7.72-6.28,14-14,14h-2.457H231.953z M417.697,487.773l-34.888-34.889
			c-1.875-1.875-4.419-2.929-7.071-2.929H237.812c0.456-3.271,0.71-6.605,0.71-10c0-3.395-0.253-6.729-0.71-10h146.209
			c2.671,0,5.183,1.04,7.072,2.929l40.747,40.746L417.697,487.773z"/>
	</g>
</g>
<g>
	<g>
		<path d="M173.549,432.88c-1.861-1.86-4.441-2.92-7.07-2.92c-2.63,0-5.21,1.06-7.07,2.92c-1.86,1.87-2.93,4.439-2.93,7.08
			c0,2.63,1.07,5.2,2.93,7.07c1.86,1.859,4.44,2.93,7.07,2.93s5.21-1.07,7.07-2.93c1.86-1.87,2.93-4.44,2.93-7.07
			C176.479,437.319,175.409,434.75,173.549,432.88z"/>
	</g>
</g>
<g>
</g>
<g>
</g>
<g>
</g>
<g>
</g>
<g>
</g>
<g>
</g>
<g>
</g>
<g>
</g>
<g>
</g>
<g>
</g>
<g>
</g>
<g>
</g>
<g>
</g>
<g>
</g>
<g>
</g>
</svg>
