<?xml version="1.0" encoding="iso-8859-1"?>
<!-- Generator: Adobe Illustrator 19.0.0, SVG Export Plug-In . SVG Version: 6.00 Build 0)  -->
<svg version="1.1" id="Capa_1" xmlns="http://www.w3.org/2000/svg" xmlns:xlink="http://www.w3.org/1999/xlink" x="0px" y="0px"
	 viewBox="0 0 512 512" style="enable-background:new 0 0 512 512;" xml:space="preserve">
<g>
	<g>
		<path d="M224,141.281c-5.522,0-10,4.478-10,10v29.059c0,5.522,4.478,10,10,10c5.522,0,10-4.478,10-10v-29.059
			C234,145.759,229.522,141.281,224,141.281z"/>
	</g>
</g>
<g>
	<g>
		<path d="M224,217.837c-5.522,0-10,4.478-10,10v24.232c0,5.523,4.478,10,10,10c5.522,0,10-4.478,10-10v-24.232
			C234,222.315,229.522,217.837,224,217.837z"/>
	</g>
</g>
<g>
	<g>
		<path d="M144.977,148.867c-4.808-2.714-10.908-1.019-13.624,3.792l-53.77,95.244c-2.715,4.81-1.018,10.91,3.792,13.624
			c1.554,0.877,3.241,1.294,4.907,1.294c3.489,0,6.879-1.83,8.717-5.086l53.77-95.244
			C151.484,157.681,149.787,151.582,144.977,148.867z"/>
	</g>
</g>
<g>
	<g>
		<path d="M153.884,208.537c-16.542,0-30,13.458-30,30s13.458,30,30,30s30-13.458,30-30S170.426,208.537,153.884,208.537z
			 M153.884,248.537c-5.514,0-10-4.486-10-10s4.486-10,10-10c5.514,0,10,4.486,10,10S159.398,248.537,153.884,248.537z"/>
	</g>
</g>
<g>
	<g>
		<path d="M84,131.463c-16.542,0-30,13.458-30,30c0,16.542,13.458,30,30,30s30-13.458,30-30C114,144.921,100.542,131.463,84,131.463
			z M84,171.463c-5.514,0-10-4.486-10-10c0-5.514,4.486-10,10-10s10,4.486,10,10C94,166.977,89.514,171.463,84,171.463z"/>
	</g>
</g>
<g>
	<g>
		<path d="M478,67H34C15.252,67,0,82.252,0,101v310c0,18.748,15.252,34,34,34h444c18.748,0,34-15.252,34-34V101
			C512,82.252,496.748,67,478,67z M492,411c0,7.72-6.28,14-14,14H34c-7.72,0-14-6.28-14-14v-25.028c4.273,1.939,9.01,3.028,14,3.028
			h444c4.99,0,9.727-1.089,14-3.028V411z M492,347v8c0,7.72-6.28,14-14,14H34c-7.72,0-14-6.28-14-14v-8v-17.028
			c4.273,1.939,9.01,3.028,14,3.028h444c4.99,0,9.727-1.089,14-3.028V347z M492,277v22c0,7.72-6.28,14-14,14H234v-14.232
			c0-5.522-4.478-10-10-10c-5.522,0-10,4.478-10,10V313H34c-7.72,0-14-6.28-14-14v-22V101c0-7.72,6.28-14,14-14h180v12.476
			c0,5.522,4.478,10,10,10c5.522,0,10-4.478,10-10V87h244c7.72,0,14,6.28,14,14V277z"/>
	</g>
</g>
<g>
	<g>
		<path d="M403.42,240.93c-1.86-1.861-4.441-2.93-7.07-2.93c-2.64,0-5.21,1.069-7.08,2.93c-1.859,1.86-2.92,4.44-2.92,7.07
			s1.061,5.21,2.92,7.069c1.87,1.86,4.44,2.931,7.08,2.931c2.63,0,5.2-1.07,7.07-2.931c1.859-1.859,2.93-4.439,2.93-7.069
			S405.28,242.79,403.42,240.93z"/>
	</g>
</g>
<g>
	<g>
		<path d="M362.646,238h-66.989c-5.522,0-10,4.478-10,10c0,5.522,4.478,10,10,10h66.989c5.522,0,10-4.478,10-10
			C372.646,242.478,368.168,238,362.646,238z"/>
	</g>
</g>
<g>
	<g>
		<path d="M448,190H295.707c-5.522,0-10,4.478-10,10c0,5.522,4.478,10,10,10H448c5.522,0,10-4.478,10-10
			C458,194.478,453.522,190,448,190z"/>
	</g>
</g>
<g>
	<g>
		<path d="M447.937,142H295.644c-5.522,0-10,4.478-10,10c0,5.522,4.477,10,10,10h152.293c5.522,0,10-4.478,10-10
			C457.937,146.478,453.459,142,447.937,142z"/>
	</g>
</g>
<g>
</g>
<g>
</g>
<g>
</g>
<g>
</g>
<g>
</g>
<g>
</g>
<g>
</g>
<g>
</g>
<g>
</g>
<g>
</g>
<g>
</g>
<g>
</g>
<g>
</g>
<g>
</g>
<g>
</g>
</svg>
