<?xml version="1.0" encoding="iso-8859-1"?>
<!-- Generator: Adobe Illustrator 19.0.0, SVG Export Plug-In . SVG Version: 6.00 Build 0)  -->
<svg version="1.1" id="Capa_1" xmlns="http://www.w3.org/2000/svg" xmlns:xlink="http://www.w3.org/1999/xlink" x="0px" y="0px"
	 viewBox="0 0 512 512" style="enable-background:new 0 0 512 512;" xml:space="preserve">
<g>
	<g>
		<path d="M489.069,191.93C487.21,190.069,484.63,189,482,189s-5.21,1.069-7.07,2.93c-1.86,1.861-2.93,4.44-2.93,7.07
			s1.069,5.21,2.93,7.069c1.86,1.86,4.44,2.931,7.07,2.931s5.21-1.07,7.069-2.931C490.93,204.21,492,201.63,492,199
			S490.93,193.79,489.069,191.93z"/>
	</g>
</g>
<g>
	<g>
		<path d="M482,170c5.522,0,10-4.478,10-10V30c0-16.542-13.458-30-30-30H182c-16.542,0-30,13.458-30,30v92.48H50
			c-16.542,0-30,13.458-30,30v207.038c0,16.542,13.458,30,30,30h102V482c0,16.542,13.458,30,30,30h280c16.542,0,30-13.458,30-30V243
			c0-5.522-4.478-10-10-10c-5.522,0-10,4.478-10,10v174.917H172v-28.398h195.563v4.981c0,5.522,4.478,10,10,10
			c5.522,0,10-4.478,10-10V117c0-5.522-4.478-10-10-10c-5.522,0-10,4.478-10,10v5.48H172V84h300v76C472,165.522,476.478,170,482,170
			z M472,437.917V482c0,5.514-4.486,10-10,10H182c-5.514,0-10-4.486-10-10v-44.083H472z M367.563,142.48v227.039H50
			c-5.514,0-10-4.486-10-10V152.48c0-5.514,4.486-10,10-10H367.563z M172,64V30c0-5.514,4.486-10,10-10h280c5.514,0,10,4.486,10,10
			v34H172z"/>
	</g>
</g>
<g>
	<g>
		<path d="M329.069,456.69c-1.859-1.859-4.439-2.93-7.069-2.93s-5.21,1.07-7.07,2.93c-1.86,1.86-2.93,4.431-2.93,7.07
			c0,2.63,1.069,5.21,2.93,7.07c1.86,1.859,4.44,2.93,7.07,2.93s5.21-1.07,7.069-2.93c1.86-1.86,2.931-4.44,2.931-7.07
			C332,461.12,330.93,458.55,329.069,456.69z"/>
	</g>
</g>
<g>
	<g>
		<path d="M366.229,32H316c-5.522,0-10,4.478-10,10s4.478,10,10,10h50.229c5.522,0,10-4.478,10-10S371.751,32,366.229,32z"/>
	</g>
</g>
<g>
	<g>
		<path d="M284.84,34.93c-1.861-1.86-4.441-2.93-7.07-2.93c-2.63,0-5.21,1.069-7.069,2.93c-1.86,1.86-2.931,4.44-2.931,7.07
			s1.07,5.21,2.931,7.069C272.56,50.93,275.14,52,277.77,52c2.63,0,5.21-1.07,7.07-2.931c1.86-1.859,2.93-4.439,2.93-7.069
			S286.701,36.79,284.84,34.93z"/>
	</g>
</g>
<g>
	<g>
		<path d="M141.195,246H79.979c-5.522,0-10,4.478-10,10c0,5.522,4.478,10,10,10h61.216c5.522,0,10-4.478,10-10
			C151.195,250.478,146.718,246,141.195,246z"/>
	</g>
</g>
<g>
	<g>
		<path d="M243.835,246h-61.216c-5.522,0-10,4.478-10,10c0,5.522,4.478,10,10,10h61.216c5.522,0,10-4.478,10-10
			C253.835,250.478,249.357,246,243.835,246z"/>
	</g>
</g>
<g>
	<g>
		<path d="M347.896,246H286.68c-5.522,0-10,4.478-10,10c0,5.522,4.477,10,10,10h61.216c5.522,0,10-4.478,10-10
			C357.896,250.478,353.418,246,347.896,246z"/>
	</g>
</g>
<g>
	<g>
		<path d="M325.138,280.5c-10.214,0-19.442,4.283-26,11.139c-6.558-6.856-15.786-11.139-26-11.139c-19.851,0-36,16.149-36,36
			s16.149,36,36,36c10.214,0,19.442-4.283,26-11.139c6.558,6.856,15.786,11.139,26,11.139c19.851,0,36-16.149,36-36
			S344.989,280.5,325.138,280.5z M273.138,332.5c-8.822,0-16-7.178-16-16c0-8.822,7.177-16,16-16c8.822,0,16,7.178,16,16
			C289.138,325.322,281.96,332.5,273.138,332.5z M325.138,332.5c-8.822,0-16-7.178-16-16c0-8.822,7.177-16,16-16
			c8.822,0,16,7.178,16,16C341.138,325.322,333.96,332.5,325.138,332.5z"/>
	</g>
</g>
<g>
	<g>
		<path d="M151.573,157.562h-72c-5.522,0-10,4.478-10,10v45.958c0,5.522,4.478,10,10,10h72c5.522,0,10-4.478,10-10v-45.958
			C161.573,162.039,157.096,157.562,151.573,157.562z M141.573,203.52h-52v-25.958h52V203.52z"/>
	</g>
</g>
<g>
</g>
<g>
</g>
<g>
</g>
<g>
</g>
<g>
</g>
<g>
</g>
<g>
</g>
<g>
</g>
<g>
</g>
<g>
</g>
<g>
</g>
<g>
</g>
<g>
</g>
<g>
</g>
<g>
</g>
</svg>
