<?xml version="1.0" encoding="iso-8859-1"?>
<!-- Generator: Adobe Illustrator 19.0.0, SVG Export Plug-In . SVG Version: 6.00 Build 0)  -->
<svg version="1.1" id="Capa_1" xmlns="http://www.w3.org/2000/svg" xmlns:xlink="http://www.w3.org/1999/xlink" x="0px" y="0px"
	 viewBox="0 0 512 512" style="enable-background:new 0 0 512 512;" xml:space="preserve">
<g>
	<g>
		<path d="M128.6,22.961c-1.86-1.86-4.43-2.93-7.07-2.93c-2.63,0-5.21,1.069-7.07,2.93c-1.86,1.859-2.93,4.439-2.93,7.07
			c0,2.63,1.07,5.21,2.93,7.069c1.86,1.86,4.44,2.931,7.07,2.931c2.63,0,5.21-1.07,7.07-2.931c1.86-1.859,2.93-4.439,2.93-7.069
			C131.53,27.4,130.46,24.82,128.6,22.961z"/>
	</g>
</g>
<g>
	<g>
		<path d="M482,20.031H162.5c-5.523,0-10,4.478-10,10c0,5.522,4.477,10,10,10H482c5.514,0,10,4.486,10,10v56c0,5.514-4.486,10-10,10
			H30c-5.514,0-10-4.486-10-10v-56c0-5.514,4.486-10,10-10h46.5c5.523,0,10-4.478,10-10c0-5.522-4.477-10-10-10H30
			c-16.542,0-30,13.458-30,30v56c0,13.036,8.361,24.152,20,28.28v327.658c0,16.542,13.458,30,30,30h412c16.542,0,30-13.458,30-30
			V134.312c11.639-4.128,20-15.243,20-28.28v-56C512,33.49,498.542,20.031,482,20.031z M472,461.969c0,5.514-4.486,10-10,10H50
			c-5.514,0-10-4.486-10-10V136.031h432V461.969z"/>
	</g>
</g>
<g>
	<g>
		<path d="M178.876,156.031c-49.626,0-90,40.374-90,90c0,4.045,2.437,7.691,6.174,9.239c3.736,1.546,8.038,0.692,10.898-2.168
			c10.805-10.805,28.386-10.805,39.19,0c3.906,3.904,10.238,3.904,14.142,0c2.817-2.817,6.098-4.893,9.596-6.241v73.69
			c0,5.722-4.655,10.376-10.376,10.376s-10.376-4.654-10.376-10.376c0-5.522-4.477-10-10-10c-5.523,0-10,4.478-10,10
			c0,16.749,13.627,30.376,30.376,30.376c16.749,0,30.376-13.627,30.376-30.376v-73.69c3.498,1.348,6.778,3.424,9.595,6.241
			c3.905,3.904,10.237,3.904,14.143,0c10.804-10.805,28.386-10.806,39.191,0c1.914,1.913,4.471,2.929,7.073,2.929
			c1.288,0,2.588-0.249,3.825-0.761c3.737-1.548,6.173-5.194,6.173-9.239C268.876,196.405,228.502,156.031,178.876,156.031z
			 M205.542,233.128c-16.051-10.825-37.282-10.824-53.333,0c-8.026-5.412-17.347-8.119-26.667-8.119
			c-4.747,0-9.494,0.702-14.07,2.106c8.273-29.44,35.358-51.083,67.404-51.083c32.046,0,59.132,21.644,67.403,51.083
			C232.719,222.953,217.656,224.958,205.542,233.128z"/>
	</g>
</g>
<g>
	<g>
		<path d="M413.123,156.03h-88c-5.523,0-10,4.478-10,10v73.333c0.001,26.359,18.988,48.353,44.001,53.057v38.507H342.32
			c-5.523,0-10,4.478-10,10c0,5.522,4.477,10,10,10h53.606c5.523,0,10-4.478,10-10c0-5.522-4.477-10-10-10h-16.803V292.42
			c25.012-4.705,44-26.699,44-53.057V166.03C423.123,160.508,418.646,156.03,413.123,156.03z M403.125,239.367
			c0,18.748-15.252,34-34,34s-34-15.252-34-34v-63.335h36.203l-13.916,30.518c-1.412,3.096-1.152,6.696,0.688,9.559
			c1.84,2.861,5.009,4.591,8.411,4.591h3.848l-4.875,11.401c-2.172,5.078,0.185,10.955,5.262,13.126
			c1.283,0.549,2.616,0.809,3.927,0.809c3.883-0.001,7.576-2.275,9.199-6.071l10.833-25.333c1.321-3.089,1.003-6.636-0.848-9.439
			c-1.851-2.805-4.986-4.492-8.346-4.492h-3.449l11.248-24.667h9.815V239.367z"/>
	</g>
</g>
<g>
	<g>
		<path d="M379.4,426.961c-1.86-1.861-4.43-2.93-7.07-2.93c-2.63,0-5.21,1.069-7.07,2.93c-1.86,1.859-2.93,4.439-2.93,7.07
			c0,2.63,1.07,5.21,2.93,7.069c1.86,1.86,4.44,2.931,7.07,2.931s5.21-1.07,7.07-2.931c1.87-1.859,2.93-4.439,2.93-7.069
			C382.33,431.399,381.27,428.82,379.4,426.961z"/>
	</g>
</g>
<g>
	<g>
		<path d="M325.091,424.031H256c-5.523,0-10,4.478-10,10c0,5.522,4.477,10,10,10h69.091c5.523,0,10-4.478,10-10
			C335.091,428.51,330.614,424.031,325.091,424.031z"/>
	</g>
</g>
<g>
	<g>
		<path d="M413.124,384.031H256.052c-5.523,0-10,4.478-10,10c0,5.522,4.477,10,10,10h157.072c5.523,0,10-4.478,10-10
			C423.124,388.51,418.646,384.031,413.124,384.031z"/>
	</g>
</g>
<g>
</g>
<g>
</g>
<g>
</g>
<g>
</g>
<g>
</g>
<g>
</g>
<g>
</g>
<g>
</g>
<g>
</g>
<g>
</g>
<g>
</g>
<g>
</g>
<g>
</g>
<g>
</g>
<g>
</g>
</svg>
