<?xml version="1.0" encoding="iso-8859-1"?>
<!-- Generator: Adobe Illustrator 19.0.0, SVG Export Plug-In . SVG Version: 6.00 Build 0)  -->
<svg version="1.1" id="Capa_1" xmlns="http://www.w3.org/2000/svg" xmlns:xlink="http://www.w3.org/1999/xlink" x="0px" y="0px"
	 viewBox="0 0 512 512" style="enable-background:new 0 0 512 512;" xml:space="preserve">
<g>
	<g>
		<path d="M426.5,170.5C426.5,76.486,350.014,0,256,0S85.5,76.486,85.5,170.5c0,3.122,1.456,6.003,3.837,7.868
			c-0.002,0.001-0.003,0.002-0.005,0.003L203.695,268H164c-16.542,0-30,13.458-30,30v184c0,16.542,13.458,30,30,30h184
			c16.542,0,30-13.458,30-30V298c0-16.542-13.458-30-30-30h-39.695l114.364-89.629c-0.002-0.001-0.003-0.002-0.005-0.003
			C425.044,176.502,426.5,173.622,426.5,170.5z M111.354,170.22c25.052-17.553,59.697-15.575,82.583,5.933l31.062,83.132
			L111.354,170.22z M214.237,173.341c24.164-19.95,59.362-19.95,83.526,0L262.394,268h-12.788L214.237,173.341z M348,288
			c5.514,0,10,4.486,10,10v184c0,5.514-4.486,10-10,10H164c-5.514,0-10-4.486-10-10V298c0-5.514,4.486-10,10-10H348z
			 M287.001,259.285l31.062-83.132c22.885-21.508,57.53-23.485,82.582-5.933L287.001,259.285z M309.5,157.095
			c-15.579-12.477-34.539-18.715-53.5-18.715s-37.921,6.238-53.5,18.715c-27.501-22.024-65.542-24.607-95.518-7.753
			C117.295,76.334,180.191,20,256,20s138.705,56.334,149.018,129.342C375.043,132.488,337.002,135.071,309.5,157.095z"/>
	</g>
</g>
<g>
	<g>
		<path d="M328,308H184c-5.523,0-10,4.478-10,10v144c0,5.522,4.477,10,10,10h144c5.523,0,10-4.478,10-10V318
			C338,312.478,333.523,308,328,308z M303.858,328L256,375.857L208.143,328H303.858z M194,342.142L241.857,390L194,437.857V342.142z
			 M208.142,452L256,404.143L303.857,452H208.142z M318,437.857L270.143,390L318,342.143V437.857z"/>
	</g>
</g>
<g>
	<g>
		<path d="M256.798,44.629l-0.671-0.002c-5.523,0-10,4.478-10,10c0,5.522,4.477,10,10,10l0.577,0.002c0.016,0,0.032,0,0.048,0
			c5.5,0,9.973-4.446,9.999-9.953C266.777,49.154,262.321,44.655,256.798,44.629z"/>
	</g>
</g>
<g>
	<g>
		<path d="M355.84,93.67c-15.121-19.596-35.424-34.192-58.717-42.212c-5.221-1.798-10.913,0.978-12.71,6.199
			c-1.799,5.222,0.977,10.912,6.199,12.71c19.587,6.744,36.667,19.026,49.394,35.521c1.97,2.553,4.931,3.892,7.924,3.892
			c2.133,0,4.282-0.68,6.102-2.084C358.405,104.322,359.214,98.043,355.84,93.67z"/>
	</g>
</g>
<g>
</g>
<g>
</g>
<g>
</g>
<g>
</g>
<g>
</g>
<g>
</g>
<g>
</g>
<g>
</g>
<g>
</g>
<g>
</g>
<g>
</g>
<g>
</g>
<g>
</g>
<g>
</g>
<g>
</g>
</svg>
