<?xml version="1.0" encoding="iso-8859-1"?>
<!-- Generator: Adobe Illustrator 19.0.0, SVG Export Plug-In . SVG Version: 6.00 Build 0)  -->
<svg version="1.1" id="Capa_1" xmlns="http://www.w3.org/2000/svg" xmlns:xlink="http://www.w3.org/1999/xlink" x="0px" y="0px"
	 viewBox="0 0 512 512" style="enable-background:new 0 0 512 512;" xml:space="preserve">
<g>
	<g>
		<path d="M502,444h-10V242.063c0-5.523-4.478-10-10-10h-8v-86.125c0-5.523-4.478-10-10-10h-58.699V92h40.334
			c13.067,0,23.698-10.631,23.698-23.698V23.698C469.333,10.631,458.702,0,445.635,0H281.031c-13.067,0-23.698,10.631-23.698,23.698
			v44.604c0,13.067,10.631,23.698,23.698,23.698h40.334v43.938h-95.302V56.335c0-4.071-2.469-7.736-6.241-9.267
			c-3.771-1.53-8.097-0.621-10.934,2.301l-14.142,14.565l-14.143-14.565c-1.884-1.939-4.472-3.034-7.175-3.034
			s-5.291,1.095-7.175,3.034l-14.142,14.565L137.972,49.37c-1.884-1.94-4.571-3.034-7.274-3.034s-5.291,1.094-7.175,3.034
			L109.38,63.935L95.238,49.37c-2.836-2.921-7.158-3.831-10.934-2.301c-3.772,1.53-6.241,5.195-6.241,9.267v79.602H48
			c-5.522,0-10,4.477-10,10v86.125h-8c-5.522,0-10,4.477-10,10V444H10c-5.522,0-10,4.478-10,10v48c0,5.522,4.478,10,10,10h198
			c5.522,0,10-4.478,10-10c0-5.522-4.478-10-10-10H20v-28h10h452h10v28H308.009c-5.522,0-10,4.478-10,10c0,5.522,4.478,10,10,10H502
			c5.522,0,10-4.478,10-10v-48C512,448.478,507.522,444,502,444z M445.634,20c2.04,0,3.699,1.659,3.699,3.698v44.604
			c0,2.039-1.659,3.698-3.698,3.698h-42.473l14.429-14.429c3.905-3.905,3.905-10.237,0-14.143c-3.906-3.904-10.236-3.904-14.143,0
			L374.877,72h-43.512h-1.953l52-52H445.634z M385.301,92v43.938h-43.936V92H385.301z M301.127,72h-20.096
			c-2.039,0-3.698-1.659-3.698-3.698V23.698c0-2.039,1.659-3.698,3.698-3.698h72.096L301.127,72z M266,155.938h188v76.125H266
			V155.938z M109.38,88.29c2.703,0,5.291-1.094,7.175-3.034l14.192-14.617l14.191,14.617c1.884,1.94,4.472,3.034,7.175,3.034
			s5.291-1.094,7.175-3.034l14.142-14.565l14.143,14.565c1.884,1.939,4.472,3.034,7.175,3.034s5.291-1.094,7.175-3.034l4.142-4.266
			V193h-108V80.992l4.14,4.264C104.089,87.196,106.677,88.29,109.38,88.29z M58,155.938h20.063V203c0,5.523,4.478,10,10,10h128
			c5.522,0,10-4.477,10-10v-47.063H246v76.125H58V155.938z M472,444H40V252.063h432V444z"/>
	</g>
</g>
<g>
	<g>
		<path d="M263.069,494.93C261.21,493.069,258.63,492,256,492s-5.21,1.069-7.07,2.93c-1.86,1.861-2.93,4.429-2.93,7.07
			c0,2.63,1.069,5.21,2.93,7.069c1.86,1.86,4.44,2.931,7.07,2.931s5.21-1.07,7.069-2.931C264.93,507.21,266,504.63,266,502
			S264.93,496.79,263.069,494.93z"/>
	</g>
</g>
<g>
	<g>
		<path d="M140,272.063H84c-5.522,0-10,4.478-10,10v44c0,5.522,4.478,10,10,10h56c5.522,0,10-4.478,10-10v-44
			C150,276.54,145.522,272.063,140,272.063z M130,316.063H94v-24h36V316.063z"/>
	</g>
</g>
<g>
	<g>
		<path d="M236,272.063h-56c-5.522,0-10,4.478-10,10v44c0,5.522,4.478,10,10,10h56c5.522,0,10-4.478,10-10v-44
			C246,276.54,241.522,272.063,236,272.063z M226,316.063h-36v-24h36V316.063z"/>
	</g>
</g>
<g>
	<g>
		<path d="M332,272.063h-56c-5.522,0-10,4.478-10,10v44c0,5.522,4.478,10,10,10h56c5.522,0,10-4.478,10-10v-44
			C342,276.54,337.522,272.063,332,272.063z M322,316.063h-36v-24h36V316.063z"/>
	</g>
</g>
<g>
	<g>
		<path d="M428,272.063h-56c-5.522,0-10,4.478-10,10v44c0,5.522,4.478,10,10,10h56c5.522,0,10-4.478,10-10v-44
			C438,276.54,433.522,272.063,428,272.063z M418,316.063h-36v-24h36V316.063z"/>
	</g>
</g>
<g>
	<g>
		<path d="M140,360.063H84c-5.522,0-10,4.478-10,10v44c0,5.522,4.478,10,10,10h56c5.522,0,10-4.478,10-10v-44
			C150,364.54,145.522,360.063,140,360.063z M130,404.063H94v-24h36V404.063z"/>
	</g>
</g>
<g>
	<g>
		<path d="M236,360.063h-56c-5.522,0-10,4.478-10,10v44c0,5.522,4.478,10,10,10h56c5.522,0,10-4.478,10-10v-44
			C246,364.54,241.522,360.063,236,360.063z M226,404.063h-36v-24h36V404.063z"/>
	</g>
</g>
<g>
	<g>
		<path d="M332,360.063h-56c-5.522,0-10,4.478-10,10v44c0,5.522,4.478,10,10,10h56c5.522,0,10-4.478,10-10v-44
			C342,364.54,337.522,360.063,332,360.063z M322,404.063h-36v-24h36V404.063z"/>
	</g>
</g>
<g>
	<g>
		<path d="M428,360.063h-56c-5.522,0-10,4.478-10,10v44c0,5.522,4.478,10,10,10h56c5.522,0,10-4.478,10-10v-44
			C438,364.54,433.522,360.063,428,360.063z M418,404.063h-36v-24h36V404.063z"/>
	</g>
</g>
<g>
	<g>
		<path d="M323.74,185.93c-1.86-1.86-4.44-2.93-7.07-2.93c-2.641,0-5.21,1.07-7.08,2.93c-1.86,1.86-2.92,4.44-2.92,7.07
			s1.06,5.21,2.92,7.07c1.87,1.86,4.439,2.93,7.08,2.93c2.63,0,5.21-1.07,7.07-2.93c1.859-1.86,2.93-4.44,2.93-7.07
			S325.6,187.79,323.74,185.93z"/>
	</g>
</g>
<g>
	<g>
		<path d="M370.399,185.93c-1.859-1.86-4.439-2.93-7.069-2.93s-5.21,1.07-7.07,2.93s-2.93,4.44-2.93,7.07s1.069,5.21,2.93,7.07
			c1.87,1.86,4.44,2.93,7.07,2.93s5.21-1.07,7.069-2.93c1.86-1.86,2.931-4.44,2.931-7.07S372.26,187.79,370.399,185.93z"/>
	</g>
</g>
<g>
	<g>
		<path d="M417.069,185.93C415.21,184.07,412.63,183,410,183s-5.21,1.07-7.07,2.93c-1.86,1.86-2.93,4.44-2.93,7.07
			s1.069,5.21,2.93,7.07c1.86,1.86,4.44,2.93,7.07,2.93s5.21-1.07,7.069-2.93c1.86-1.86,2.931-4.44,2.931-7.07
			S418.93,187.79,417.069,185.93z"/>
	</g>
</g>
<g>
	<g>
		<path d="M180,113h-54.014c-5.522,0-10,4.477-10,10s4.478,10,10,10H180c5.522,0,10-4.477,10-10S185.522,113,180,113z"/>
	</g>
</g>
<g>
	<g>
		<path d="M180,153h-54.014c-5.522,0-10,4.477-10,10s4.478,10,10,10H180c5.522,0,10-4.477,10-10S185.522,153,180,153z"/>
	</g>
</g>
<g>
</g>
<g>
</g>
<g>
</g>
<g>
</g>
<g>
</g>
<g>
</g>
<g>
</g>
<g>
</g>
<g>
</g>
<g>
</g>
<g>
</g>
<g>
</g>
<g>
</g>
<g>
</g>
<g>
</g>
</svg>
