<?xml version="1.0" encoding="iso-8859-1"?>
<!-- Generator: Adobe Illustrator 19.0.0, SVG Export Plug-In . SVG Version: 6.00 Build 0)  -->
<svg version="1.1" id="Capa_1" xmlns="http://www.w3.org/2000/svg" xmlns:xlink="http://www.w3.org/1999/xlink" x="0px" y="0px"
	 viewBox="0 0 512.001 512.001" style="enable-background:new 0 0 512.001 512.001;" xml:space="preserve">
<g>
	<g>
		<path d="M389.992,194.138l-122.635-41.162l122.555-39.98c3.925-1.28,6.66-4.842,6.884-8.964c0.224-4.122-2.109-7.959-5.872-9.657
			c-40.169-18.127-85.436-20.806-127.463-7.544l-99.739,31.475c-0.413-0.206-0.838-0.396-1.288-0.547L99.468,96.625
			C95.891,72.54,75.08,54,50.016,54c-27.57,0-50,22.43-50,50c0,25.192,18.73,46.08,42.993,49.499C18.738,156.912,0,177.803,0,203
			c0,27.57,22.43,50,50,50c26.004,0,47.425-19.955,49.776-45.355l60.802-19.835l102.882,32.467
			c17.596,5.554,35.759,8.312,53.88,8.312c25.159-0.001,50.233-5.318,73.583-15.856c3.749-1.692,6.08-5.507,5.874-9.615
			C396.591,199.01,393.891,195.447,389.992,194.138z M98.207,117.298l33.295,11.175L78.148,145.31
			C87.796,138.719,95.018,128.839,98.207,117.298z M20.016,104c0-16.542,13.458-30,30-30s30,13.458,30,30s-13.458,30-30,30
			S20.016,120.542,20.016,104z M50,233c-16.542,0-30-13.458-30-30s13.458-30,30-30s30,13.458,30,30S66.542,233,50,233z
			 M97.48,187.357c-2.907-8.802-8.194-16.525-15.099-22.41l187.098-59.044c28.098-8.866,57.826-9.709,86.027-2.721L97.48,187.357z
			 M269.479,201.204l-76.223-24.054l42.227-13.776l120.478,40.438C327.626,210.923,297.727,210.12,269.479,201.204z"/>
	</g>
</g>
<g>
	<g>
		<path d="M10.016,329c-5.523,0-10,4.478-10,10v9c0,5.522,4.477,10,10,10s10-4.478,10-10v-9C20.016,333.478,15.539,329,10.016,329z"
			/>
	</g>
</g>
<g>
	<g>
		<path d="M10.016,379c-5.523,0-10,4.478-10,10v9c0,5.522,4.477,10,10,10s10-4.478,10-10v-9C20.016,383.478,15.539,379,10.016,379z"
			/>
	</g>
</g>
<g>
	<g>
		<path d="M10.016,279.269c-5.523,0-10,4.478-10,10V298c0,5.522,4.477,10,10,10s10-4.478,10-10v-8.731
			C20.016,283.747,15.539,279.269,10.016,279.269z"/>
	</g>
</g>
<g>
	<g>
		<path d="M10.016,429c-5.523,0-10,4.478-10,10v9c0,5.522,4.477,10,10,10s10-4.478,10-10v-9C20.016,433.478,15.539,429,10.016,429z"
			/>
	</g>
</g>
<g>
	<g>
		<path d="M403.001,143.81h-9c-5.523,0-10,4.477-10,10s4.477,10,10,10h9c5.523,0,10-4.477,10-10S408.524,143.81,403.001,143.81z"/>
	</g>
</g>
<g>
	<g>
		<path d="M353.001,143.81h-9c-5.523,0-10,4.477-10,10s4.477,10,10,10h9c5.523,0,10-4.477,10-10S358.524,143.81,353.001,143.81z"/>
	</g>
</g>
<g>
	<g>
		<path d="M453.001,143.81h-9c-5.523,0-10,4.477-10,10s4.477,10,10,10h9c5.523,0,10-4.477,10-10S458.524,143.81,453.001,143.81z"/>
	</g>
</g>
<g>
	<g>
		<path d="M167.601,146.741c-1.86-1.86-4.44-2.93-7.07-2.93s-5.21,1.07-7.07,2.93c-1.86,1.86-2.93,4.43-2.93,7.07
			c0,2.63,1.07,5.21,2.93,7.07c1.86,1.859,4.43,2.93,7.07,2.93c2.63,0,5.21-1.07,7.07-2.93s2.93-4.44,2.93-7.07
			S169.461,148.602,167.601,146.741z"/>
	</g>
</g>
<g>
	<g>
		<path d="M502.001,243.81c-5.523,0-10,4.477-10,10v9c0,5.522,4.477,10,10,10s10-4.478,10-10v-9
			C512.001,248.287,507.524,243.81,502.001,243.81z"/>
	</g>
</g>
<g>
	<g>
		<path d="M502.001,343.81c-5.523,0-10,4.478-10,10v9c0,5.522,4.477,10,10,10s10-4.478,10-10v-9
			C512.001,348.288,507.524,343.81,502.001,343.81z"/>
	</g>
</g>
<g>
	<g>
		<path d="M502.001,293.81c-5.523,0-10,4.478-10,10v9c0,5.522,4.477,10,10,10s10-4.478,10-10v-9
			C512.001,298.288,507.524,293.81,502.001,293.81z"/>
	</g>
</g>
<g>
	<g>
		<path d="M502.001,193.81c-5.523,0-10,4.477-10,10v9c0,5.523,4.477,10,10,10s10-4.477,10-10v-9
			C512.001,198.287,507.524,193.81,502.001,193.81z"/>
	</g>
</g>
<g>
	<g>
		<path d="M502.001,393.809c-5.523,0-10,4.478-10,10v9c0,5.522,4.477,10,10,10s10-4.478,10-10v-9
			C512.001,398.287,507.524,393.809,502.001,393.809z"/>
	</g>
</g>
<g>
	<g>
		<path d="M502.001,143.81h-8c-5.523,0-10,4.477-10,10c0,4.852,3.456,8.894,8.041,9.805c0.411,5.145,4.708,9.195,9.959,9.195
			c5.523,0,10-4.477,10-10v-9C512.001,148.287,507.524,143.81,502.001,143.81z"/>
	</g>
</g>
<g>
	<g>
		<path d="M102.001,438h-9c-5.523,0-10,4.478-10,10c0,5.522,4.477,10,10,10h9c5.523,0,10-4.478,10-10
			C112.001,442.478,107.524,438,102.001,438z"/>
	</g>
</g>
<g>
	<g>
		<path d="M152.001,438h-9c-5.523,0-10,4.478-10,10c0,5.522,4.477,10,10,10h9c5.523,0,10-4.478,10-10
			C162.001,442.478,157.524,438,152.001,438z"/>
	</g>
</g>
<g>
	<g>
		<path d="M302.001,438h-9c-5.523,0-10,4.478-10,10c0,5.522,4.477,10,10,10h9c5.523,0,10-4.478,10-10
			C312.001,442.478,307.524,438,302.001,438z"/>
	</g>
</g>
<g>
	<g>
		<path d="M52.001,438h-9c-5.523,0-10,4.478-10,10c0,5.522,4.477,10,10,10h9c5.523,0,10-4.478,10-10
			C62.001,442.478,57.524,438,52.001,438z"/>
	</g>
</g>
<g>
	<g>
		<path d="M352.001,438h-9c-5.523,0-10,4.478-10,10c0,5.522,4.477,10,10,10h9c5.523,0,10-4.478,10-10
			C362.001,442.478,357.524,438,352.001,438z"/>
	</g>
</g>
<g>
	<g>
		<path d="M202.001,438h-9c-5.523,0-10,4.478-10,10c0,5.522,4.477,10,10,10h9c5.523,0,10-4.478,10-10
			C212.001,442.478,207.524,438,202.001,438z"/>
	</g>
</g>
<g>
	<g>
		<path d="M252.001,438h-9c-5.523,0-10,4.478-10,10c0,5.522,4.477,10,10,10h9c5.523,0,10-4.478,10-10
			C262.001,442.478,257.524,438,252.001,438z"/>
	</g>
</g>
<g>
	<g>
		<path d="M502.001,438h-9c-5.523,0-10,4.478-10,10c0,5.522,4.477,10,10,10h9c5.523,0,10-4.478,10-10
			C512.001,442.478,507.524,438,502.001,438z"/>
	</g>
</g>
<g>
	<g>
		<path d="M452.001,438h-9c-5.523,0-10,4.478-10,10c0,5.522,4.477,10,10,10h9c5.523,0,10-4.478,10-10
			C462.001,442.478,457.524,438,452.001,438z"/>
	</g>
</g>
<g>
	<g>
		<path d="M402.001,438h-9c-5.523,0-10,4.478-10,10c0,5.522,4.477,10,10,10h9c5.523,0,10-4.478,10-10
			C412.001,442.478,407.524,438,402.001,438z"/>
	</g>
</g>
<g>
	<g>
		<path d="M186.562,265.083c-4.809-2.715-10.909-1.018-13.624,3.792l-53.769,95.244c-2.715,4.81-1.018,10.909,3.792,13.624
			c1.554,0.877,3.241,1.294,4.907,1.294c3.49,0,6.88-1.83,8.717-5.086l53.769-95.244
			C193.069,273.897,191.372,267.798,186.562,265.083z"/>
	</g>
</g>
<g>
	<g>
		<path d="M195.469,324.753c-16.542,0-30,13.458-30,30s13.458,30,30,30s30-13.458,30-30S212.011,324.753,195.469,324.753z
			 M195.469,364.753c-5.514,0-10-4.486-10-10c0-5.514,4.486-10,10-10c5.514,0,10,4.486,10,10
			C205.469,360.267,200.983,364.753,195.469,364.753z"/>
	</g>
</g>
<g>
	<g>
		<path d="M125.586,247.679c-16.542,0-30,13.458-30,30s13.458,30,30,30s30-13.458,30-30S142.128,247.679,125.586,247.679z
			 M125.586,287.679c-5.514,0-10-4.486-10-10c0-5.514,4.486-10,10-10c5.514,0,10,4.486,10,10
			C135.586,283.193,131.1,287.679,125.586,287.679z"/>
	</g>
</g>
<g>
	<g>
		<path d="M400.221,362.34c-1.87-1.86-4.44-2.93-7.08-2.93c-2.63,0.001-5.2,1.07-7.07,2.93c-1.86,1.86-2.93,4.44-2.93,7.07
			s1.07,5.21,2.93,7.069c1.87,1.87,4.44,2.931,7.07,2.931c2.64,0,5.21-1.061,7.08-2.931c1.86-1.859,2.93-4.439,2.93-7.069
			S402.081,364.201,400.221,362.34z"/>
	</g>
</g>
<g>
	<g>
		<path d="M356.944,359.413h-71.959c-5.523,0-10,4.478-10,10c0,5.522,4.477,10,10,10h71.959c5.523,0,10-4.478,10-10
			C366.944,363.891,362.467,359.413,356.944,359.413z"/>
	</g>
</g>
<g>
	<g>
		<path d="M448.631,311.413H285.039c-5.523,0-10,4.478-10,10c0,5.522,4.477,10,10,10h163.592c5.523,0,10-4.478,10-10
			C458.631,315.891,454.154,311.413,448.631,311.413z"/>
	</g>
</g>
<g>
	<g>
		<path d="M448.563,263.413H284.971c-5.523,0-10,4.478-10,10c0,5.522,4.477,10,10,10h163.592c5.523,0,10-4.478,10-10
			C458.563,267.891,454.086,263.413,448.563,263.413z"/>
	</g>
</g>
<g>
</g>
<g>
</g>
<g>
</g>
<g>
</g>
<g>
</g>
<g>
</g>
<g>
</g>
<g>
</g>
<g>
</g>
<g>
</g>
<g>
</g>
<g>
</g>
<g>
</g>
<g>
</g>
<g>
</g>
</svg>
