<?xml version="1.0" encoding="iso-8859-1"?>
<!-- Generator: Adobe Illustrator 19.0.0, SVG Export Plug-In . SVG Version: 6.00 Build 0)  -->
<svg version="1.1" id="Capa_1" xmlns="http://www.w3.org/2000/svg" xmlns:xlink="http://www.w3.org/1999/xlink" x="0px" y="0px"
	 viewBox="0 0 512 512" style="enable-background:new 0 0 512 512;" xml:space="preserve">
<g>
	<g>
		<path d="M511.301,142.344c0.002,0,0.004-0.001,0.006-0.001l-21.31-54.238V34c0-18.748-15.252-34-34-34h-400
			c-18.748,0-34,15.252-34,34v54.106L0.692,142.344c0.002,0.001,0.004,0.001,0.006,0.002C0.253,143.479,0,144.709,0,146v24.958
			c0,17.064,8.528,31.51,21.997,39.969V502c0,5.522,4.477,10,10,10h448c5.523,0,10-4.478,10-10V210.931
			C503.47,202.473,512,188.025,512,170.958V146C512,144.708,511.747,143.478,511.301,142.344z M41.997,34c0-7.72,6.28-14,14-14h400
			c7.72,0,14,6.28,14,14v46h-428V34z M38.813,100h434.369l14.145,36H24.672L38.813,100z M410,156v14.958c0,16.224-13.038,28-31,28
			c-17.962,0-31-11.776-31-28V156H410z M250.22,206.446c0.263-0.263,0.505-0.539,0.733-0.823c1.827-1.676,3.517-3.482,5.047-5.415
			c1.53,1.933,3.22,3.739,5.047,5.415c0.228,0.284,0.47,0.56,0.733,0.823L333.334,278H178.666L250.22,206.446z M215,198.958
			c-17.962,0-31-11.776-31-28V156h62v14.958C246,187.182,232.962,198.958,215,198.958z M266,170.958V156h62v14.958
			c0,16.224-13.038,28-31,28C279.038,198.958,266,187.182,266,170.958z M164,156v14.958c0,16.224-13.038,28-31,28
			c-17.962,0-31-11.776-31-28V156H164z M20,170.958V156h62v14.958c0,16.224-13.038,28-31,28S20,187.182,20,170.958z M469.997,492
			h-428V218.263c2.91,0.449,5.913,0.696,9.003,0.696c17.181,0,31.861-7.208,41-18.75c9.139,11.542,23.819,18.75,41,18.75
			c17.181,0,31.861-7.208,41-18.75c8.177,10.326,20.788,17.184,35.659,18.513L150.381,278H81c-5.523,0-10,4.478-10,10v160
			c0,5.522,4.477,10,10,10h134c5.523,0,10-4.478,10-10c0-5.522-4.477-10-10-10H91V298h330v140H305c-5.523,0-10,4.478-10,10
			c0,5.522,4.477,10,10,10h126c5.523,0,10-4.478,10-10V288c0-5.522-4.477-10-10-10h-69.381l-59.278-59.278
			c14.871-1.329,27.483-8.187,35.659-18.513c9.139,11.542,23.819,18.75,41,18.75c17.181,0,31.861-7.208,41-18.75
			c9.139,11.542,23.819,18.75,41,18.75c3.088,0,6.088-0.246,8.997-0.695V492z M492,170.958c0,16.224-13.038,28-31,28
			c-17.962,0-31-11.776-31-28V156h62V170.958z"/>
	</g>
</g>
<g>
	<g>
		<path d="M90.07,42.93C88.21,41.07,85.63,40,83,40s-5.21,1.07-7.07,2.93S73,47.37,73,50s1.07,5.21,2.93,7.07S80.37,60,83,60
			s5.21-1.07,7.07-2.93S93,52.63,93,50S91.93,44.79,90.07,42.93z"/>
	</g>
</g>
<g>
	<g>
		<path d="M133.06,42.93c-1.86-1.86-4.44-2.93-7.07-2.93c-2.64,0-5.21,1.07-7.07,2.93c-1.87,1.86-2.93,4.44-2.93,7.07
			s1.06,5.21,2.93,7.07c1.86,1.86,4.43,2.93,7.07,2.93c2.63,0,5.21-1.07,7.07-2.93s2.93-4.44,2.93-7.07S134.92,44.79,133.06,42.93z"
			/>
	</g>
</g>
<g>
	<g>
		<path d="M176.04,42.93c-1.86-1.86-4.43-2.93-7.07-2.93c-2.63,0-5.21,1.07-7.07,2.93c-1.86,1.86-2.93,4.44-2.93,7.07
			s1.07,5.21,2.93,7.07s4.44,2.93,7.07,2.93c2.64,0,5.21-1.07,7.07-2.93c1.87-1.86,2.93-4.44,2.93-7.07S177.91,44.79,176.04,42.93z"
			/>
	</g>
</g>
<g>
	<g>
		<path d="M437.086,40H235.667c-5.523,0-10,4.477-10,10s4.477,10,10,10h201.419c5.523,0,10-4.477,10-10S442.609,40,437.086,40z"/>
	</g>
</g>
<g>
	<g>
		<path d="M145.972,318.003c-18.991,0-34.44,15.45-34.44,34.44v31.119c0,18.99,15.45,34.44,34.44,34.44
			c18.99,0,34.441-15.45,34.441-34.44v-31.119C180.413,333.453,164.963,318.003,145.972,318.003z M160.413,383.563
			c0,7.963-6.478,14.44-14.441,14.44c-7.962,0-14.44-6.478-14.44-14.44v-31.119c0-7.963,6.478-14.44,14.44-14.44
			c7.963,0,14.441,6.478,14.441,14.44V383.563z"/>
	</g>
</g>
<g>
	<g>
		<path d="M232.211,318.003h-27.46c-5.523,0-10,4.478-10,10v20v20v40c0,5.522,4.477,10,10,10c5.523,0,10-4.478,10-10v-30h17.46
			c15.44,0,28.002-12.563,28.002-28.003v-3.994C260.213,330.566,247.651,318.003,232.211,318.003z M240.213,350
			c0,4.413-3.59,8.003-8.002,8.003h-17.46v-10v-10h17.46c4.413,0,8.002,3.59,8.002,8.003V350z"/>
	</g>
</g>
<g>
	<g>
		<path d="M312.367,397.997h-21.473c-0.198,0-0.359-0.161-0.359-0.359v-19.635h11.729c5.523,0,10-4.478,10-10
			c0-5.522-4.477-10-10-10h-11.729v-19.635c0-0.198,0.161-0.359,0.359-0.359h21.473c5.523,0,10-4.478,10-10c0-5.522-4.477-10-10-10
			h-21.473c-11.226,0-20.359,9.133-20.359,20.359v59.27c0,11.227,9.133,20.359,20.359,20.359h21.473c5.523,0,10-4.477,10-10
			C322.367,402.475,317.89,397.997,312.367,397.997z"/>
	</g>
</g>
<g>
	<g>
		<path d="M390.468,318.003c-5.523,0-10,4.478-10,10v42.301l-26.967-47.257c-2.249-3.94-6.868-5.872-11.25-4.71
			c-4.384,1.163-7.436,5.131-7.436,9.666v80c0,5.522,4.477,10,10,10s10-4.478,10-10v-42.301l26.967,47.257
			c1.811,3.174,5.159,5.045,8.685,5.045c0.851,0,1.713-0.109,2.565-0.335c4.384-1.163,7.436-5.131,7.436-9.666v-80
			C400.468,322.481,395.991,318.003,390.468,318.003z"/>
	</g>
</g>
<g>
	<g>
		<path d="M269.5,440.93c-1.87-1.861-4.44-2.93-7.07-2.93c-2.64,0-5.21,1.069-7.08,2.93c-1.86,1.86-2.92,4.44-2.92,7.07
			s1.06,5.21,2.92,7.069c1.87,1.86,4.45,2.931,7.08,2.931s5.2-1.07,7.07-2.931c1.86-1.859,2.93-4.439,2.93-7.069
			S271.36,442.79,269.5,440.93z"/>
	</g>
</g>
<g>
</g>
<g>
</g>
<g>
</g>
<g>
</g>
<g>
</g>
<g>
</g>
<g>
</g>
<g>
</g>
<g>
</g>
<g>
</g>
<g>
</g>
<g>
</g>
<g>
</g>
<g>
</g>
<g>
</g>
</svg>
