<?xml version="1.0" encoding="iso-8859-1"?>
<!-- Generator: Adobe Illustrator 19.0.0, SVG Export Plug-In . SVG Version: 6.00 Build 0)  -->
<svg version="1.1" id="Capa_1" xmlns="http://www.w3.org/2000/svg" xmlns:xlink="http://www.w3.org/1999/xlink" x="0px" y="0px"
	 viewBox="0 0 512.001 512.001" style="enable-background:new 0 0 512.001 512.001;" xml:space="preserve">
<g>
	<g>
		<path d="M282.672,444.5H229.33c-5.522,0-10,4.477-10,10s4.478,10,10,10h53.342c5.522,0,10-4.477,10-10
			S288.194,444.5,282.672,444.5z"/>
	</g>
</g>
<g>
	<g>
		<path d="M512.001,166.458V141.5c-0.002-0.001-0.003-0.002-0.005-0.003c0-1.234-0.224-2.473-0.688-3.654l-21.311-54.238V53.5
			c0-18.748-15.252-34-34-34h-400c-18.748,0-34,15.252-34,34v30.106L0.693,137.844c-0.464,1.182-0.688,2.422-0.688,3.656
			c-0.002,0-0.003,0-0.005,0v24.958c0,17.064,8.528,31.51,21.997,39.969V416.5H10.001c-5.522,0-10,4.477-10,10v17
			c0,27.019,21.981,49,49,49h414c27.019,0,49-21.981,49-49v-17c0-5.523-4.478-10-10-10h-12.003V206.431
			C503.471,197.974,512.001,183.525,512.001,166.458z M41.998,53.5c0-7.72,6.28-14,14-14h400c7.72,0,14,6.28,14,14v22h-428V53.5z
			 M38.814,95.5h434.369l14.146,36h-67.328h-82h-82h-82h-82H24.673L38.814,95.5z M133.001,214.459c17.181,0,31.861-7.208,41-18.75
			c9.139,11.541,23.819,18.75,41,18.75c17.181,0,31.861-7.208,41-18.75c9.139,11.541,23.819,18.75,41,18.75
			c17.181,0,31.861-7.208,41-18.75c9.139,11.541,23.819,18.75,41,18.75c17.181,0,31.861-7.208,41-18.75
			c9.139,11.541,23.819,18.75,41,18.75c3.088,0,6.088-0.246,8.997-0.695V416.5h-428V213.763c2.91,0.449,5.913,0.696,9.003,0.696
			c17.181,0,31.861-7.208,41-18.75C101.14,207.25,115.82,214.459,133.001,214.459z M102.001,166.458V151.5h62v14.958
			c0,16.224-13.037,28-31,28S102.001,182.682,102.001,166.458z M184.001,166.458V151.5h62v14.958c0,16.224-13.037,28-31,28
			S184.001,182.682,184.001,166.458z M266.001,166.458V151.5h62v14.958c0,16.224-13.037,28-31,28S266.001,182.682,266.001,166.458z
			 M348.001,166.458V151.5h62v14.958c0,16.224-13.037,28-31,28S348.001,182.682,348.001,166.458z M20.001,166.458V151.5h62v14.958
			c0,16.224-13.037,28-31,28S20.001,182.682,20.001,166.458z M492.001,436.5v7c0,15.991-13.01,29-29,29h-414
			c-15.99,0-29-13.009-29-29v-7H492.001z M461.001,194.458c-17.963,0-31-11.776-31-28V151.5h62v14.958
			C492.001,182.682,478.964,194.458,461.001,194.458z"/>
	</g>
</g>
<g>
	<g>
		<path d="M220.001,246.469h-144c-5.522,0-10,4.477-10,10v128c0,5.523,4.478,10,10,10h144c5.522,0,10-4.477,10-10v-128
			C230.001,250.946,225.523,246.469,220.001,246.469z M210.001,374.469h-124v-108h124V374.469z"/>
	</g>
</g>
<g>
	<g>
		<path d="M432.461,249.4c-1.86-1.86-4.44-2.93-7.07-2.93s-5.21,1.07-7.07,2.93c-1.859,1.86-2.93,4.43-2.93,7.07
			c0,2.63,1.07,5.21,2.93,7.07s4.44,2.93,7.07,2.93s5.21-1.07,7.07-2.93c1.87-1.86,2.93-4.44,2.93-7.07
			S434.331,251.26,432.461,249.4z"/>
	</g>
</g>
<g>
	<g>
		<path d="M386.192,246.469H299.98c-5.522,0-10,4.477-10,10s4.478,10,10,10h86.212c5.522,0,10-4.477,10-10
			S391.714,246.469,386.192,246.469z"/>
	</g>
</g>
<g>
	<g>
		<path d="M425.394,298.531H299.98c-5.522,0-10,4.477-10,10v56c0,5.523,4.478,10,10,10h125.413c5.522,0,10-4.477,10-10v-56
			C435.394,303.008,430.916,298.531,425.394,298.531z M309.98,354.531v-36h105.413v36H309.98z"/>
	</g>
</g>
<g>
</g>
<g>
</g>
<g>
</g>
<g>
</g>
<g>
</g>
<g>
</g>
<g>
</g>
<g>
</g>
<g>
</g>
<g>
</g>
<g>
</g>
<g>
</g>
<g>
</g>
<g>
</g>
<g>
</g>
</svg>
