<?xml version="1.0" encoding="iso-8859-1"?>
<!-- Generator: Adobe Illustrator 19.0.0, SVG Export Plug-In . SVG Version: 6.00 Build 0)  -->
<svg version="1.1" id="Capa_1" xmlns="http://www.w3.org/2000/svg" xmlns:xlink="http://www.w3.org/1999/xlink" x="0px" y="0px"
	 viewBox="0 0 512 512" style="enable-background:new 0 0 512 512;" xml:space="preserve">
<g>
	<g>
		<path d="M367.64,398.93c-1.86-1.86-4.44-2.93-7.07-2.93s-5.21,1.07-7.07,2.93c-1.86,1.86-2.93,4.44-2.93,7.07s1.07,5.21,2.93,7.07
			c1.86,1.86,4.44,2.93,7.07,2.93s5.21-1.07,7.07-2.93s2.93-4.44,2.93-7.07S369.5,400.79,367.64,398.93z"/>
	</g>
</g>
<g>
	<g>
		<path d="M64.012,0H10C4.477,0,0,4.477,0,10v54.012c0,5.523,4.477,10,10,10s10-4.477,10-10V20h44.012c5.523,0,10-4.477,10-10
			S69.535,0,64.012,0z"/>
	</g>
</g>
<g>
	<g>
		<path d="M502,0h-54.012c-5.523,0-10,4.477-10,10s4.477,10,10,10H492v44.012c0,5.523,4.477,10,10,10s10-4.477,10-10V10
			C512,4.477,507.523,0,502,0z"/>
	</g>
</g>
<g>
	<g>
		<path d="M502,437.988c-5.523,0-10,4.477-10,10V492h-44.012c-5.523,0-10,4.477-10,10s4.477,10,10,10H502c5.523,0,10-4.477,10-10
			v-54.012C512,442.465,507.523,437.988,502,437.988z"/>
	</g>
</g>
<g>
	<g>
		<path d="M64.012,492H20v-44.012c0-5.523-4.477-10-10-10s-10,4.477-10,10V502c0,5.523,4.477,10,10,10h54.012
			c5.523,0,10-4.477,10-10S69.535,492,64.012,492z"/>
	</g>
</g>
<g>
	<g>
		<path d="M502,222h-44V106c0-5.523-4.477-10-10-10h-48c-5.523,0-10,4.477-10,10v116h-19.431V106c0-5.523-4.477-10-10-10
			s-10,4.477-10,10v116h-20V106c0-5.523-4.477-10-10-10s-10,4.477-10,10v116H289.89V106c0-5.523-4.477-10-10-10h-38
			c-5.523,0-10,4.477-10,10v116h-20V106c0-5.523-4.477-10-10-10s-10,4.477-10,10v116H170V106c0-5.523-4.477-10-10-10h-48
			c-5.523,0-10,4.477-10,10v116H74v-82.333c0-5.523-4.477-10-10-10s-10,4.477-10,10V222H10c-5.523,0-10,4.477-10,10v48
			c0,5.523,4.477,10,10,10h44v116c0,5.523,4.477,10,10,10s10-4.477,10-10V290h28v116c0,5.523,4.477,10,10,10h48
			c5.523,0,10-4.477,10-10V290h21.89v116c0,5.523,4.477,10,10,10s10-4.477,10-10V290h20v116c0,5.523,4.477,10,10,10h38
			c5.523,0,10-4.477,10-10V290h20.679v116c0,5.523,4.477,10,10,10s10-4.477,10-10V290h20v80.5c0,5.523,4.477,10,10,10
			s10-4.477,10-10V290H390v116c0,5.523,4.477,10,10,10h48c5.523,0,10-4.477,10-10V290h44c5.523,0,10-4.477,10-10v-48
			C512,226.477,507.523,222,502,222z M410,116h28v106h-28V116z M251.89,116h18v106h-18V116z M122,116h28v106h-28V116z M150,396h-28
			V290h28V396z M269.89,396h-18V290h18V396z M438,396h-28V290h28V396z M492,270H20v-28h472V270z"/>
	</g>
</g>
<g>
	<g>
		<path d="M71.07,98.93C69.21,97.07,66.63,96,64,96s-5.21,1.07-7.07,2.93S54,103.37,54,106s1.07,5.21,2.93,7.07S61.37,116,64,116
			s5.21-1.07,7.07-2.93S74,108.63,74,106S72.93,100.79,71.07,98.93z"/>
	</g>
</g>
<g>
</g>
<g>
</g>
<g>
</g>
<g>
</g>
<g>
</g>
<g>
</g>
<g>
</g>
<g>
</g>
<g>
</g>
<g>
</g>
<g>
</g>
<g>
</g>
<g>
</g>
<g>
</g>
<g>
</g>
</svg>
