<?xml version="1.0" encoding="iso-8859-1"?>
<!-- Generator: Adobe Illustrator 19.0.0, SVG Export Plug-In . SVG Version: 6.00 Build 0)  -->
<svg version="1.1" id="Capa_1" xmlns="http://www.w3.org/2000/svg" xmlns:xlink="http://www.w3.org/1999/xlink" x="0px" y="0px"
	 viewBox="0 0 512 512" style="enable-background:new 0 0 512 512;" xml:space="preserve">
<g>
	<g>
		<path d="M481.412,44h-75.51c1.657-1.785,2.678-4.168,2.678-6.795C408.58,16.69,391.89,0,371.375,0s-37.204,16.69-37.204,37.205V44
			h-43.518c1.657-1.785,2.678-4.168,2.678-6.795C293.332,16.69,276.642,0,256.127,0c-20.515,0-37.205,16.69-37.205,37.205V44
			h-43.518c1.657-1.785,2.678-4.168,2.678-6.795C178.083,16.69,161.393,0,140.878,0c-20.515,0-37.204,16.69-37.204,37.205V44H64.412
			c-16.867,0-30.588,13.722-30.588,30.588v335.985c0,5.523,4.477,10,10,10c5.523,0,10-4.477,10-10V147h360.51
			c5.523,0,10-4.477,10-10s-4.477-10-10-10H53.823V74.588C53.823,68.75,58.573,64,64.412,64h39.262v6.795
			c0,20.515,16.689,37.205,37.204,37.205c5.523,0,10-4.477,10-10s-4.477-10-10-10c-9.486,0-17.204-7.718-17.204-17.205v-33.59
			c0-9.487,7.718-17.205,17.204-17.205c9.487,0,17.205,7.718,17.205,17.205c0,2.627,1.021,5.011,2.678,6.795H147
			c-5.523,0-10,4.477-10,10s4.477,10,10,10h71.922v6.795c0,20.515,16.69,37.205,37.205,37.205c5.523,0,10-4.477,10-10
			s-4.477-10-10-10c-9.487,0-17.205-7.718-17.205-17.205v-33.59c0-9.487,7.718-17.205,17.205-17.205s17.205,7.718,17.205,17.205
			c0,2.627,1.021,5.011,2.678,6.795h-13.761c-5.523,0-10,4.477-10,10s4.477,10,10,10h71.922v6.795
			c0,20.515,16.69,37.205,37.205,37.205c5.523,0,10-4.477,10-10s-4.477-10-10-10c-9.486,0-17.204-7.718-17.204-17.205v-33.59
			c0-9.487,7.718-17.205,17.205-17.205c9.486,0,17.204,7.718,17.204,17.205c0,2.627,1.021,5.011,2.678,6.795H384
			c-5.523,0-10,4.477-10,10s4.477,10,10,10h97.412C487.25,64,492,68.75,492,74.588v399.406c0,9.928-8.078,18.006-18.006,18.006
			c-9.929,0-18.006-8.078-18.006-18.006v-25.869c0-5.523-4.477-10-10-10H10c-5.523,0-10,4.477-10,10V474c0,20.953,17.047,38,38,38
			h435.994c0.189,0,0.356-0.005,0.509-0.013C495.225,511.712,512,494.78,512,473.994V74.588C512,57.722,498.278,44,481.412,44z
			 M38,492c-9.925,0-18-8.075-18-18v-15.875h415.988v15.869c0,6.511,1.648,12.643,4.545,18.006H38z"/>
	</g>
</g>
<g>
	<g>
		<path d="M468.31,129.93c-1.86-1.86-4.44-2.93-7.07-2.93s-5.21,1.07-7.07,2.93c-1.86,1.86-2.93,4.44-2.93,7.07s1.07,5.21,2.93,7.07
			s4.44,2.93,7.07,2.93s5.21-1.07,7.07-2.93s2.93-4.44,2.93-7.07S470.17,131.79,468.31,129.93z"/>
	</g>
</g>
<g>
	<g>
		<path d="M390.022,242.738c0.002-0.001,0.004-0.001,0.007-0.002l-39.495-55.999c-1.874-2.657-4.921-4.237-8.172-4.237h-137.01
			c-3.25,0-6.298,1.58-8.172,4.236l-39.495,56c-0.012,0.017-0.018,0.033-0.029,0.05c-1.131,1.62-1.799,3.587-1.799,5.713v144
			c0,5.523,4.477,10,10,10h216c5.523,0,10-4.477,10-10v-144C391.857,246.352,391.174,244.367,390.022,242.738z M337.179,202.5
			l25.388,36h-42.059l-5.234-36H337.179z M251.255,202.5h43.808l5.234,36h-53.215L251.255,202.5z M245.856,258.5h56v40.203
			L278.6,286.172c-1.481-0.798-3.112-1.197-4.744-1.197c-1.632,0-3.263,0.399-4.744,1.197l-23.256,12.531V258.5z M210.536,202.5
			h20.586l-4.173,36h-41.803L210.536,202.5z M371.856,382.5h-196v-124h50v56.95c0,3.52,1.851,6.781,4.874,8.586
			c3.021,1.805,6.77,1.888,9.87,0.217l33.256-17.919l33.256,17.919c1.483,0.799,3.114,1.197,4.743,1.197
			c1.776,0,3.551-0.473,5.127-1.414c3.022-1.805,4.874-5.066,4.874-8.586V258.5h50V382.5z"/>
	</g>
</g>
<g>
</g>
<g>
</g>
<g>
</g>
<g>
</g>
<g>
</g>
<g>
</g>
<g>
</g>
<g>
</g>
<g>
</g>
<g>
</g>
<g>
</g>
<g>
</g>
<g>
</g>
<g>
</g>
<g>
</g>
</svg>
