<?xml version="1.0" encoding="iso-8859-1"?>
<!-- Generator: Adobe Illustrator 19.0.0, SVG Export Plug-In . SVG Version: 6.00 Build 0)  -->
<svg version="1.1" id="Capa_1" xmlns="http://www.w3.org/2000/svg" xmlns:xlink="http://www.w3.org/1999/xlink" x="0px" y="0px"
	 viewBox="0 0 512 512" style="enable-background:new 0 0 512 512;" xml:space="preserve">
<g>
	<g>
		<path d="M37.069,308.96c-1.859-1.86-4.439-2.93-7.069-2.93s-5.21,1.07-7.07,2.93S20,313.4,20,316.03s1.069,5.21,2.93,7.07
			c1.86,1.86,4.44,2.93,7.07,2.93s5.21-1.07,7.069-2.93c1.86-1.86,2.931-4.44,2.931-7.07S38.93,310.82,37.069,308.96z"/>
	</g>
</g>
<g>
	<g>
		<path d="M268.283,238c-16.858,0-33.256,6-46.283,16.718C208.973,244,192.575,238,175.717,238
			c-40.645,0-73.712,33.801-73.712,75.349c0,23.726,19.496,55.141,57.946,93.375c27.643,27.486,54.831,48.346,55.976,49.221
			c1.792,1.371,3.933,2.056,6.073,2.056s4.281-0.685,6.073-2.056c1.145-0.875,28.333-21.735,55.976-49.221
			c38.45-38.233,57.946-69.649,57.946-93.375C341.995,271.801,308.928,238,268.283,238z M270.088,392.4
			c-19.163,19.071-38.55,35.186-48.089,42.857c-9.508-7.644-28.801-23.68-47.945-42.716c-33.564-33.375-52.049-61.499-52.049-79.192
			c0-30.52,24.095-55.349,53.712-55.349c14.859,0,28.687,6.117,38.934,17.224c1.893,2.052,4.558,3.219,7.35,3.219
			s5.457-1.167,7.35-3.219C239.597,264.117,253.424,258,268.283,258c29.617,0,53.712,24.83,53.712,55.349
			C321.995,331.016,303.561,359.09,270.088,392.4z"/>
	</g>
</g>
<g>
	<g>
		<path d="M482,86.257h-68h-34.084C377.946,38.36,338.372,0,290,0c-5.522,0-10,4.477-10,10s4.478,10,10,10
			c37.342,0,67.946,29.393,69.897,66.257h-47.981C309.946,38.36,270.372,0,222,0s-87.946,38.36-89.916,86.257H30
			c-5.522,0-10,4.477-10,10V271c0,5.523,4.478,10,10,10s10-4.477,10-10V106.257h92v37.345c-16.116,4.402-28,19.163-28,36.655
			c0,20.953,17.047,38,38,38s38-17.047,38-38c0-17.492-11.884-32.253-28-36.655v-37.345h140v37.345
			c-16.116,4.402-28,19.163-28,36.655c0,20.953,17.047,38,38,38s38-17.047,38-38c0-17.492-11.884-32.253-28-36.655v-37.345h92
			V256.76v195.178h-46c-5.522,0-10,4.477-10,10s4.478,10,10,10h46.186c0.655,7.355,3.127,14.191,6.965,20.063H64
			c-13.233,0-24-10.767-24-24V358.5c0-5.523-4.478-10-10-10s-10,4.477-10,10V468c0,24.262,19.738,44,44,44h384
			c24.262,0,44-19.738,44-44V96.257C492,90.734,487.522,86.257,482,86.257z M160,180.257c0,9.925-8.075,18-18,18s-18-8.075-18-18
			c0-6.227,3.18-11.723,8-14.956v7.956c0,5.523,4.478,10,10,10c5.522,0,10-4.477,10-10v-7.956
			C156.82,168.534,160,174.03,160,180.257z M152.103,86.257C154.054,49.393,184.658,20,222,20c37.342,0,67.946,29.393,69.897,66.257
			H152.103z M320,180.257c0,9.925-8.075,18-18,18s-18-8.075-18-18c0-6.227,3.18-11.723,8-14.956v7.956c0,5.523,4.478,10,10,10
			c5.522,0,10-4.477,10-10v-7.956C316.82,168.534,320,174.03,320,180.257z M472,468c0,13.234-10.767,24-24,24
			c-13.233,0-24-10.766-24-24V256.76V106.257h48V468z"/>
	</g>
</g>
<g>
	<g>
		<path d="M329.399,454.87c-1.859-1.86-4.43-2.93-7.069-2.93c-2.63,0-5.21,1.07-7.07,2.93s-2.93,4.44-2.93,7.07
			s1.069,5.21,2.93,7.07c1.87,1.86,4.44,2.93,7.07,2.93s5.21-1.07,7.069-2.93c1.87-1.86,2.931-4.44,2.931-7.07
			C332.33,459.3,331.269,456.73,329.399,454.87z"/>
	</g>
</g>
<g>
</g>
<g>
</g>
<g>
</g>
<g>
</g>
<g>
</g>
<g>
</g>
<g>
</g>
<g>
</g>
<g>
</g>
<g>
</g>
<g>
</g>
<g>
</g>
<g>
</g>
<g>
</g>
<g>
</g>
</svg>
