<?xml version="1.0" encoding="iso-8859-1"?>
<!-- Generator: Adobe Illustrator 19.0.0, SVG Export Plug-In . SVG Version: 6.00 Build 0)  -->
<svg version="1.1" id="Capa_1" xmlns="http://www.w3.org/2000/svg" xmlns:xlink="http://www.w3.org/1999/xlink" x="0px" y="0px"
	 viewBox="0 0 512 512" style="enable-background:new 0 0 512 512;" xml:space="preserve">
<g>
	<g>
		<path d="M502,0.021H10c-5.523,0-10,4.477-10,10v46.958c0,19.449,10.947,36.385,27,44.984v276.262
			c0,15.304,12.473,27.754,27.805,27.754h152.174v45.938h-15.078c-15.332,0-27.805,12.473-27.805,27.805v22.257
			c0,5.523,4.477,10,10,10h163.805c5.523,0,10-4.477,10-10v-22.257c0-15.332-12.473-27.805-27.805-27.805h-15.075v-45.938h152.174
			c15.332,0,27.805-12.45,27.805-27.754V101.963c16.053-8.599,27-25.535,27-44.984V10.021C512,4.498,507.523,0.021,502,0.021z
			 M348,20.021h62v36.958c0,17.093-13.907,31-31,31c-17.093,0-31-13.907-31-31V20.021z M266,20.021h62v36.958
			c0,17.093-13.907,31-31,31c-17.093,0-31-13.907-31-31V20.021z M184,20.021h62v36.958c0,17.093-13.907,31-31,31s-31-13.907-31-31
			V20.021z M102,20.021h62v36.958c0,17.093-13.907,31-31,31s-31-13.907-31-31V20.021z M20,56.979V20.021h62v36.958
			c0,17.093-13.907,31-31,31S20,74.072,20,56.979z M320.096,471.917c4.304,0,7.805,3.501,7.805,7.805v12.257H184.096v-12.257
			c0-4.304,3.501-7.805,7.805-7.805h25.078h78.042H320.096z M226.979,451.916V406.93h58.042v44.986H226.979z M465,378.225
			c0,4.275-3.501,7.754-7.805,7.754H54.805c-4.304,0-7.805-3.479-7.805-7.754v-36.246h418V378.225z M465,321.979H47V107.807
			c1.321,0.103,2.653,0.172,4,0.172c16.787,0,31.701-8.156,41-20.709c9.299,12.554,24.213,20.709,41,20.709s31.701-8.156,41-20.709
			c9.299,12.554,24.213,20.709,41,20.709s31.701-8.156,41-20.709c9.299,12.554,24.213,20.709,41,20.709s31.701-8.156,41-20.709
			c9.299,12.554,24.213,20.709,41,20.709s31.701-8.156,41-20.709c9.299,12.554,24.213,20.709,41,20.709c1.347,0,2.679-0.069,4-0.172
			V321.979z M492,56.979c0,17.093-13.907,31-31,31c-17.093,0-31-13.907-31-31V20.021h62V56.979z"/>
	</g>
</g>
<g>
	<g>
		<path d="M263.07,356.9c-1.86-1.87-4.44-2.93-7.07-2.93s-5.21,1.06-7.07,2.93c-1.86,1.86-2.93,4.43-2.93,7.07
			c0,2.63,1.07,5.21,2.93,7.07s4.44,2.93,7.07,2.93s5.21-1.07,7.07-2.93c1.86-1.87,2.93-4.44,2.93-7.07S264.93,358.76,263.07,356.9z
			"/>
	</g>
</g>
<g>
	<g>
		<path d="M321.184,178.736c-4.423-5.484-11.001-8.63-18.048-8.63H216c-5.523,0-10,4.477-10,10c0,5.523,4.477,10,10,10h87.136
			c1.326,0,2.123,0.743,2.48,1.186c0.357,0.443,0.915,1.38,0.634,2.675l-10.755,49.627c-0.315,1.455-1.625,2.511-3.114,2.511
			h-78.019c-1.491,0-2.801-1.058-3.115-2.515l-19.971-92.717c-0.992-4.606-5.064-7.895-9.776-7.895h-24c-5.523,0-10,4.477-10,10
			c0,5.523,4.477,10,10,10h15.925l18.27,84.823c2.285,10.606,11.817,18.304,22.667,18.304h78.019
			c10.835,0,20.366-7.686,22.66-18.275l10.755-49.627C327.289,191.316,325.608,184.221,321.184,178.736z"/>
	</g>
</g>
<g>
	<g>
		<path d="M218.57,275.41c-1.86-1.86-4.44-2.93-7.07-2.93s-5.21,1.07-7.07,2.93s-2.93,4.44-2.93,7.07s1.07,5.21,2.93,7.07
			s4.44,2.93,7.07,2.93s5.21-1.07,7.07-2.93s2.93-4.44,2.93-7.07S220.43,277.27,218.57,275.41z"/>
	</g>
</g>
<g>
	<g>
		<path d="M300.31,275.41c-1.86-1.86-4.44-2.93-7.07-2.93c-2.64,0-5.21,1.07-7.08,2.93c-1.86,1.86-2.93,4.44-2.93,7.07
			s1.07,5.21,2.93,7.07c1.87,1.86,4.44,2.93,7.08,2.93c2.63,0,5.2-1.07,7.07-2.93c1.86-1.86,2.92-4.44,2.92-7.07
			C303.23,279.84,302.17,277.27,300.31,275.41z"/>
	</g>
</g>
<g>
	<g>
		<path d="M127.778,195.979H96.373c-5.523,0-10,4.477-10,10s4.477,10,10,10h31.405c5.523,0,10-4.477,10-10
			S133.301,195.979,127.778,195.979z"/>
	</g>
</g>
<g>
	<g>
		<path d="M161.592,235.979h-49.516c-5.523,0-10,4.477-10,10s4.477,10,10,10h49.516c5.523,0,10-4.477,10-10
			S167.115,235.979,161.592,235.979z"/>
	</g>
</g>
<g>
	<g>
		<path d="M85.3,238.91c-1.86-1.86-4.43-2.93-7.07-2.93c-2.63,0-5.21,1.07-7.07,2.93c-1.86,1.86-2.93,4.44-2.93,7.07
			s1.07,5.21,2.93,7.07c1.86,1.86,4.44,2.93,7.07,2.93c2.64,0,5.21-1.07,7.07-2.93c1.87-1.86,2.93-4.44,2.93-7.07
			S87.17,240.77,85.3,238.91z"/>
	</g>
</g>
<g>
</g>
<g>
</g>
<g>
</g>
<g>
</g>
<g>
</g>
<g>
</g>
<g>
</g>
<g>
</g>
<g>
</g>
<g>
</g>
<g>
</g>
<g>
</g>
<g>
</g>
<g>
</g>
<g>
</g>
</svg>
