<?xml version="1.0" encoding="utf-8"?>
<!-- Generator: Adobe Illustrator 21.0.2, SVG Export Plug-In . SVG Version: 6.00 Build 0)  -->
<svg version="1.1" id="Layer_1" xmlns="http://www.w3.org/2000/svg" xmlns:xlink="http://www.w3.org/1999/xlink" x="0px" y="0px"
	 width="2272px" height="1872px" viewBox="0 0 2272 1872" enable-background="new 0 0 2272 1872" xml:space="preserve">
<g>
	<g>
		<g>
			<g>
				<rect x="1037.2" y="468" fill="#254460" width="10.9" height="122.6"/>
				<rect x="1053.5" y="468" fill="#254460" width="10.9" height="122.6"/>
				<rect x="1069.8" y="468" fill="#254460" width="10.9" height="122.6"/>
				<rect x="1032" y="458.6" fill="#254460" width="53.9" height="5.9"/>
				<rect x="1023.7" y="448.7" fill="#254460" width="70.5" height="5.9"/>
				
					<rect x="1032" y="594.5" transform="matrix(-1 -1.224647e-16 1.224647e-16 -1 2117.8479 1194.9503)" fill="#254460" width="53.9" height="5.9"/>
				
					<rect x="1023.7" y="604.5" transform="matrix(-1 -1.224647e-16 1.224647e-16 -1 2117.8479 1214.8899)" fill="#254460" width="70.5" height="5.9"/>
			</g>
			<g>
				<rect x="1119.3" y="468" fill="#254460" width="10.9" height="122.6"/>
				<rect x="1135.6" y="468" fill="#254460" width="10.9" height="122.6"/>
				<rect x="1151.9" y="468" fill="#254460" width="10.9" height="122.6"/>
				<rect x="1114" y="458.6" fill="#254460" width="53.9" height="5.9"/>
				<rect x="1105.7" y="448.7" fill="#254460" width="70.5" height="5.9"/>
				
					<rect x="1114" y="594.5" transform="matrix(-1 -1.224647e-16 1.224647e-16 -1 2281.9956 1194.9503)" fill="#254460" width="53.9" height="5.9"/>
				
					<rect x="1105.7" y="604.5" transform="matrix(-1 -1.224647e-16 1.224647e-16 -1 2281.9956 1214.8899)" fill="#254460" width="70.5" height="5.9"/>
			</g>
			<g>
				<rect x="1201.4" y="468" fill="#254460" width="10.9" height="122.6"/>
				<rect x="1217.6" y="468" fill="#254460" width="10.9" height="122.6"/>
				<rect x="1233.9" y="468" fill="#254460" width="10.9" height="122.6"/>
				<rect x="1196.1" y="458.6" fill="#254460" width="53.9" height="5.9"/>
				<rect x="1187.8" y="448.7" fill="#254460" width="70.5" height="5.9"/>
				
					<rect x="1196.1" y="594.5" transform="matrix(-1 -1.224647e-16 1.224647e-16 -1 2446.1436 1194.9503)" fill="#254460" width="53.9" height="5.9"/>
				
					<rect x="1187.8" y="604.5" transform="matrix(-1 -1.224647e-16 1.224647e-16 -1 2446.1436 1214.8899)" fill="#254460" width="70.5" height="5.9"/>
			</g>
			<path fill="#254460" d="M1141,385.8l-136.3,56.3h266.6L1141,385.8z M1141,430.6c-7.5,0-13.6-6.1-13.6-13.6
				c0-7.5,6.1-13.6,13.6-13.6c7.5,0,13.6,6.1,13.6,13.6C1154.6,424.5,1148.5,430.6,1141,430.6z"/>
		</g>
		<rect x="1017.2" y="615.1" fill="#254460" width="247.6" height="8.1"/>
		<rect x="1010.8" y="628" fill="#254460" width="260.5" height="8.1"/>
	</g>
	<g>
		<g>
			<g>
				<path fill="#A38D54" d="M976.5,311.3c-4.8,11-1.9,19.6,5.1,23.9c10.6-6.3,20.3-15.3,26.1-25.5c5.7-10.2,5.5-19.3-1-24.6
					C993.2,290.1,981.3,300.3,976.5,311.3z"/>
				<path fill="#A38D54" d="M1030.4,296.4c-13.6,6.2-22.3,16.4-24.4,25.6c9.4,2,21.5,0,33.8-5.6c12.3-5.6,22.5-13.7,27.8-22.3
					C1058.4,289.9,1043.9,290.2,1030.4,296.4z"/>
				<path fill="#A38D54" d="M1006.8,351.9c-10.4,0.2-18.3-4.1-21.1-11.7c8.2-8.8,20.7-14.5,31.9-14c11.2,0.5,17.9,6.6,19.3,14.5
					C1028,347.3,1017.3,351.7,1006.8,351.9z"/>
				<path fill="#A38D54" d="M938.9,344.6c-2.4,11.5,2.2,19.4,9.7,22.4c8.9-7.8,16.4-18.2,19.7-29c3.2-10.8,1.1-19.6-6.1-23.7
					C950.4,321.4,941.2,333.2,938.9,344.6z"/>
				<path fill="#A38D54" d="M976.1,379.1c-9.9,1.9-18.3-0.9-22.6-7.9c6.1-9.9,16.9-17.5,27.6-18.8c10.7-1.4,18.3,3.5,21.4,10.9
					C995.4,371.2,986.1,377.2,976.1,379.1z"/>
				<path fill="#A38D54" d="M909.1,383.3c-0.1,11.6,5.8,18.5,13.7,20.1c7.2-9.1,12.4-20.5,13.4-31.5c1-11-2.8-19.2-10.6-22
					C915.8,358.7,909.2,371.8,909.1,383.3z"/>
				<path fill="#A38D54" d="M951.9,410.6c-9.3,3.5-18,2.2-23.5-3.9c4.1-10.6,13.1-19.9,23.1-22.9c10.1-3.1,18.3,0.4,22.7,7.1
					C969,399.7,961.2,407.1,951.9,410.6z"/>
				<path fill="#A38D54" d="M887.3,426.1c2,11.3,9,17.1,17,17.4c5.4-10.2,8.5-22.1,7.4-33.1c-1.1-10.9-6.3-18.3-14.5-19.7
					C889.4,401,885.3,414.8,887.3,426.1z"/>
				<path fill="#A38D54" d="M934.1,445.5c-8.4,5-17.3,5.2-23.7,0.2c2.1-11.1,9.2-21.6,18.4-26.3c9.2-4.7,17.9-2.7,23.5,3.1
					C948.9,431.9,942.6,440.5,934.1,445.5z"/>
				<path fill="#A38D54" d="M873.4,471.7c3.9,10.8,11.7,15.2,19.7,14.1c3.6-10.9,4.5-23.2,1.6-33.7c-3-10.5-9.5-16.8-17.7-16.8
					C871.1,446.7,869.5,461,873.4,471.7z"/>
				<path fill="#A38D54" d="M922.8,482.7c-7.4,6.4-16.1,8.1-23.3,4.3c0.2-11.3,5.3-22.8,13.6-29c8.2-6.2,17.1-5.7,23.6-1
					C935,466.9,930.2,476.3,922.8,482.7z"/>
				<path fill="#A38D54" d="M867.4,518.9c5.6,9.9,14.1,12.9,21.8,10.5c1.7-11.4,0.6-23.6-4.1-33.4c-4.7-9.8-12.2-14.9-20.2-13.4
					C861,494.8,861.8,509.1,867.4,518.9z"/>
				<path fill="#A38D54" d="M917.9,521.2c-6.3,7.5-14.5,10.7-22.2,8.3c-1.7-11.1,1.5-23.3,8.5-30.8c7.1-7.5,15.9-8.6,23-5.1
					C927.3,503.5,924.2,513.6,917.9,521.2z"/>
				<path fill="#A38D54" d="M869.4,566.5c7.2,8.8,16.1,10.3,23.2,6.5c-0.2-11.5-3.3-23.3-9.6-32.2c-6.3-8.8-14.5-12.5-22.2-9.7
					C859,543.8,862.2,557.7,869.4,566.5z"/>
				<path fill="#A38D54" d="M919.5,559.9c-4.9,8.5-12.5,13.1-20.5,12c-3.5-10.7-2.4-23.3,3.3-31.9c5.7-8.6,14.2-11.2,21.8-9
					C925.8,540.9,924.4,551.4,919.5,559.9z"/>
				<path fill="#A38D54" d="M879.2,613.1c8.6,7.5,17.6,7.4,24,2.4c-2.1-11.4-7.2-22.5-14.9-30.2c-7.6-7.6-16.3-9.8-23.5-5.7
					C865.2,592.4,870.7,605.7,879.2,613.1z"/>
				<path fill="#A38D54" d="M927.5,597.9c-3.4,9.3-10.1,15.1-18.2,15.4c-5.3-10-6.3-22.6-2.1-32c4.2-9.5,12.1-13.5,20-12.7
					C930.5,578,930.9,588.6,927.5,597.9z"/>
				<path fill="#A38D54" d="M897,657.5c9.8,5.9,18.7,4.3,24.1-1.7c-4.1-10.9-11.1-21-20-27.3c-8.8-6.2-17.8-6.9-24.1-1.6
					C879.5,639.5,887.2,651.6,897,657.5z"/>
				<path fill="#A38D54" d="M942,634.1c-1.7,9.8-7.3,16.8-15.2,18.4c-7-9-10.2-21.3-7.7-31.4c2.5-10.2,9.7-15.5,17.6-16
					C941.4,613.9,943.7,624.3,942,634.1z"/>
				<path fill="#A38D54" d="M922.7,698.4c10.8,4.2,19.4,1.1,23.6-5.9c-6.2-10.1-15-19-24.9-23.6c-9.9-4.6-18.8-3.8-24.2,2.6
					C902,683.6,911.9,694.3,922.7,698.4z"/>
				<path fill="#A38D54" d="M962.9,667.5c0.1,10-4,17.9-11.6,20.9c-8.7-7.7-14.2-19.3-13.5-29.8c0.6-10.5,6.8-17,14.5-18.9
					C958.6,647.5,962.8,657.4,962.9,667.5z"/>
				<path fill="#A38D54" d="M956.3,734.7c11.7,2.3,19.7-2.3,22.5-9.9c-8.3-9-18.8-16.3-29.6-19.2c-10.7-2.9-19.5-0.5-23.5,6.7
					C932.6,723.5,944.6,732.4,956.3,734.7z"/>
				<path fill="#A38D54" d="M990.3,697c2.2,9.9-0.4,18.5-7.4,22.8c-10.3-6.1-18.1-16.8-19.5-27.3c-1.4-10.5,3.5-18,10.8-21.3
					C982,677.9,988.1,687.1,990.3,697z"/>
				<path fill="#A38D54" d="M997.8,765c12.4,0.3,19.6-5.6,20.7-13.6c-10.5-7.5-22.7-13-34.2-14c-11.4-1.1-19.7,2.8-22.3,10.7
					C971.4,757.9,985.5,764.7,997.8,765z"/>
				<path fill="#A38D54" d="M1024.2,721.7c4.4,9.5,3.7,18.4-2.5,23.9c-11.9-4.4-22.1-13.6-25.7-23.8c-3.6-10.2-0.3-18.5,6.4-23
					C1011.6,704.1,1019.7,712.2,1024.2,721.7z"/>
				<path fill="#A38D54" d="M1047.2,788c12.9-1.8,19-8.9,18.3-17.1c-12.7-5.7-26.5-9-38.6-8.2c-11.9,0.9-19.5,6.2-20.4,14.4
					C1018.4,785.4,1034.4,789.9,1047.2,788z"/>
				<path fill="#A38D54" d="M1064.5,740.5c6.8,8.7,8.2,17.7,3,24.2c-13.4-2.3-26-9.8-32-19.3c-6-9.5-4.4-18.4,1.4-23.9
					C1047.4,725.2,1057.7,731.8,1064.5,740.5z"/>
			</g>
			<path fill="#A38D54" d="M1065.6,770.9c0,0,136.1,17.4,170.3,77.3L1219,856c0,0-24.8-60.7-163.5-81.9L1065.6,770.9z"/>
		</g>
		<g>
			<g>
				<path fill="#A38D54" d="M1295.5,311.3c4.8,11,1.9,19.6-5.1,23.9c-10.6-6.3-20.3-15.3-26.1-25.5c-5.7-10.2-5.5-19.3,1-24.6
					C1278.8,290.1,1290.7,300.3,1295.5,311.3z"/>
				<path fill="#A38D54" d="M1241.6,296.4c13.6,6.2,22.3,16.4,24.4,25.6c-9.4,2-21.5,0-33.8-5.6c-12.3-5.6-22.5-13.7-27.8-22.3
					C1213.6,289.9,1228.1,290.2,1241.6,296.4z"/>
				<path fill="#A38D54" d="M1265.2,351.9c10.4,0.2,18.3-4.1,21.1-11.7c-8.2-8.8-20.7-14.5-31.9-14c-11.2,0.5-17.9,6.6-19.3,14.5
					C1244,347.3,1254.7,351.7,1265.2,351.9z"/>
				<path fill="#A38D54" d="M1333.1,344.6c2.4,11.5-2.2,19.4-9.7,22.4c-8.9-7.8-16.4-18.2-19.7-29c-3.2-10.8-1.1-19.6,6.1-23.7
					C1321.6,321.4,1330.8,333.2,1333.1,344.6z"/>
				<path fill="#A38D54" d="M1295.9,379.1c9.9,1.9,18.3-0.9,22.6-7.9c-6.1-9.9-16.9-17.5-27.6-18.8c-10.7-1.4-18.3,3.5-21.4,10.9
					C1276.6,371.2,1285.9,377.2,1295.9,379.1z"/>
				<path fill="#A38D54" d="M1362.9,383.3c0.1,11.6-5.8,18.5-13.7,20.1c-7.2-9.1-12.4-20.5-13.4-31.5c-1-11,2.8-19.2,10.6-22
					C1356.2,358.7,1362.8,371.8,1362.9,383.3z"/>
				<path fill="#A38D54" d="M1320.1,410.6c9.3,3.5,18,2.2,23.5-3.9c-4.1-10.6-13.1-19.9-23.1-22.9c-10.1-3.1-18.3,0.4-22.7,7.1
					C1303,399.7,1310.8,407.1,1320.1,410.6z"/>
				<path fill="#A38D54" d="M1384.7,426.1c-2,11.3-9,17.1-17,17.4c-5.4-10.2-8.5-22.1-7.4-33.1c1.1-10.9,6.3-18.3,14.5-19.7
					C1382.6,401,1386.7,414.8,1384.7,426.1z"/>
				<path fill="#A38D54" d="M1337.9,445.5c8.4,5,17.3,5.2,23.7,0.2c-2.1-11.1-9.2-21.6-18.4-26.3c-9.2-4.7-17.9-2.7-23.5,3.1
					C1323.1,431.9,1329.4,440.5,1337.9,445.5z"/>
				<path fill="#A38D54" d="M1398.6,471.7c-3.9,10.8-11.7,15.2-19.7,14.1c-3.6-10.9-4.5-23.2-1.6-33.7c3-10.5,9.5-16.8,17.7-16.8
					C1400.9,446.7,1402.5,461,1398.6,471.7z"/>
				<path fill="#A38D54" d="M1349.2,482.7c7.4,6.4,16.1,8.1,23.3,4.3c-0.2-11.3-5.3-22.8-13.6-29c-8.2-6.2-17.1-5.7-23.6-1
					C1337,466.9,1341.8,476.3,1349.2,482.7z"/>
				<path fill="#A38D54" d="M1404.6,518.9c-5.6,9.9-14.1,12.9-21.8,10.5c-1.7-11.4-0.6-23.6,4.1-33.4c4.7-9.8,12.2-14.9,20.2-13.4
					C1411,494.8,1410.2,509.1,1404.6,518.9z"/>
				<path fill="#A38D54" d="M1354.1,521.2c6.3,7.5,14.5,10.7,22.2,8.3c1.7-11.1-1.5-23.3-8.5-30.8c-7.1-7.5-15.9-8.6-23-5.1
					C1344.7,503.5,1347.8,513.6,1354.1,521.2z"/>
				<path fill="#A38D54" d="M1402.6,566.5c-7.2,8.8-16.1,10.3-23.2,6.5c0.2-11.5,3.3-23.3,9.6-32.2c6.3-8.8,14.5-12.5,22.2-9.7
					C1413,543.8,1409.8,557.7,1402.6,566.5z"/>
				<path fill="#A38D54" d="M1352.5,559.9c4.9,8.5,12.5,13.1,20.5,12c3.5-10.7,2.4-23.3-3.3-31.9c-5.7-8.6-14.2-11.2-21.8-9
					C1346.2,540.9,1347.6,551.4,1352.5,559.9z"/>
				<path fill="#A38D54" d="M1392.8,613.1c-8.6,7.5-17.6,7.4-24,2.4c2.1-11.4,7.2-22.5,14.9-30.2c7.6-7.6,16.3-9.8,23.5-5.7
					C1406.8,592.4,1401.3,605.7,1392.8,613.1z"/>
				<path fill="#A38D54" d="M1344.5,597.9c3.4,9.3,10.1,15.1,18.2,15.4c5.3-10,6.3-22.6,2.1-32c-4.2-9.5-12.1-13.5-20-12.7
					C1341.5,578,1341.1,588.6,1344.5,597.9z"/>
				<path fill="#A38D54" d="M1375,657.5c-9.8,5.9-18.7,4.3-24.1-1.7c4.1-10.9,11.1-21,20-27.3c8.8-6.2,17.8-6.9,24.1-1.6
					C1392.5,639.5,1384.8,651.6,1375,657.5z"/>
				<path fill="#A38D54" d="M1330,634.1c1.7,9.8,7.3,16.8,15.2,18.4c7-9,10.2-21.3,7.7-31.4c-2.5-10.2-9.7-15.5-17.6-16
					C1330.6,613.9,1328.3,624.3,1330,634.1z"/>
				<path fill="#A38D54" d="M1349.3,698.4c-10.8,4.2-19.4,1.1-23.6-5.9c6.2-10.1,15-19,24.9-23.6c9.9-4.6,18.8-3.8,24.2,2.6
					C1370,683.6,1360.1,694.3,1349.3,698.4z"/>
				<path fill="#A38D54" d="M1309.1,667.5c-0.1,10,4,17.9,11.6,20.9c8.7-7.7,14.2-19.3,13.5-29.8c-0.6-10.5-6.8-17-14.5-18.9
					C1313.4,647.5,1309.2,657.4,1309.1,667.5z"/>
				<path fill="#A38D54" d="M1315.7,734.7c-11.7,2.3-19.7-2.3-22.5-9.9c8.3-9,18.8-16.3,29.6-19.2c10.7-2.9,19.5-0.5,23.5,6.7
					C1339.4,723.5,1327.4,732.4,1315.7,734.7z"/>
				<path fill="#A38D54" d="M1281.7,697c-2.2,9.9,0.4,18.5,7.4,22.8c10.3-6.1,18.1-16.8,19.5-27.3c1.4-10.5-3.5-18-10.8-21.3
					C1290,677.9,1283.9,687.1,1281.7,697z"/>
				<path fill="#A38D54" d="M1274.2,765c-12.4,0.3-19.6-5.6-20.7-13.6c10.5-7.5,22.7-13,34.2-14c11.4-1.1,19.7,2.8,22.3,10.7
					C1300.6,757.9,1286.5,764.7,1274.2,765z"/>
				<path fill="#A38D54" d="M1247.8,721.7c-4.4,9.5-3.7,18.4,2.5,23.9c11.9-4.4,22.1-13.6,25.7-23.8c3.6-10.2,0.3-18.5-6.4-23
					C1260.4,704.1,1252.3,712.2,1247.8,721.7z"/>
				<path fill="#A38D54" d="M1224.8,788c-12.9-1.8-19-8.9-18.3-17.1c12.7-5.7,26.5-9,38.6-8.2c11.9,0.9,19.5,6.2,20.4,14.4
					C1253.6,785.4,1237.6,789.9,1224.8,788z"/>
				<path fill="#A38D54" d="M1207.5,740.5c-6.8,8.7-8.2,17.7-3,24.2c13.4-2.3,26-9.8,32-19.3c6-9.5,4.4-18.4-1.4-23.9
					C1224.6,725.2,1214.3,731.8,1207.5,740.5z"/>
			</g>
			<path fill="#A38D54" d="M1206.4,770.9c0,0-136.1,17.4-170.3,77.3l16.8,7.8c0,0,24.8-60.7,163.5-81.9L1206.4,770.9z"/>
		</g>
	</g>
</g>
<g>
	<rect x="411.7" y="445.7" fill="#254460" width="8.7" height="223.4"/>
	<circle fill="#254460" cx="416.1" cy="444.4" r="7.4"/>
	<ellipse fill="#254460" cx="416.1" cy="669.7" rx="36.6" ry="5.3"/>
	<polygon fill="#254460" points="416.1,454.2 308.9,442.3 523.3,442.3 	"/>
	<circle fill="#254460" cx="522.3" cy="442.3" r="7.2"/>
	<circle fill="#254460" cx="308.9" cy="442.3" r="7.2"/>
	<path fill="#254460" d="M272.2,546.9c6,8.2,20.2,14,36.7,14c16.5,0,30.6-5.8,36.7-14H272.2z"/>
	<polygon fill="#254460" points="342.4,548 308.9,447 275.3,548 272.5,547.1 308.9,437.5 345.2,547.1 	"/>
	<path fill="#254460" d="M486.6,546.9c6,8.2,20.2,14,36.7,14s30.6-5.8,36.7-14H486.6z"/>
	<polygon fill="#254460" points="556.8,548 523.3,447 489.8,548 486.9,547.1 523.3,437.5 559.7,547.1 	"/>
	<polygon fill="#254460" points="416.1,439.8 408.8,432.5 416.1,404.8 423.3,432.5 	"/>
	<g>
		<g>
			<g>
				<path fill="#A38D54" d="M255.7,311.3c-4.8,11-1.9,19.6,5.1,23.9c10.6-6.3,20.3-15.3,26.1-25.5c5.7-10.2,5.5-19.3-1-24.6
					C272.4,290.1,260.5,300.3,255.7,311.3z"/>
				<path fill="#A38D54" d="M309.6,296.4c-13.6,6.2-22.3,16.4-24.4,25.6c9.4,2,21.5,0,33.8-5.6c12.3-5.6,22.5-13.7,27.8-22.3
					C337.6,289.9,323.1,290.2,309.6,296.4z"/>
				<path fill="#A38D54" d="M286,351.9c-10.4,0.2-18.3-4.1-21.1-11.7c8.2-8.8,20.7-14.5,31.9-14c11.2,0.5,17.9,6.6,19.3,14.5
					C307.2,347.3,296.5,351.7,286,351.9z"/>
				<path fill="#A38D54" d="M218.1,344.6c-2.4,11.5,2.2,19.4,9.7,22.4c8.9-7.8,16.4-18.2,19.7-29c3.2-10.8,1.1-19.6-6.1-23.7
					C229.6,321.4,220.4,333.2,218.1,344.6z"/>
				<path fill="#A38D54" d="M255.4,379.1c-9.9,1.9-18.3-0.9-22.6-7.9c6.1-9.9,16.9-17.5,27.6-18.8c10.7-1.4,18.3,3.5,21.4,10.9
					C274.6,371.2,265.3,377.2,255.4,379.1z"/>
				<path fill="#A38D54" d="M188.3,383.3c-0.1,11.6,5.8,18.5,13.7,20.1c7.2-9.1,12.4-20.5,13.4-31.5c1-11-2.8-19.2-10.6-22
					C195,358.7,188.4,371.8,188.3,383.3z"/>
				<path fill="#A38D54" d="M231.1,410.6c-9.3,3.5-18,2.2-23.5-3.9c4.1-10.6,13.1-19.9,23.1-22.9c10.1-3.1,18.3,0.4,22.7,7.1
					C248.2,399.7,240.4,407.1,231.1,410.6z"/>
				<path fill="#A38D54" d="M166.5,426.1c2,11.3,9,17.1,17,17.4c5.4-10.2,8.5-22.1,7.4-33.1c-1.1-10.9-6.3-18.3-14.5-19.7
					C168.6,401,164.5,414.8,166.5,426.1z"/>
				<path fill="#A38D54" d="M213.3,445.5c-8.4,5-17.3,5.2-23.7,0.2c2.1-11.1,9.2-21.6,18.4-26.3c9.2-4.7,17.9-2.7,23.5,3.1
					C228.1,431.9,221.8,440.5,213.3,445.5z"/>
				<path fill="#A38D54" d="M152.6,471.7c3.9,10.8,11.7,15.2,19.7,14.1c3.6-10.9,4.5-23.2,1.6-33.7c-3-10.5-9.5-16.8-17.7-16.8
					C150.3,446.7,148.7,461,152.6,471.7z"/>
				<path fill="#A38D54" d="M202,482.7c-7.4,6.4-16.1,8.1-23.3,4.3c0.2-11.3,5.3-22.8,13.6-29c8.2-6.2,17.1-5.7,23.6-1
					C214.2,466.9,209.4,476.3,202,482.7z"/>
				<path fill="#A38D54" d="M146.6,518.9c5.6,9.9,14.1,12.9,21.8,10.5c1.7-11.4,0.6-23.6-4.1-33.4c-4.7-9.8-12.2-14.9-20.2-13.4
					C140.2,494.8,141,509.1,146.6,518.9z"/>
				<path fill="#A38D54" d="M197.1,521.2c-6.3,7.5-14.5,10.7-22.2,8.3c-1.7-11.1,1.5-23.3,8.5-30.8c7.1-7.5,15.9-8.6,23-5.1
					C206.5,503.5,203.4,513.6,197.1,521.2z"/>
				<path fill="#A38D54" d="M148.6,566.5c7.2,8.8,16.1,10.3,23.2,6.5c-0.2-11.5-3.3-23.3-9.6-32.2c-6.3-8.8-14.5-12.5-22.2-9.7
					C138.2,543.8,141.4,557.7,148.6,566.5z"/>
				<path fill="#A38D54" d="M198.7,559.9c-4.9,8.5-12.5,13.1-20.5,12c-3.5-10.7-2.4-23.3,3.3-31.9c5.7-8.6,14.2-11.2,21.8-9
					C205,540.9,203.6,551.4,198.7,559.9z"/>
				<path fill="#A38D54" d="M158.4,613.1c8.6,7.5,17.6,7.4,24,2.4c-2.1-11.4-7.2-22.5-14.9-30.2c-7.6-7.6-16.3-9.8-23.5-5.7
					C144.4,592.4,149.9,605.7,158.4,613.1z"/>
				<path fill="#A38D54" d="M206.7,597.9c-3.4,9.3-10.1,15.1-18.2,15.4c-5.3-10-6.3-22.6-2.1-32c4.2-9.5,12.1-13.5,20-12.7
					C209.7,578,210.1,588.6,206.7,597.9z"/>
				<path fill="#A38D54" d="M176.2,657.5c9.8,5.9,18.7,4.3,24.1-1.7c-4.1-10.9-11.1-21-20-27.3c-8.8-6.2-17.8-6.9-24.1-1.6
					C158.7,639.5,166.4,651.6,176.2,657.5z"/>
				<path fill="#A38D54" d="M221.2,634.1c-1.7,9.8-7.3,16.8-15.2,18.4c-7-9-10.2-21.3-7.7-31.4c2.5-10.2,9.7-15.5,17.6-16
					C220.7,613.9,222.9,624.3,221.2,634.1z"/>
				<path fill="#A38D54" d="M201.9,698.4c10.8,4.2,19.4,1.1,23.6-5.9c-6.2-10.1-15-19-24.9-23.6c-9.9-4.6-18.8-3.8-24.2,2.6
					C181.2,683.6,191.1,694.3,201.9,698.4z"/>
				<path fill="#A38D54" d="M242.1,667.5c0.1,10-4,17.9-11.6,20.9c-8.7-7.7-14.2-19.3-13.5-29.8c0.6-10.5,6.8-17,14.5-18.9
					C237.8,647.5,242,657.4,242.1,667.5z"/>
				<path fill="#A38D54" d="M235.5,734.7c11.7,2.3,19.7-2.3,22.5-9.9c-8.3-9-18.8-16.3-29.6-19.2c-10.7-2.9-19.5-0.5-23.5,6.7
					C211.9,723.5,223.8,732.4,235.5,734.7z"/>
				<path fill="#A38D54" d="M269.5,697c2.2,9.9-0.4,18.5-7.4,22.8c-10.3-6.1-18.1-16.8-19.5-27.3c-1.4-10.5,3.5-18,10.8-21.3
					C261.2,677.9,267.3,687.1,269.5,697z"/>
				<path fill="#A38D54" d="M277,765c12.4,0.3,19.6-5.6,20.7-13.6c-10.5-7.5-22.7-13-34.2-14c-11.4-1.1-19.7,2.8-22.3,10.7
					C250.6,757.9,264.7,764.7,277,765z"/>
				<path fill="#A38D54" d="M303.4,721.7c4.4,9.5,3.7,18.4-2.5,23.9c-11.9-4.4-22.1-13.6-25.7-23.8c-3.6-10.2-0.3-18.5,6.4-23
					C290.8,704.1,298.9,712.2,303.4,721.7z"/>
				<path fill="#A38D54" d="M326.5,788c12.9-1.8,19-8.9,18.3-17.1c-12.7-5.7-26.5-9-38.6-8.2c-11.9,0.9-19.5,6.2-20.4,14.4
					C297.6,785.4,313.6,789.9,326.5,788z"/>
				<path fill="#A38D54" d="M343.7,740.5c6.8,8.7,8.2,17.7,3,24.2c-13.4-2.3-26-9.8-32-19.3c-6-9.5-4.4-18.4,1.4-23.9
					C326.7,725.2,336.9,731.8,343.7,740.5z"/>
			</g>
			<path fill="#A38D54" d="M344.8,770.9c0,0,136.1,17.4,170.3,77.3l-16.8,7.8c0,0-24.8-60.7-163.5-81.9L344.8,770.9z"/>
		</g>
		<g>
			<g>
				<path fill="#A38D54" d="M574.7,311.3c4.8,11,1.9,19.6-5.1,23.9c-10.6-6.3-20.3-15.3-26.1-25.5c-5.7-10.2-5.5-19.3,1-24.6
					C558,290.1,569.9,300.3,574.7,311.3z"/>
				<path fill="#A38D54" d="M520.9,296.4c13.6,6.2,22.3,16.4,24.4,25.6c-9.4,2-21.5,0-33.8-5.6c-12.3-5.6-22.5-13.7-27.8-22.3
					C492.8,289.9,507.3,290.2,520.9,296.4z"/>
				<path fill="#A38D54" d="M544.4,351.9c10.4,0.2,18.3-4.1,21.1-11.7c-8.2-8.8-20.7-14.5-31.9-14c-11.2,0.5-17.9,6.6-19.3,14.5
					C523.2,347.3,533.9,351.7,544.4,351.9z"/>
				<path fill="#A38D54" d="M612.3,344.6c2.4,11.5-2.2,19.4-9.7,22.4c-8.9-7.8-16.4-18.2-19.7-29c-3.2-10.8-1.1-19.6,6.1-23.7
					C600.8,321.4,610,333.2,612.3,344.6z"/>
				<path fill="#A38D54" d="M575.1,379.1c9.9,1.9,18.3-0.9,22.6-7.9c-6.1-9.9-16.9-17.5-27.6-18.8c-10.7-1.4-18.3,3.5-21.4,10.9
					C555.8,371.2,565.1,377.2,575.1,379.1z"/>
				<path fill="#A38D54" d="M642.1,383.3c0.1,11.6-5.8,18.5-13.7,20.1c-7.2-9.1-12.4-20.5-13.4-31.5c-1-11,2.8-19.2,10.6-22
					C635.4,358.7,642,371.8,642.1,383.3z"/>
				<path fill="#A38D54" d="M599.3,410.6c9.3,3.5,18,2.2,23.5-3.9c-4.1-10.6-13.1-19.9-23.1-22.9c-10.1-3.1-18.3,0.4-22.7,7.1
					C582.2,399.7,590,407.1,599.3,410.6z"/>
				<path fill="#A38D54" d="M663.9,426.1c-2,11.3-9,17.1-17,17.4c-5.4-10.2-8.5-22.1-7.4-33.1c1.1-10.9,6.3-18.3,14.5-19.7
					C661.8,401,665.9,414.8,663.9,426.1z"/>
				<path fill="#A38D54" d="M617.1,445.5c8.4,5,17.3,5.2,23.7,0.2c-2.1-11.1-9.2-21.6-18.4-26.3c-9.2-4.7-17.9-2.7-23.5,3.1
					C602.3,431.9,608.6,440.5,617.1,445.5z"/>
				<path fill="#A38D54" d="M677.8,471.7c-3.9,10.8-11.7,15.2-19.7,14.1c-3.6-10.9-4.5-23.2-1.6-33.7c3-10.5,9.5-16.8,17.7-16.8
					C680.1,446.7,681.7,461,677.8,471.7z"/>
				<path fill="#A38D54" d="M628.4,482.7c7.4,6.4,16.1,8.1,23.3,4.3c-0.2-11.3-5.3-22.8-13.6-29c-8.2-6.2-17.1-5.7-23.6-1
					C616.3,466.9,621,476.3,628.4,482.7z"/>
				<path fill="#A38D54" d="M683.8,518.9c-5.6,9.9-14.1,12.9-21.8,10.5c-1.7-11.4-0.6-23.6,4.1-33.4c4.7-9.8,12.2-14.9,20.2-13.4
					C690.2,494.8,689.4,509.1,683.8,518.9z"/>
				<path fill="#A38D54" d="M633.3,521.2c6.3,7.5,14.5,10.7,22.2,8.3c1.7-11.1-1.5-23.3-8.5-30.8c-7.1-7.5-15.9-8.6-23-5.1
					C624,503.5,627,513.6,633.3,521.2z"/>
				<path fill="#A38D54" d="M681.8,566.5c-7.2,8.8-16.1,10.3-23.2,6.5c0.2-11.5,3.3-23.3,9.6-32.2c6.3-8.8,14.5-12.5,22.2-9.7
					C692.2,543.8,689,557.7,681.8,566.5z"/>
				<path fill="#A38D54" d="M631.7,559.9c4.9,8.5,12.5,13.1,20.5,12c3.5-10.7,2.4-23.3-3.3-31.9c-5.7-8.6-14.2-11.2-21.8-9
					C625.4,540.9,626.8,551.4,631.7,559.9z"/>
				<path fill="#A38D54" d="M672,613.1c-8.6,7.5-17.6,7.4-24,2.4c2.1-11.4,7.2-22.5,14.9-30.2c7.6-7.6,16.3-9.8,23.5-5.7
					C686,592.4,680.5,605.7,672,613.1z"/>
				<path fill="#A38D54" d="M623.7,597.9c3.4,9.3,10.1,15.1,18.2,15.4c5.3-10,6.3-22.6,2.1-32c-4.2-9.5-12.1-13.5-20-12.7
					C620.7,578,620.3,588.6,623.7,597.9z"/>
				<path fill="#A38D54" d="M654.2,657.5c-9.8,5.9-18.7,4.3-24.1-1.7c4.1-10.9,11.1-21,20-27.3c8.8-6.2,17.8-6.9,24.1-1.6
					C671.7,639.5,664,651.6,654.2,657.5z"/>
				<path fill="#A38D54" d="M609.2,634.1c1.7,9.8,7.3,16.8,15.2,18.4c7-9,10.2-21.3,7.7-31.4c-2.5-10.2-9.7-15.5-17.6-16
					C609.8,613.9,607.5,624.3,609.2,634.1z"/>
				<path fill="#A38D54" d="M628.5,698.4c-10.8,4.2-19.4,1.1-23.6-5.9c6.2-10.1,15-19,24.9-23.6c9.9-4.6,18.8-3.8,24.2,2.6
					C649.2,683.6,639.3,694.3,628.5,698.4z"/>
				<path fill="#A38D54" d="M588.3,667.5c-0.1,10,4,17.9,11.6,20.9c8.7-7.7,14.2-19.3,13.5-29.8c-0.6-10.5-6.8-17-14.5-18.9
					C592.6,647.5,588.4,657.4,588.3,667.5z"/>
				<path fill="#A38D54" d="M594.9,734.7c-11.7,2.3-19.7-2.3-22.5-9.9c8.3-9,18.8-16.3,29.6-19.2c10.7-2.9,19.5-0.5,23.5,6.7
					C618.6,723.5,606.6,732.4,594.9,734.7z"/>
				<path fill="#A38D54" d="M560.9,697c-2.2,9.9,0.4,18.5,7.4,22.8c10.3-6.1,18.1-16.8,19.5-27.3c1.4-10.5-3.5-18-10.8-21.3
					C569.2,677.9,563.1,687.1,560.9,697z"/>
				<path fill="#A38D54" d="M553.4,765c-12.4,0.3-19.6-5.6-20.7-13.6c10.5-7.5,22.7-13,34.2-14c11.4-1.1,19.7,2.8,22.3,10.7
					C579.8,757.9,565.7,764.7,553.4,765z"/>
				<path fill="#A38D54" d="M527,721.7c-4.4,9.5-3.7,18.4,2.5,23.9c11.9-4.4,22.1-13.6,25.7-23.8c3.6-10.2,0.3-18.5-6.4-23
					C539.6,704.1,531.5,712.2,527,721.7z"/>
				<path fill="#A38D54" d="M504,788c-12.9-1.8-19-8.9-18.3-17.1c12.7-5.7,26.5-9,38.6-8.2c11.9,0.9,19.5,6.2,20.4,14.4
					C532.8,785.4,516.8,789.9,504,788z"/>
				<path fill="#A38D54" d="M486.7,740.5c-6.8,8.7-8.2,17.7-3,24.2c13.4-2.3,26-9.8,32-19.3c6-9.5,4.4-18.4-1.4-23.9
					C503.8,725.2,493.6,731.8,486.7,740.5z"/>
			</g>
			<path fill="#A38D54" d="M485.7,770.9c0,0-136.1,17.4-170.3,77.3l16.8,7.8c0,0,24.8-60.7,163.5-81.9L485.7,770.9z"/>
		</g>
	</g>
</g>
<g>
	<path fill="#254460" d="M1985.1,649.9h-261.9l0,0c0-18,14.6-32.6,32.6-32.6h196.7C1970.5,617.3,1985.1,631.9,1985.1,649.9
		L1985.1,649.9z"/>
	<g>
		
			<rect x="1806.5" y="463.3" transform="matrix(0.8577 -0.5141 0.5141 0.8577 -1.4991 1018.9447)" fill="#254460" width="67.3" height="97.7"/>
		<path fill="#254460" d="M1907.7,553.6l-62.8,37.7c-4.2,2.5-9.7,1.1-12.2-3.1l0,0c-2.5-4.2-1.1-9.7,3.1-12.2l62.8-37.7
			c4.2-2.5,9.7-1.1,12.2,3.1v0C1913.2,545.6,1911.9,551.1,1907.7,553.6z"/>
		<path fill="#254460" d="M1844.5,448.3l-62.8,37.7c-4.2,2.5-9.7,1.1-12.2-3.1l0,0c-2.5-4.2-1.1-9.7,3.1-12.2l62.8-37.7
			c4.2-2.5,9.7-1.1,12.2,3.1v0C1850.1,440.3,1848.7,445.8,1844.5,448.3z"/>
		<path fill="#254460" d="M1999.2,429.3l-138,82.7l-11-18.4l138-82.7c5.1-3,11.7-1.4,14.7,3.7v0
			C2006,419.7,2004.3,426.3,1999.2,429.3z"/>
	</g>
	<g>
		<g>
			<g>
				<path fill="#A38D54" d="M1697.3,311.3c-4.8,11-1.9,19.6,5.1,23.9c10.6-6.3,20.3-15.3,26.1-25.5c5.7-10.2,5.5-19.3-1-24.6
					C1714,290.1,1702.1,300.3,1697.3,311.3z"/>
				<path fill="#A38D54" d="M1751.1,296.4c-13.6,6.2-22.3,16.4-24.4,25.6c9.4,2,21.5,0,33.8-5.6c12.3-5.6,22.5-13.7,27.8-22.3
					C1779.2,289.9,1764.7,290.2,1751.1,296.4z"/>
				<path fill="#A38D54" d="M1727.6,351.9c-10.4,0.2-18.3-4.1-21.1-11.7c8.2-8.8,20.7-14.5,31.9-14c11.2,0.5,17.9,6.6,19.3,14.5
					C1748.8,347.3,1738.1,351.7,1727.6,351.9z"/>
				<path fill="#A38D54" d="M1659.7,344.6c-2.4,11.5,2.2,19.4,9.7,22.4c8.9-7.8,16.4-18.2,19.7-29c3.2-10.8,1.1-19.6-6.1-23.7
					C1671.2,321.4,1662,333.2,1659.7,344.6z"/>
				<path fill="#A38D54" d="M1696.9,379.1c-9.9,1.9-18.3-0.9-22.6-7.9c6.1-9.9,16.9-17.5,27.6-18.8c10.7-1.4,18.3,3.5,21.4,10.9
					C1716.2,371.2,1706.9,377.2,1696.9,379.1z"/>
				<path fill="#A38D54" d="M1629.9,383.3c-0.1,11.6,5.8,18.5,13.7,20.1c7.2-9.1,12.4-20.5,13.4-31.5c1-11-2.8-19.2-10.6-22
					C1636.6,358.7,1630,371.8,1629.9,383.3z"/>
				<path fill="#A38D54" d="M1672.7,410.6c-9.3,3.5-18,2.2-23.5-3.9c4.1-10.6,13.1-19.9,23.1-22.9c10.1-3.1,18.3,0.4,22.7,7.1
					C1689.8,399.7,1682,407.1,1672.7,410.6z"/>
				<path fill="#A38D54" d="M1608.1,426.1c2,11.3,9,17.1,17,17.4c5.4-10.2,8.5-22.1,7.4-33.1c-1.1-10.9-6.3-18.3-14.5-19.7
					C1610.2,401,1606.1,414.8,1608.1,426.1z"/>
				<path fill="#A38D54" d="M1654.9,445.5c-8.4,5-17.3,5.2-23.7,0.2c2.1-11.1,9.2-21.6,18.4-26.3c9.2-4.7,17.9-2.7,23.5,3.1
					C1669.7,431.9,1663.4,440.5,1654.9,445.5z"/>
				<path fill="#A38D54" d="M1594.2,471.7c3.9,10.8,11.7,15.2,19.7,14.1c3.6-10.9,4.5-23.2,1.6-33.7c-3-10.5-9.5-16.8-17.7-16.8
					C1591.9,446.7,1590.3,461,1594.2,471.7z"/>
				<path fill="#A38D54" d="M1643.6,482.7c-7.4,6.4-16.1,8.1-23.3,4.3c0.2-11.3,5.3-22.8,13.6-29c8.2-6.2,17.1-5.7,23.6-1
					C1655.7,466.9,1651,476.3,1643.6,482.7z"/>
				<path fill="#A38D54" d="M1588.2,518.9c5.6,9.9,14.1,12.9,21.8,10.5c1.7-11.4,0.6-23.6-4.1-33.4c-4.7-9.8-12.2-14.9-20.2-13.4
					C1581.8,494.8,1582.6,509.1,1588.2,518.9z"/>
				<path fill="#A38D54" d="M1638.7,521.2c-6.3,7.5-14.5,10.7-22.2,8.3c-1.7-11.1,1.5-23.3,8.5-30.8c7.1-7.5,15.9-8.6,23-5.1
					C1648,503.5,1645,513.6,1638.7,521.2z"/>
				<path fill="#A38D54" d="M1590.2,566.5c7.2,8.8,16.1,10.3,23.2,6.5c-0.2-11.5-3.3-23.3-9.6-32.2c-6.3-8.8-14.5-12.5-22.2-9.7
					C1579.8,543.8,1583,557.7,1590.2,566.5z"/>
				<path fill="#A38D54" d="M1640.3,559.9c-4.9,8.5-12.5,13.1-20.5,12c-3.5-10.7-2.4-23.3,3.3-31.9c5.7-8.6,14.2-11.2,21.8-9
					C1646.6,540.9,1645.2,551.4,1640.3,559.9z"/>
				<path fill="#A38D54" d="M1600,613.1c8.6,7.5,17.6,7.4,24,2.4c-2.1-11.4-7.2-22.5-14.9-30.2c-7.6-7.6-16.3-9.8-23.5-5.7
					C1586,592.4,1591.5,605.7,1600,613.1z"/>
				<path fill="#A38D54" d="M1648.3,597.9c-3.4,9.3-10.1,15.1-18.2,15.4c-5.3-10-6.3-22.6-2.1-32c4.2-9.5,12.1-13.5,20-12.7
					C1651.3,578,1651.7,588.6,1648.3,597.9z"/>
				<path fill="#A38D54" d="M1617.8,657.5c9.8,5.9,18.7,4.3,24.1-1.7c-4.1-10.9-11.1-21-20-27.3c-8.8-6.2-17.8-6.9-24.1-1.6
					C1600.3,639.5,1608,651.6,1617.8,657.5z"/>
				<path fill="#A38D54" d="M1662.8,634.1c-1.7,9.8-7.3,16.8-15.2,18.4c-7-9-10.2-21.3-7.7-31.4c2.5-10.2,9.7-15.5,17.6-16
					C1662.2,613.9,1664.5,624.3,1662.8,634.1z"/>
				<path fill="#A38D54" d="M1643.5,698.4c10.8,4.2,19.4,1.1,23.6-5.9c-6.2-10.1-15-19-24.9-23.6c-9.9-4.6-18.8-3.8-24.2,2.6
					C1622.8,683.6,1632.7,694.3,1643.5,698.4z"/>
				<path fill="#A38D54" d="M1683.7,667.5c0.1,10-4,17.9-11.6,20.9c-8.7-7.7-14.2-19.3-13.5-29.8c0.6-10.5,6.8-17,14.5-18.9
					C1679.4,647.5,1683.6,657.4,1683.7,667.5z"/>
				<path fill="#A38D54" d="M1677.1,734.7c11.7,2.3,19.7-2.3,22.5-9.9c-8.3-9-18.8-16.3-29.6-19.2c-10.7-2.9-19.5-0.5-23.5,6.7
					C1653.4,723.5,1665.4,732.4,1677.1,734.7z"/>
				<path fill="#A38D54" d="M1711.1,697c2.2,9.9-0.4,18.5-7.4,22.8c-10.3-6.1-18.1-16.8-19.5-27.3c-1.4-10.5,3.5-18,10.8-21.3
					C1702.8,677.9,1708.9,687.1,1711.1,697z"/>
				<path fill="#A38D54" d="M1718.6,765c12.4,0.3,19.6-5.6,20.7-13.6c-10.5-7.5-22.7-13-34.2-14c-11.4-1.1-19.7,2.8-22.3,10.7
					C1692.2,757.9,1706.3,764.7,1718.6,765z"/>
				<path fill="#A38D54" d="M1745,721.7c4.4,9.5,3.7,18.4-2.5,23.9c-11.9-4.4-22.1-13.6-25.7-23.8c-3.6-10.2-0.3-18.5,6.4-23
					C1732.4,704.1,1740.5,712.2,1745,721.7z"/>
				<path fill="#A38D54" d="M1768,788c12.9-1.8,19-8.9,18.3-17.1c-12.7-5.7-26.5-9-38.6-8.2c-11.9,0.9-19.5,6.2-20.4,14.4
					C1739.2,785.4,1755.2,789.9,1768,788z"/>
				<path fill="#A38D54" d="M1785.3,740.5c6.8,8.7,8.2,17.7,3,24.2c-13.4-2.3-26-9.8-32-19.3c-6-9.5-4.4-18.4,1.4-23.9
					C1768.2,725.2,1778.4,731.8,1785.3,740.5z"/>
			</g>
			<path fill="#A38D54" d="M1786.3,770.9c0,0,136.1,17.4,170.3,77.3l-16.8,7.8c0,0-24.8-60.7-163.5-81.9L1786.3,770.9z"/>
		</g>
		<g>
			<g>
				<path fill="#A38D54" d="M2016.3,311.3c4.8,11,1.9,19.6-5.1,23.9c-10.6-6.3-20.3-15.3-26.1-25.5c-5.7-10.2-5.5-19.3,1-24.6
					C1999.6,290.1,2011.5,300.3,2016.3,311.3z"/>
				<path fill="#A38D54" d="M1962.4,296.4c13.6,6.2,22.3,16.4,24.4,25.6c-9.4,2-21.5,0-33.8-5.6c-12.3-5.6-22.5-13.7-27.8-22.3
					C1934.4,289.9,1948.9,290.2,1962.4,296.4z"/>
				<path fill="#A38D54" d="M1986,351.9c10.4,0.2,18.3-4.1,21.1-11.7c-8.2-8.8-20.7-14.5-31.9-14c-11.2,0.5-17.9,6.6-19.3,14.5
					C1964.8,347.3,1975.5,351.7,1986,351.9z"/>
				<path fill="#A38D54" d="M2053.9,344.6c2.4,11.5-2.2,19.4-9.7,22.4c-8.9-7.8-16.4-18.2-19.7-29c-3.2-10.8-1.1-19.6,6.1-23.7
					C2042.4,321.4,2051.6,333.2,2053.9,344.6z"/>
				<path fill="#A38D54" d="M2016.6,379.1c9.9,1.9,18.3-0.9,22.6-7.9c-6.1-9.9-16.9-17.5-27.6-18.8c-10.7-1.4-18.3,3.5-21.4,10.9
					C1997.4,371.2,2006.7,377.2,2016.6,379.1z"/>
				<path fill="#A38D54" d="M2083.7,383.3c0.1,11.6-5.8,18.5-13.7,20.1c-7.2-9.1-12.4-20.5-13.4-31.5c-1-11,2.8-19.2,10.6-22
					C2077,358.7,2083.6,371.8,2083.7,383.3z"/>
				<path fill="#A38D54" d="M2040.9,410.6c9.3,3.5,18,2.2,23.5-3.9c-4.1-10.6-13.1-19.9-23.1-22.9c-10.1-3.1-18.3,0.4-22.7,7.1
					C2023.8,399.7,2031.6,407.1,2040.9,410.6z"/>
				<path fill="#A38D54" d="M2105.5,426.1c-2,11.3-9,17.1-17,17.4c-5.4-10.2-8.5-22.1-7.4-33.1c1.1-10.9,6.3-18.3,14.5-19.7
					C2103.4,401,2107.5,414.8,2105.5,426.1z"/>
				<path fill="#A38D54" d="M2058.7,445.5c8.4,5,17.3,5.2,23.7,0.2c-2.1-11.1-9.2-21.6-18.4-26.3c-9.2-4.7-17.9-2.7-23.5,3.1
					C2043.9,431.9,2050.2,440.5,2058.7,445.5z"/>
				<path fill="#A38D54" d="M2119.4,471.7c-3.9,10.8-11.7,15.2-19.7,14.1c-3.6-10.9-4.5-23.2-1.6-33.7c3-10.5,9.5-16.8,17.7-16.8
					C2121.7,446.7,2123.3,461,2119.4,471.7z"/>
				<path fill="#A38D54" d="M2070,482.7c7.4,6.4,16.1,8.1,23.3,4.3c-0.2-11.3-5.3-22.8-13.6-29c-8.2-6.2-17.1-5.7-23.6-1
					C2057.8,466.9,2062.6,476.3,2070,482.7z"/>
				<path fill="#A38D54" d="M2125.4,518.9c-5.6,9.9-14.1,12.9-21.8,10.5c-1.7-11.4-0.6-23.6,4.1-33.4c4.7-9.8,12.2-14.9,20.2-13.4
					C2131.8,494.8,2131,509.1,2125.4,518.9z"/>
				<path fill="#A38D54" d="M2074.9,521.2c6.3,7.5,14.5,10.7,22.2,8.3c1.7-11.1-1.5-23.3-8.5-30.8c-7.1-7.5-15.9-8.6-23-5.1
					C2065.5,503.5,2068.6,513.6,2074.9,521.2z"/>
				<path fill="#A38D54" d="M2123.4,566.5c-7.2,8.8-16.1,10.3-23.2,6.5c0.2-11.5,3.3-23.3,9.6-32.2c6.3-8.8,14.5-12.5,22.2-9.7
					C2133.8,543.8,2130.6,557.7,2123.4,566.5z"/>
				<path fill="#A38D54" d="M2073.3,559.9c4.9,8.5,12.5,13.1,20.5,12c3.5-10.7,2.4-23.3-3.3-31.9c-5.7-8.6-14.2-11.2-21.8-9
					C2067,540.9,2068.4,551.4,2073.3,559.9z"/>
				<path fill="#A38D54" d="M2113.6,613.1c-8.6,7.5-17.6,7.4-24,2.4c2.1-11.4,7.2-22.5,14.9-30.2c7.6-7.6,16.3-9.8,23.5-5.7
					C2127.6,592.4,2122.1,605.7,2113.6,613.1z"/>
				<path fill="#A38D54" d="M2065.3,597.9c3.4,9.3,10.1,15.1,18.2,15.4c5.3-10,6.3-22.6,2.1-32c-4.2-9.5-12.1-13.5-20-12.7
					C2062.3,578,2061.9,588.6,2065.3,597.9z"/>
				<path fill="#A38D54" d="M2095.8,657.5c-9.8,5.9-18.7,4.3-24.1-1.7c4.1-10.9,11.1-21,20-27.3c8.8-6.2,17.8-6.9,24.1-1.6
					C2113.3,639.5,2105.6,651.6,2095.8,657.5z"/>
				<path fill="#A38D54" d="M2050.8,634.1c1.7,9.8,7.3,16.8,15.2,18.4c7-9,10.2-21.3,7.7-31.4c-2.5-10.2-9.7-15.5-17.6-16
					C2051.3,613.9,2049.1,624.3,2050.8,634.1z"/>
				<path fill="#A38D54" d="M2070.1,698.4c-10.8,4.2-19.4,1.1-23.6-5.9c6.2-10.1,15-19,24.9-23.6c9.9-4.6,18.8-3.8,24.2,2.6
					C2090.8,683.6,2080.9,694.3,2070.1,698.4z"/>
				<path fill="#A38D54" d="M2029.9,667.5c-0.1,10,4,17.9,11.6,20.9c8.7-7.7,14.2-19.3,13.5-29.8c-0.6-10.5-6.8-17-14.5-18.9
					C2034.2,647.5,2030,657.4,2029.9,667.5z"/>
				<path fill="#A38D54" d="M2036.5,734.7c-11.7,2.3-19.7-2.3-22.5-9.9c8.3-9,18.8-16.3,29.6-19.2c10.7-2.9,19.5-0.5,23.5,6.7
					C2060.1,723.5,2048.2,732.4,2036.5,734.7z"/>
				<path fill="#A38D54" d="M2002.5,697c-2.2,9.9,0.4,18.5,7.4,22.8c10.3-6.1,18.1-16.8,19.5-27.3c1.4-10.5-3.5-18-10.8-21.3
					C2010.8,677.9,2004.7,687.1,2002.5,697z"/>
				<path fill="#A38D54" d="M1995,765c-12.4,0.3-19.6-5.6-20.7-13.6c10.5-7.5,22.7-13,34.2-14c11.4-1.1,19.7,2.8,22.3,10.7
					C2021.4,757.9,2007.3,764.7,1995,765z"/>
				<path fill="#A38D54" d="M1968.6,721.7c-4.4,9.5-3.7,18.4,2.5,23.9c11.9-4.4,22.1-13.6,25.7-23.8c3.6-10.2,0.3-18.5-6.4-23
					C1981.2,704.1,1973.1,712.2,1968.6,721.7z"/>
				<path fill="#A38D54" d="M1945.5,788c-12.9-1.8-19-8.9-18.3-17.1c12.7-5.7,26.5-9,38.6-8.2c11.9,0.9,19.5,6.2,20.4,14.4
					C1974.4,785.4,1958.4,789.9,1945.5,788z"/>
				<path fill="#A38D54" d="M1928.3,740.5c-6.8,8.7-8.2,17.7-3,24.2c13.4-2.3,26-9.8,32-19.3c6-9.5,4.4-18.4-1.4-23.9
					C1945.3,725.2,1935.1,731.8,1928.3,740.5z"/>
			</g>
			<path fill="#A38D54" d="M1927.2,770.9c0,0-136.1,17.4-170.3,77.3l16.8,7.8c0,0,24.8-60.7,163.5-81.9L1927.2,770.9z"/>
		</g>
	</g>
</g>
<g>
	<g>
		<g>
			<g>
				<path fill="#A38D54" d="M255.7,1042.3c-4.8,11-1.9,19.6,5.1,23.9c10.6-6.3,20.3-15.3,26.1-25.5c5.7-10.2,5.5-19.3-1-24.6
					C272.4,1021.1,260.5,1031.3,255.7,1042.3z"/>
				<path fill="#A38D54" d="M309.6,1027.4c-13.6,6.2-22.3,16.4-24.4,25.6c9.4,2,21.5,0,33.8-5.6c12.3-5.6,22.5-13.7,27.8-22.3
					C337.6,1020.9,323.1,1021.2,309.6,1027.4z"/>
				<path fill="#A38D54" d="M286,1082.9c-10.4,0.2-18.3-4.1-21.1-11.7c8.2-8.8,20.7-14.5,31.9-14c11.2,0.5,17.9,6.6,19.3,14.5
					C307.2,1078.3,296.5,1082.7,286,1082.9z"/>
				<path fill="#A38D54" d="M218.1,1075.6c-2.4,11.5,2.2,19.4,9.7,22.4c8.9-7.8,16.4-18.2,19.7-29c3.2-10.8,1.1-19.6-6.1-23.7
					C229.6,1052.4,220.4,1064.2,218.1,1075.6z"/>
				<path fill="#A38D54" d="M255.4,1110.1c-9.9,1.9-18.3-0.9-22.6-7.9c6.1-9.9,16.9-17.5,27.6-18.8c10.7-1.4,18.3,3.5,21.4,10.9
					C274.6,1102.2,265.3,1108.2,255.4,1110.1z"/>
				<path fill="#A38D54" d="M188.3,1114.3c-0.1,11.6,5.8,18.5,13.7,20.1c7.2-9.1,12.4-20.5,13.4-31.5c1-11-2.8-19.2-10.6-22
					C195,1089.7,188.4,1102.8,188.3,1114.3z"/>
				<path fill="#A38D54" d="M231.1,1141.6c-9.3,3.5-18,2.2-23.5-3.9c4.1-10.6,13.1-19.9,23.1-22.9c10.1-3.1,18.3,0.4,22.7,7.1
					C248.2,1130.7,240.4,1138.1,231.1,1141.6z"/>
				<path fill="#A38D54" d="M166.5,1157.1c2,11.3,9,17.1,17,17.4c5.4-10.2,8.5-22.1,7.4-33.1c-1.1-10.9-6.3-18.3-14.5-19.7
					C168.6,1132,164.5,1145.8,166.5,1157.1z"/>
				<path fill="#A38D54" d="M213.3,1176.5c-8.4,5-17.3,5.2-23.7,0.2c2.1-11.1,9.2-21.6,18.4-26.3c9.2-4.7,17.9-2.7,23.5,3.1
					C228.1,1162.9,221.8,1171.5,213.3,1176.5z"/>
				<path fill="#A38D54" d="M152.6,1202.7c3.9,10.8,11.7,15.2,19.7,14.1c3.6-10.9,4.5-23.2,1.6-33.7c-3-10.5-9.5-16.8-17.7-16.8
					C150.3,1177.7,148.7,1192,152.6,1202.7z"/>
				<path fill="#A38D54" d="M202,1213.7c-7.4,6.4-16.1,8.1-23.3,4.3c0.2-11.3,5.3-22.8,13.6-29c8.2-6.2,17.1-5.7,23.6-1
					C214.2,1197.9,209.4,1207.3,202,1213.7z"/>
				<path fill="#A38D54" d="M146.6,1250c5.6,9.9,14.1,12.9,21.8,10.5c1.7-11.4,0.6-23.6-4.1-33.4c-4.7-9.8-12.2-14.9-20.2-13.4
					C140.2,1225.8,141,1240.1,146.6,1250z"/>
				<path fill="#A38D54" d="M197.1,1252.2c-6.3,7.5-14.5,10.7-22.2,8.3c-1.7-11.1,1.5-23.3,8.5-30.8c7.1-7.5,15.9-8.6,23-5.1
					C206.5,1234.5,203.4,1244.6,197.1,1252.2z"/>
				<path fill="#A38D54" d="M148.6,1297.5c7.2,8.8,16.1,10.3,23.2,6.5c-0.2-11.5-3.3-23.3-9.6-32.2c-6.3-8.8-14.5-12.5-22.2-9.7
					C138.2,1274.8,141.4,1288.7,148.6,1297.5z"/>
				<path fill="#A38D54" d="M198.7,1290.9c-4.9,8.5-12.5,13.1-20.5,12c-3.5-10.7-2.4-23.3,3.3-31.9c5.7-8.6,14.2-11.2,21.8-9
					C205,1271.9,203.6,1282.4,198.7,1290.9z"/>
				<path fill="#A38D54" d="M158.4,1344.1c8.6,7.5,17.6,7.4,24,2.4c-2.1-11.4-7.2-22.5-14.9-30.2c-7.6-7.6-16.3-9.8-23.5-5.7
					C144.4,1323.4,149.9,1336.7,158.4,1344.1z"/>
				<path fill="#A38D54" d="M206.7,1328.9c-3.4,9.3-10.1,15.1-18.2,15.4c-5.3-10-6.3-22.6-2.1-32c4.2-9.5,12.1-13.5,20-12.7
					C209.7,1309,210.1,1319.6,206.7,1328.9z"/>
				<path fill="#A38D54" d="M176.2,1388.5c9.8,5.9,18.7,4.3,24.1-1.7c-4.1-10.9-11.1-21-20-27.3c-8.8-6.2-17.8-6.9-24.1-1.6
					C158.7,1370.5,166.4,1382.6,176.2,1388.5z"/>
				<path fill="#A38D54" d="M221.2,1365.1c-1.7,9.8-7.3,16.8-15.2,18.4c-7-9-10.2-21.3-7.7-31.4c2.5-10.2,9.7-15.5,17.6-16
					C220.7,1344.9,222.9,1355.3,221.2,1365.1z"/>
				<path fill="#A38D54" d="M201.9,1429.4c10.8,4.2,19.4,1.1,23.6-5.9c-6.2-10.1-15-19-24.9-23.6c-9.9-4.6-18.8-3.8-24.2,2.6
					C181.2,1414.6,191.1,1425.3,201.9,1429.4z"/>
				<path fill="#A38D54" d="M242.1,1398.5c0.1,10-4,17.9-11.6,20.9c-8.7-7.7-14.2-19.3-13.5-29.8c0.6-10.5,6.8-17,14.5-18.9
					C237.8,1378.5,242,1388.4,242.1,1398.5z"/>
				<path fill="#A38D54" d="M235.5,1465.7c11.7,2.3,19.7-2.3,22.5-9.9c-8.3-9-18.8-16.3-29.6-19.2c-10.7-2.9-19.5-0.5-23.5,6.7
					C211.9,1454.5,223.8,1463.4,235.5,1465.7z"/>
				<path fill="#A38D54" d="M269.5,1428c2.2,9.9-0.4,18.5-7.4,22.8c-10.3-6.1-18.1-16.8-19.5-27.3c-1.4-10.5,3.5-18,10.8-21.3
					C261.2,1408.9,267.3,1418.1,269.5,1428z"/>
				<path fill="#A38D54" d="M277,1496c12.4,0.3,19.6-5.6,20.7-13.6c-10.5-7.5-22.7-13-34.2-14c-11.4-1.1-19.7,2.8-22.3,10.7
					C250.6,1488.9,264.7,1495.7,277,1496z"/>
				<path fill="#A38D54" d="M303.4,1452.7c4.4,9.5,3.7,18.4-2.5,23.9c-11.9-4.4-22.1-13.6-25.7-23.8c-3.6-10.2-0.3-18.5,6.4-23
					C290.8,1435.1,298.9,1443.2,303.4,1452.7z"/>
				<path fill="#A38D54" d="M326.5,1519c12.9-1.8,19-8.9,18.3-17.1c-12.7-5.7-26.5-9-38.6-8.2c-11.9,0.9-19.5,6.2-20.4,14.4
					C297.6,1516.4,313.6,1520.9,326.5,1519z"/>
				<path fill="#A38D54" d="M343.7,1471.5c6.8,8.7,8.2,17.7,3,24.2c-13.4-2.3-26-9.8-32-19.3c-6-9.5-4.4-18.4,1.4-23.9
					C326.7,1456.2,336.9,1462.8,343.7,1471.5z"/>
			</g>
			<path fill="#A38D54" d="M344.8,1501.9c0,0,136.1,17.4,170.3,77.3l-16.8,7.8c0,0-24.8-60.7-163.5-81.9L344.8,1501.9z"/>
		</g>
		<g>
			<g>
				<path fill="#A38D54" d="M574.7,1042.3c4.8,11,1.9,19.6-5.1,23.9c-10.6-6.3-20.3-15.3-26.1-25.5c-5.7-10.2-5.5-19.3,1-24.6
					C558,1021.1,569.9,1031.3,574.7,1042.3z"/>
				<path fill="#A38D54" d="M520.9,1027.4c13.6,6.2,22.3,16.4,24.4,25.6c-9.4,2-21.5,0-33.8-5.6c-12.3-5.6-22.5-13.7-27.8-22.3
					C492.8,1020.9,507.3,1021.2,520.9,1027.4z"/>
				<path fill="#A38D54" d="M544.4,1082.9c10.4,0.2,18.3-4.1,21.1-11.7c-8.2-8.8-20.7-14.5-31.9-14c-11.2,0.5-17.9,6.6-19.3,14.5
					C523.2,1078.3,533.9,1082.7,544.4,1082.9z"/>
				<path fill="#A38D54" d="M612.3,1075.6c2.4,11.5-2.2,19.4-9.7,22.4c-8.9-7.8-16.4-18.2-19.7-29c-3.2-10.8-1.1-19.6,6.1-23.7
					C600.8,1052.4,610,1064.2,612.3,1075.6z"/>
				<path fill="#A38D54" d="M575.1,1110.1c9.9,1.9,18.3-0.9,22.6-7.9c-6.1-9.9-16.9-17.5-27.6-18.8c-10.7-1.4-18.3,3.5-21.4,10.9
					C555.8,1102.2,565.1,1108.2,575.1,1110.1z"/>
				<path fill="#A38D54" d="M642.1,1114.3c0.1,11.6-5.8,18.5-13.7,20.1c-7.2-9.1-12.4-20.5-13.4-31.5c-1-11,2.8-19.2,10.6-22
					C635.4,1089.7,642,1102.8,642.1,1114.3z"/>
				<path fill="#A38D54" d="M599.3,1141.6c9.3,3.5,18,2.2,23.5-3.9c-4.1-10.6-13.1-19.9-23.1-22.9c-10.1-3.1-18.3,0.4-22.7,7.1
					C582.2,1130.7,590,1138.1,599.3,1141.6z"/>
				<path fill="#A38D54" d="M663.9,1157.1c-2,11.3-9,17.1-17,17.4c-5.4-10.2-8.5-22.1-7.4-33.1c1.1-10.9,6.3-18.3,14.5-19.7
					C661.8,1132,665.9,1145.8,663.9,1157.1z"/>
				<path fill="#A38D54" d="M617.1,1176.5c8.4,5,17.3,5.2,23.7,0.2c-2.1-11.1-9.2-21.6-18.4-26.3c-9.2-4.7-17.9-2.7-23.5,3.1
					C602.3,1162.9,608.6,1171.5,617.1,1176.5z"/>
				<path fill="#A38D54" d="M677.8,1202.7c-3.9,10.8-11.7,15.2-19.7,14.1c-3.6-10.9-4.5-23.2-1.6-33.7c3-10.5,9.5-16.8,17.7-16.8
					C680.1,1177.7,681.7,1192,677.8,1202.7z"/>
				<path fill="#A38D54" d="M628.4,1213.7c7.4,6.4,16.1,8.1,23.3,4.3c-0.2-11.3-5.3-22.8-13.6-29c-8.2-6.2-17.1-5.7-23.6-1
					C616.3,1197.9,621,1207.3,628.4,1213.7z"/>
				<path fill="#A38D54" d="M683.8,1250c-5.6,9.9-14.1,12.9-21.8,10.5c-1.7-11.4-0.6-23.6,4.1-33.4c4.7-9.8,12.2-14.9,20.2-13.4
					C690.2,1225.8,689.4,1240.1,683.8,1250z"/>
				<path fill="#A38D54" d="M633.3,1252.2c6.3,7.5,14.5,10.7,22.2,8.3c1.7-11.1-1.5-23.3-8.5-30.8c-7.1-7.5-15.9-8.6-23-5.1
					C624,1234.5,627,1244.6,633.3,1252.2z"/>
				<path fill="#A38D54" d="M681.8,1297.5c-7.2,8.8-16.1,10.3-23.2,6.5c0.2-11.5,3.3-23.3,9.6-32.2c6.3-8.8,14.5-12.5,22.2-9.7
					C692.2,1274.8,689,1288.7,681.8,1297.5z"/>
				<path fill="#A38D54" d="M631.7,1290.9c4.9,8.5,12.5,13.1,20.5,12c3.5-10.7,2.4-23.3-3.3-31.9c-5.7-8.6-14.2-11.2-21.8-9
					C625.4,1271.9,626.8,1282.4,631.7,1290.9z"/>
				<path fill="#A38D54" d="M672,1344.1c-8.6,7.5-17.6,7.4-24,2.4c2.1-11.4,7.2-22.5,14.9-30.2c7.6-7.6,16.3-9.8,23.5-5.7
					C686,1323.4,680.5,1336.7,672,1344.1z"/>
				<path fill="#A38D54" d="M623.7,1328.9c3.4,9.3,10.1,15.1,18.2,15.4c5.3-10,6.3-22.6,2.1-32c-4.2-9.5-12.1-13.5-20-12.7
					C620.7,1309,620.3,1319.6,623.7,1328.9z"/>
				<path fill="#A38D54" d="M654.2,1388.5c-9.8,5.9-18.7,4.3-24.1-1.7c4.1-10.9,11.1-21,20-27.3c8.8-6.2,17.8-6.9,24.1-1.6
					C671.7,1370.5,664,1382.6,654.2,1388.5z"/>
				<path fill="#A38D54" d="M609.2,1365.1c1.7,9.8,7.3,16.8,15.2,18.4c7-9,10.2-21.3,7.7-31.4c-2.5-10.2-9.7-15.5-17.6-16
					C609.8,1344.9,607.5,1355.3,609.2,1365.1z"/>
				<path fill="#A38D54" d="M628.5,1429.4c-10.8,4.2-19.4,1.1-23.6-5.9c6.2-10.1,15-19,24.9-23.6c9.9-4.6,18.8-3.8,24.2,2.6
					C649.2,1414.6,639.3,1425.3,628.5,1429.4z"/>
				<path fill="#A38D54" d="M588.3,1398.5c-0.1,10,4,17.9,11.6,20.9c8.7-7.7,14.2-19.3,13.5-29.8c-0.6-10.5-6.8-17-14.5-18.9
					C592.6,1378.5,588.4,1388.4,588.3,1398.5z"/>
				<path fill="#A38D54" d="M594.9,1465.7c-11.7,2.3-19.7-2.3-22.5-9.9c8.3-9,18.8-16.3,29.6-19.2c10.7-2.9,19.5-0.5,23.5,6.7
					C618.6,1454.5,606.6,1463.4,594.9,1465.7z"/>
				<path fill="#A38D54" d="M560.9,1428c-2.2,9.9,0.4,18.5,7.4,22.8c10.3-6.1,18.1-16.8,19.5-27.3c1.4-10.5-3.5-18-10.8-21.3
					C569.2,1408.9,563.1,1418.1,560.9,1428z"/>
				<path fill="#A38D54" d="M553.4,1496c-12.4,0.3-19.6-5.6-20.7-13.6c10.5-7.5,22.7-13,34.2-14c11.4-1.1,19.7,2.8,22.3,10.7
					C579.8,1488.9,565.7,1495.7,553.4,1496z"/>
				<path fill="#A38D54" d="M527,1452.7c-4.4,9.5-3.7,18.4,2.5,23.9c11.9-4.4,22.1-13.6,25.7-23.8c3.6-10.2,0.3-18.5-6.4-23
					C539.6,1435.1,531.5,1443.2,527,1452.7z"/>
				<path fill="#A38D54" d="M504,1519c-12.9-1.8-19-8.9-18.3-17.1c12.7-5.7,26.5-9,38.6-8.2c11.9,0.9,19.5,6.2,20.4,14.4
					C532.8,1516.4,516.8,1520.9,504,1519z"/>
				<path fill="#A38D54" d="M486.7,1471.5c-6.8,8.7-8.2,17.7-3,24.2c13.4-2.3,26-9.8,32-19.3c6-9.5,4.4-18.4-1.4-23.9
					C503.8,1456.2,493.6,1462.8,486.7,1471.5z"/>
			</g>
			<path fill="#A38D54" d="M485.7,1501.9c0,0-136.1,17.4-170.3,77.3l16.8,7.8c0,0,24.8-60.7,163.5-81.9L485.7,1501.9z"/>
		</g>
	</g>
	<g>
		<path fill="#254460" d="M320.2,1333.8c-15.9,0-31.8-6.1-43.9-18.2c-24.2-24.2-24.2-63.7,0-87.9c24.2-24.2,63.7-24.2,87.9,0
			c24.2,24.2,24.2,63.7,0,87.9l0,0C352.1,1327.7,336.2,1333.8,320.2,1333.8z M320.2,1224.5c-12.1,0-24.1,4.6-33.3,13.8
			c-18.4,18.4-18.4,48.3,0,66.7c18.4,18.4,48.3,18.4,66.7,0c18.4-18.4,18.4-48.3,0-66.7C344.4,1229.1,332.3,1224.5,320.2,1224.5z"/>
		<polygon fill="#254460" points="382.7,1228 363.9,1209.2 344.8,1218.9 373,1247.1 		"/>
		<path fill="#254460" d="M374.6,1229.7c-0.3,0-0.6,0-0.9,0c-2.9-0.2-5.5-1.6-7.4-3.8c-1.9-2.2-2.8-5-2.5-7.9
			c0.2-2.9,1.6-5.5,3.8-7.4l11.7-9.9c4.6-3.9,11.4-3.3,15.3,1.3c3.9,4.6,3.3,11.4-1.3,15.3l-11.7,9.9
			C379.6,1228.8,377.2,1229.7,374.6,1229.7z M386.3,1203.1c-1.3,0-2.7,0.5-3.8,1.4l-11.7,9.9c-1.2,1-1.9,2.4-2,4
			c-0.1,1.6,0.4,3.1,1.4,4.3s2.4,1.9,4,2c1.6,0.1,3.1-0.4,4.3-1.4l11.7-9.9l1.6,1.9l-1.6-1.9c2.5-2.1,2.8-5.8,0.7-8.2
			C389.6,1203.8,388,1203.1,386.3,1203.1z"/>
		<path fill="#254460" d="M423.3,1202.1c-0.3,0-0.6,0-0.9,0l-15.3-1.3c-6-0.5-10.4-5.7-9.9-11.7c0.5-6,5.7-10.4,11.7-9.9l15.3,1.3
			c2.9,0.2,5.5,1.6,7.4,3.8c1.9,2.2,2.8,5,2.5,7.9c-0.2,2.9-1.6,5.5-3.8,7.4C428.3,1201.2,425.9,1202.1,423.3,1202.1z M408,1184.2
			c-3,0-5.6,2.3-5.8,5.4c-0.3,3.2,2.1,6,5.3,6.3l15.3,1.3c1.5,0.1,3.1-0.4,4.2-1.4c1.2-1,1.9-2.4,2-4c0.1-1.5-0.4-3.1-1.4-4.2
			s-2.4-1.9-4-2l-15.3-1.3C408.3,1184.2,408.2,1184.2,408,1184.2z"/>
		<path fill="#254460" d="M385.7,1211.7c-0.7,0-1.4-0.3-1.9-0.9c-0.9-1-0.8-2.6,0.2-3.5l21.3-18.5c1-0.9,2.6-0.8,3.5,0.2
			c0.9,1,0.8,2.6-0.2,3.5l-21.3,18.5C386.9,1211.5,386.3,1211.7,385.7,1211.7z"/>
		<path fill="#254460" d="M510.2,1333.8c-15.9,0-31.8-6.1-43.9-18.2l0,0c-24.2-24.2-24.2-63.7,0-87.9c24.2-24.2,63.7-24.2,87.9,0
			c24.2,24.2,24.2,63.7,0,87.9C542,1327.7,526.1,1333.8,510.2,1333.8z M476.8,1305c18.4,18.4,48.3,18.4,66.7,0
			c18.4-18.4,18.4-48.3,0-66.7c-18.4-18.4-48.3-18.4-66.7,0C458.5,1256.7,458.5,1286.6,476.8,1305L476.8,1305z"/>
		<polygon fill="#254460" points="447.7,1228 466.5,1209.2 485.6,1218.9 457.4,1247.1 		"/>
		<path fill="#254460" d="M455.8,1229.7c-2.6,0-5-0.9-7-2.6l-11.7-9.9c-4.6-3.9-5.1-10.7-1.3-15.3c3.9-4.6,10.7-5.1,15.3-1.3
			l11.7,9.9c4.6,3.9,5.1,10.7,1.3,15.3c-1.9,2.2-4.5,3.5-7.4,3.8C456.4,1229.7,456.1,1229.7,455.8,1229.7z M440.3,1213.4l11.7,9.9
			c1.2,1,2.7,1.5,4.3,1.4c1.6-0.1,3-0.9,4-2c2.1-2.5,1.8-6.1-0.7-8.2l-11.7-9.9c-2.5-2.1-6.1-1.8-8.2,0.7
			C437.6,1207.6,437.9,1211.3,440.3,1213.4L440.3,1213.4z"/>
		<path fill="#254460" d="M444.7,1211.7c-0.6,0-1.2-0.2-1.6-0.6l-21.3-18.5c-1-0.9-1.2-2.5-0.2-3.5c0.9-1,2.5-1.2,3.5-0.2l21.3,18.5
			c1,0.9,1.2,2.5,0.2,3.5C446.1,1211.4,445.4,1211.7,444.7,1211.7z"/>
	</g>
</g>
<g>
	<g>
		<g>
			<g>
				<path fill="#A38D54" d="M976.5,1042.3c-4.8,11-1.9,19.6,5.1,23.9c10.6-6.3,20.3-15.3,26.1-25.5c5.7-10.2,5.5-19.3-1-24.6
					C993.2,1021.1,981.3,1031.3,976.5,1042.3z"/>
				<path fill="#A38D54" d="M1030.4,1027.4c-13.6,6.2-22.3,16.4-24.4,25.6c9.4,2,21.5,0,33.8-5.6c12.3-5.6,22.5-13.7,27.8-22.3
					C1058.4,1020.9,1043.9,1021.2,1030.4,1027.4z"/>
				<path fill="#A38D54" d="M1006.8,1082.9c-10.4,0.2-18.3-4.1-21.1-11.7c8.2-8.8,20.7-14.5,31.9-14c11.2,0.5,17.9,6.6,19.3,14.5
					C1028,1078.3,1017.3,1082.7,1006.8,1082.9z"/>
				<path fill="#A38D54" d="M938.9,1075.6c-2.4,11.5,2.2,19.4,9.7,22.4c8.9-7.8,16.4-18.2,19.7-29c3.2-10.8,1.1-19.6-6.1-23.7
					C950.4,1052.4,941.2,1064.2,938.9,1075.6z"/>
				<path fill="#A38D54" d="M976.1,1110.1c-9.9,1.9-18.3-0.9-22.6-7.9c6.1-9.9,16.9-17.5,27.6-18.8c10.7-1.4,18.3,3.5,21.4,10.9
					C995.4,1102.2,986.1,1108.2,976.1,1110.1z"/>
				<path fill="#A38D54" d="M909.1,1114.3c-0.1,11.6,5.8,18.5,13.7,20.1c7.2-9.1,12.4-20.5,13.4-31.5c1-11-2.8-19.2-10.6-22
					C915.8,1089.7,909.2,1102.8,909.1,1114.3z"/>
				<path fill="#A38D54" d="M951.9,1141.6c-9.3,3.5-18,2.2-23.5-3.9c4.1-10.6,13.1-19.9,23.1-22.9c10.1-3.1,18.3,0.4,22.7,7.1
					C969,1130.7,961.2,1138.1,951.9,1141.6z"/>
				<path fill="#A38D54" d="M887.3,1157.1c2,11.3,9,17.1,17,17.4c5.4-10.2,8.5-22.1,7.4-33.1c-1.1-10.9-6.3-18.3-14.5-19.7
					C889.4,1132,885.3,1145.8,887.3,1157.1z"/>
				<path fill="#A38D54" d="M934.1,1176.5c-8.4,5-17.3,5.2-23.7,0.2c2.1-11.1,9.2-21.6,18.4-26.3c9.2-4.7,17.9-2.7,23.5,3.1
					C948.9,1162.9,942.6,1171.5,934.1,1176.5z"/>
				<path fill="#A38D54" d="M873.4,1202.7c3.9,10.8,11.7,15.2,19.7,14.1c3.6-10.9,4.5-23.2,1.6-33.7c-3-10.5-9.5-16.8-17.7-16.8
					C871.1,1177.7,869.5,1192,873.4,1202.7z"/>
				<path fill="#A38D54" d="M922.8,1213.7c-7.4,6.4-16.1,8.1-23.3,4.3c0.2-11.3,5.3-22.8,13.6-29c8.2-6.2,17.1-5.7,23.6-1
					C935,1197.9,930.2,1207.3,922.8,1213.7z"/>
				<path fill="#A38D54" d="M867.4,1250c5.6,9.9,14.1,12.9,21.8,10.5c1.7-11.4,0.6-23.6-4.1-33.4c-4.7-9.8-12.2-14.9-20.2-13.4
					C861,1225.8,861.8,1240.1,867.4,1250z"/>
				<path fill="#A38D54" d="M917.9,1252.2c-6.3,7.5-14.5,10.7-22.2,8.3c-1.7-11.1,1.5-23.3,8.5-30.8c7.1-7.5,15.9-8.6,23-5.1
					C927.3,1234.5,924.2,1244.6,917.9,1252.2z"/>
				<path fill="#A38D54" d="M869.4,1297.5c7.2,8.8,16.1,10.3,23.2,6.5c-0.2-11.5-3.3-23.3-9.6-32.2c-6.3-8.8-14.5-12.5-22.2-9.7
					C859,1274.8,862.2,1288.7,869.4,1297.5z"/>
				<path fill="#A38D54" d="M919.5,1290.9c-4.9,8.5-12.5,13.1-20.5,12c-3.5-10.7-2.4-23.3,3.3-31.9c5.7-8.6,14.2-11.2,21.8-9
					C925.8,1271.9,924.4,1282.4,919.5,1290.9z"/>
				<path fill="#A38D54" d="M879.2,1344.1c8.6,7.5,17.6,7.4,24,2.4c-2.1-11.4-7.2-22.5-14.9-30.2c-7.6-7.6-16.3-9.8-23.5-5.7
					C865.2,1323.4,870.7,1336.7,879.2,1344.1z"/>
				<path fill="#A38D54" d="M927.5,1328.9c-3.4,9.3-10.1,15.1-18.2,15.4c-5.3-10-6.3-22.6-2.1-32c4.2-9.5,12.1-13.5,20-12.7
					C930.5,1309,930.9,1319.6,927.5,1328.9z"/>
				<path fill="#A38D54" d="M897,1388.5c9.8,5.9,18.7,4.3,24.1-1.7c-4.1-10.9-11.1-21-20-27.3c-8.8-6.2-17.8-6.9-24.1-1.6
					C879.5,1370.5,887.2,1382.6,897,1388.5z"/>
				<path fill="#A38D54" d="M942,1365.1c-1.7,9.8-7.3,16.8-15.2,18.4c-7-9-10.2-21.3-7.7-31.4c2.5-10.2,9.7-15.5,17.6-16
					C941.4,1344.9,943.7,1355.3,942,1365.1z"/>
				<path fill="#A38D54" d="M922.7,1429.4c10.8,4.2,19.4,1.1,23.6-5.9c-6.2-10.1-15-19-24.9-23.6c-9.9-4.6-18.8-3.8-24.2,2.6
					C902,1414.6,911.9,1425.3,922.7,1429.4z"/>
				<path fill="#A38D54" d="M962.9,1398.5c0.1,10-4,17.9-11.6,20.9c-8.7-7.7-14.2-19.3-13.5-29.8c0.6-10.5,6.8-17,14.5-18.9
					C958.6,1378.5,962.8,1388.4,962.9,1398.5z"/>
				<path fill="#A38D54" d="M956.3,1465.7c11.7,2.3,19.7-2.3,22.5-9.9c-8.3-9-18.8-16.3-29.6-19.2c-10.7-2.9-19.5-0.5-23.5,6.7
					C932.6,1454.5,944.6,1463.4,956.3,1465.7z"/>
				<path fill="#A38D54" d="M990.3,1428c2.2,9.9-0.4,18.5-7.4,22.8c-10.3-6.1-18.1-16.8-19.5-27.3c-1.4-10.5,3.5-18,10.8-21.3
					C982,1408.9,988.1,1418.1,990.3,1428z"/>
				<path fill="#A38D54" d="M997.8,1496c12.4,0.3,19.6-5.6,20.7-13.6c-10.5-7.5-22.7-13-34.2-14c-11.4-1.1-19.7,2.8-22.3,10.7
					C971.4,1488.9,985.5,1495.7,997.8,1496z"/>
				<path fill="#A38D54" d="M1024.2,1452.7c4.4,9.5,3.7,18.4-2.5,23.9c-11.9-4.4-22.1-13.6-25.7-23.8c-3.6-10.2-0.3-18.5,6.4-23
					C1011.6,1435.1,1019.7,1443.2,1024.2,1452.7z"/>
				<path fill="#A38D54" d="M1047.2,1519c12.9-1.8,19-8.9,18.3-17.1c-12.7-5.7-26.5-9-38.6-8.2c-11.9,0.9-19.5,6.2-20.4,14.4
					C1018.4,1516.4,1034.4,1520.9,1047.2,1519z"/>
				<path fill="#A38D54" d="M1064.5,1471.5c6.8,8.7,8.2,17.7,3,24.2c-13.4-2.3-26-9.8-32-19.3c-6-9.5-4.4-18.4,1.4-23.9
					C1047.4,1456.2,1057.7,1462.8,1064.5,1471.5z"/>
			</g>
			<path fill="#A38D54" d="M1065.6,1501.9c0,0,136.1,17.4,170.3,77.3l-16.8,7.8c0,0-24.8-60.7-163.5-81.9L1065.6,1501.9z"/>
		</g>
		<g>
			<g>
				<path fill="#A38D54" d="M1295.5,1042.3c4.8,11,1.9,19.6-5.1,23.9c-10.6-6.3-20.3-15.3-26.1-25.5c-5.7-10.2-5.5-19.3,1-24.6
					C1278.8,1021.1,1290.7,1031.3,1295.5,1042.3z"/>
				<path fill="#A38D54" d="M1241.6,1027.4c13.6,6.2,22.3,16.4,24.4,25.6c-9.4,2-21.5,0-33.8-5.6c-12.3-5.6-22.5-13.7-27.8-22.3
					C1213.6,1020.9,1228.1,1021.2,1241.6,1027.4z"/>
				<path fill="#A38D54" d="M1265.2,1082.9c10.4,0.2,18.3-4.1,21.1-11.7c-8.2-8.8-20.7-14.5-31.9-14c-11.2,0.5-17.9,6.6-19.3,14.5
					C1244,1078.3,1254.7,1082.7,1265.2,1082.9z"/>
				<path fill="#A38D54" d="M1333.1,1075.6c2.4,11.5-2.2,19.4-9.7,22.4c-8.9-7.8-16.4-18.2-19.7-29c-3.2-10.8-1.1-19.6,6.1-23.7
					C1321.6,1052.4,1330.8,1064.2,1333.1,1075.6z"/>
				<path fill="#A38D54" d="M1295.9,1110.1c9.9,1.9,18.3-0.9,22.6-7.9c-6.1-9.9-16.9-17.5-27.6-18.8c-10.7-1.4-18.3,3.5-21.4,10.9
					C1276.6,1102.2,1285.9,1108.2,1295.9,1110.1z"/>
				<path fill="#A38D54" d="M1362.9,1114.3c0.1,11.6-5.8,18.5-13.7,20.1c-7.2-9.1-12.4-20.5-13.4-31.5c-1-11,2.8-19.2,10.6-22
					C1356.2,1089.7,1362.8,1102.8,1362.9,1114.3z"/>
				<path fill="#A38D54" d="M1320.1,1141.6c9.3,3.5,18,2.2,23.5-3.9c-4.1-10.6-13.1-19.9-23.1-22.9c-10.1-3.1-18.3,0.4-22.7,7.1
					C1303,1130.7,1310.8,1138.1,1320.1,1141.6z"/>
				<path fill="#A38D54" d="M1384.7,1157.1c-2,11.3-9,17.1-17,17.4c-5.4-10.2-8.5-22.1-7.4-33.1c1.1-10.9,6.3-18.3,14.5-19.7
					C1382.6,1132,1386.7,1145.8,1384.7,1157.1z"/>
				<path fill="#A38D54" d="M1337.9,1176.5c8.4,5,17.3,5.2,23.7,0.2c-2.1-11.1-9.2-21.6-18.4-26.3c-9.2-4.7-17.9-2.7-23.5,3.1
					C1323.1,1162.9,1329.4,1171.5,1337.9,1176.5z"/>
				<path fill="#A38D54" d="M1398.6,1202.7c-3.9,10.8-11.7,15.2-19.7,14.1c-3.6-10.9-4.5-23.2-1.6-33.7c3-10.5,9.5-16.8,17.7-16.8
					C1400.9,1177.7,1402.5,1192,1398.6,1202.7z"/>
				<path fill="#A38D54" d="M1349.2,1213.7c7.4,6.4,16.1,8.1,23.3,4.3c-0.2-11.3-5.3-22.8-13.6-29c-8.2-6.2-17.1-5.7-23.6-1
					C1337,1197.9,1341.8,1207.3,1349.2,1213.7z"/>
				<path fill="#A38D54" d="M1404.6,1250c-5.6,9.9-14.1,12.9-21.8,10.5c-1.7-11.4-0.6-23.6,4.1-33.4c4.7-9.8,12.2-14.9,20.2-13.4
					C1411,1225.8,1410.2,1240.1,1404.6,1250z"/>
				<path fill="#A38D54" d="M1354.1,1252.2c6.3,7.5,14.5,10.7,22.2,8.3c1.7-11.1-1.5-23.3-8.5-30.8c-7.1-7.5-15.9-8.6-23-5.1
					C1344.7,1234.5,1347.8,1244.6,1354.1,1252.2z"/>
				<path fill="#A38D54" d="M1402.6,1297.5c-7.2,8.8-16.1,10.3-23.2,6.5c0.2-11.5,3.3-23.3,9.6-32.2c6.3-8.8,14.5-12.5,22.2-9.7
					C1413,1274.8,1409.8,1288.7,1402.6,1297.5z"/>
				<path fill="#A38D54" d="M1352.5,1290.9c4.9,8.5,12.5,13.1,20.5,12c3.5-10.7,2.4-23.3-3.3-31.9c-5.7-8.6-14.2-11.2-21.8-9
					C1346.2,1271.9,1347.6,1282.4,1352.5,1290.9z"/>
				<path fill="#A38D54" d="M1392.8,1344.1c-8.6,7.5-17.6,7.4-24,2.4c2.1-11.4,7.2-22.5,14.9-30.2c7.6-7.6,16.3-9.8,23.5-5.7
					C1406.8,1323.4,1401.3,1336.7,1392.8,1344.1z"/>
				<path fill="#A38D54" d="M1344.5,1328.9c3.4,9.3,10.1,15.1,18.2,15.4c5.3-10,6.3-22.6,2.1-32c-4.2-9.5-12.1-13.5-20-12.7
					C1341.5,1309,1341.1,1319.6,1344.5,1328.9z"/>
				<path fill="#A38D54" d="M1375,1388.5c-9.8,5.9-18.7,4.3-24.1-1.7c4.1-10.9,11.1-21,20-27.3c8.8-6.2,17.8-6.9,24.1-1.6
					C1392.5,1370.5,1384.8,1382.6,1375,1388.5z"/>
				<path fill="#A38D54" d="M1330,1365.1c1.7,9.8,7.3,16.8,15.2,18.4c7-9,10.2-21.3,7.7-31.4c-2.5-10.2-9.7-15.5-17.6-16
					C1330.6,1344.9,1328.3,1355.3,1330,1365.1z"/>
				<path fill="#A38D54" d="M1349.3,1429.4c-10.8,4.2-19.4,1.1-23.6-5.9c6.2-10.1,15-19,24.9-23.6c9.9-4.6,18.8-3.8,24.2,2.6
					C1370,1414.6,1360.1,1425.3,1349.3,1429.4z"/>
				<path fill="#A38D54" d="M1309.1,1398.5c-0.1,10,4,17.9,11.6,20.9c8.7-7.7,14.2-19.3,13.5-29.8c-0.6-10.5-6.8-17-14.5-18.9
					C1313.4,1378.5,1309.2,1388.4,1309.1,1398.5z"/>
				<path fill="#A38D54" d="M1315.7,1465.7c-11.7,2.3-19.7-2.3-22.5-9.9c8.3-9,18.8-16.3,29.6-19.2c10.7-2.9,19.5-0.5,23.5,6.7
					C1339.4,1454.5,1327.4,1463.4,1315.7,1465.7z"/>
				<path fill="#A38D54" d="M1281.7,1428c-2.2,9.9,0.4,18.5,7.4,22.8c10.3-6.1,18.1-16.8,19.5-27.3c1.4-10.5-3.5-18-10.8-21.3
					C1290,1408.9,1283.9,1418.1,1281.7,1428z"/>
				<path fill="#A38D54" d="M1274.2,1496c-12.4,0.3-19.6-5.6-20.7-13.6c10.5-7.5,22.7-13,34.2-14c11.4-1.1,19.7,2.8,22.3,10.7
					C1300.6,1488.9,1286.5,1495.7,1274.2,1496z"/>
				<path fill="#A38D54" d="M1247.8,1452.7c-4.4,9.5-3.7,18.4,2.5,23.9c11.9-4.4,22.1-13.6,25.7-23.8c3.6-10.2,0.3-18.5-6.4-23
					C1260.4,1435.1,1252.3,1443.2,1247.8,1452.7z"/>
				<path fill="#A38D54" d="M1224.8,1519c-12.9-1.8-19-8.9-18.3-17.1c12.7-5.7,26.5-9,38.6-8.2c11.9,0.9,19.5,6.2,20.4,14.4
					C1253.6,1516.4,1237.6,1520.9,1224.8,1519z"/>
				<path fill="#A38D54" d="M1207.5,1471.5c-6.8,8.7-8.2,17.7-3,24.2c13.4-2.3,26-9.8,32-19.3c6-9.5,4.4-18.4-1.4-23.9
					C1224.6,1456.2,1214.3,1462.8,1207.5,1471.5z"/>
			</g>
			<path fill="#A38D54" d="M1206.4,1501.9c0,0-136.1,17.4-170.3,77.3l16.8,7.8c0,0,24.8-60.7,163.5-81.9L1206.4,1501.9z"/>
		</g>
	</g>
	<g>
		<g>
			<ellipse fill="#254460" cx="1203.2" cy="1200.4" rx="2.7" ry="5.1"/>
			<polygon fill="#254460" points="1203.2,1205.5 1176.8,1199 1229.6,1199 			"/>
			<g>
				<circle fill="#254460" cx="1176.8" cy="1199.8" r="2.3"/>
				<path fill="#254460" d="M1165.2,1232.9c1.9,2.6,6.4,4.4,11.6,4.4s9.7-1.8,11.6-4.4H1165.2z"/>
				<polygon fill="#254460" points="1187.2,1233.3 1176.8,1202 1166.4,1233.3 1165.1,1232.9 1176.8,1197.6 1188.5,1232.9 				"/>
			</g>
			<g>
				<circle fill="#254460" cx="1229.3" cy="1199.8" r="2.3"/>
				<path fill="#254460" d="M1218,1232.9c1.9,2.6,6.4,4.4,11.6,4.4c5.2,0,9.7-1.8,11.6-4.4H1218z"/>
				<polygon fill="#254460" points="1219.2,1233.3 1217.9,1232.9 1229.6,1197.6 1241.3,1232.9 1240,1233.3 1229.6,1202 				"/>
			</g>
			<polygon fill="#254460" points="1203.2,1197.3 1200.5,1192.3 1203.2,1137.2 1205.9,1192.3 			"/>
		</g>
		<path fill="#254460" d="M1104.1,1183c0,0,4.3-5,2.9-6.4c-1.4-1.4-3-10,0.3-15.3c3.3-5.3-1.8-7.8,0-13.5
			c1.8-5.7,7.2-17.1,14.3-10.3c0,0,8.2-5.3,13.2,2.1c5,7.5-0.4,13.2,1.8,17.1s6.1,4.6,4.6,8.6c-1.4,3.9,9.3,2.9,6.4,14.3
			c0,0,26.7,5.3,32.8-2.9s14.3-27.1,16.4-30.7c0,0-0.7-7.7,4.3-10.6c5-2.9,8.6,2.1,7.8,6.7c-0.7,4.6-4.6,5-4.6,5s-10,31.7-13.5,36
			c-3.6,4.3-21.7,13-34.2,12.8c-9.7,5.7-13.2,25.3-12.9,32.4c0.4,7.1,0.7,8.9,0.7,11s11.1,33.1,12.2,49.5c1,16.4,6.4,27.8,2.1,37.1
			s-8.6,21.4-8.6,21.4s-2.5,44.2-2.9,53.5h-47c0,0-6.4,1.4-5-13.5s-2.1-47.4-1.8-56.7c0.4-9.3-7.5-1.8-5-10.7s6.4-40,6.4-52.2
			c0-12.3,8.2-13.7,10-24.4c1.8-10.7-5.3-24.9-5.3-24.9s-5.3,11.8-8.6,18.2c-3.2,6.4-7.1,24.9-12.8,31.2c0,0,2.9,15.2,0,21.9
			l12.1-2.5l0.4,3.6l-12.5,3.6l14.6,59.5l3.9,26.3L1073,1296l-10,1.8v-3.6l7.5-2.5l-0.7-3.6c0,0-7.1-5.3-3.9-11.4
			c3.2-6.1,3.2-6.1,3.2-6.1s-5-4.6-2.1-8.2c2.9-3.6,3.9,3.6,3.9,3.6s2.5-5.7,5-17.8c2.5-12.1,5-12.5,8.9-22.1
			C1088.7,1216.5,1083.4,1192.7,1104.1,1183z"/>
		<rect x="1085.3" y="1393.7" fill="#254460" width="71" height="12.7"/>
	</g>
	<rect x="1075.9" y="1406.3" fill="#254460" width="89.9" height="12.7"/>
</g>
<g>
	<g>
		<path fill="#254460" d="M1858.1,1441l-1.2-0.2c-55.3-9.8-95.4-57.7-95.4-113.9v-184.5h193V1327c0,56.1-40.1,104-95.4,113.9
			L1858.1,1441z M1772.4,1153.4v173.5c0,50.6,36,93.8,85.7,102.9c49.5-9.3,85.3-52.4,85.3-102.8v-173.6H1772.4z"/>
		<path fill="#254460" d="M1858.1,1441.5l-1.3-0.2c-55.5-9.9-95.8-57.9-95.8-114.4v-185h194V1327c0,56.4-40.3,104.5-95.8,114.3
			L1858.1,1441.5z M1761.9,1142.9v184c0,55.9,40,103.6,95,113.4l1.2,0.2l0.9-0.2c55-9.8,95-57.5,95-113.4v-184.1H1761.9z
			 M1858.1,1430.3L1858.1,1430.3c-50-9.2-86.2-52.7-86.2-103.4v-174h172V1327C1943.9,1377.5,1907.8,1421,1858.1,1430.3
			L1858.1,1430.3z M1772.9,1153.9v173c0,50.2,35.8,93.3,85.2,102.4c49.2-9.3,84.8-52.3,84.8-102.3v-173.1H1772.9z"/>
	</g>
	<g>
		<g>
			<g>
				<path fill="#A38D54" d="M1697.3,1042.3c-4.8,11-1.9,19.6,5.1,23.9c10.6-6.3,20.3-15.3,26.1-25.5c5.7-10.2,5.5-19.3-1-24.6
					C1714,1021.1,1702.1,1031.3,1697.3,1042.3z"/>
				<path fill="#A38D54" d="M1751.1,1027.4c-13.6,6.2-22.3,16.4-24.4,25.6c9.4,2,21.5,0,33.8-5.6c12.3-5.6,22.5-13.7,27.8-22.3
					C1779.2,1020.9,1764.7,1021.2,1751.1,1027.4z"/>
				<path fill="#A38D54" d="M1727.6,1082.9c-10.4,0.2-18.3-4.1-21.1-11.7c8.2-8.8,20.7-14.5,31.9-14c11.2,0.5,17.9,6.6,19.3,14.5
					C1748.8,1078.3,1738.1,1082.7,1727.6,1082.9z"/>
				<path fill="#A38D54" d="M1659.7,1075.6c-2.4,11.5,2.2,19.4,9.7,22.4c8.9-7.8,16.4-18.2,19.7-29c3.2-10.8,1.1-19.6-6.1-23.7
					C1671.2,1052.4,1662,1064.2,1659.7,1075.6z"/>
				<path fill="#A38D54" d="M1696.9,1110.1c-9.9,1.9-18.3-0.9-22.6-7.9c6.1-9.9,16.9-17.5,27.6-18.8c10.7-1.4,18.3,3.5,21.4,10.9
					C1716.2,1102.2,1706.9,1108.2,1696.9,1110.1z"/>
				<path fill="#A38D54" d="M1629.9,1114.3c-0.1,11.6,5.8,18.5,13.7,20.1c7.2-9.1,12.4-20.5,13.4-31.5c1-11-2.8-19.2-10.6-22
					C1636.6,1089.7,1630,1102.8,1629.9,1114.3z"/>
				<path fill="#A38D54" d="M1672.7,1141.6c-9.3,3.5-18,2.2-23.5-3.9c4.1-10.6,13.1-19.9,23.1-22.9c10.1-3.1,18.3,0.4,22.7,7.1
					C1689.8,1130.7,1682,1138.1,1672.7,1141.6z"/>
				<path fill="#A38D54" d="M1608.1,1157.1c2,11.3,9,17.1,17,17.4c5.4-10.2,8.5-22.1,7.4-33.1c-1.1-10.9-6.3-18.3-14.5-19.7
					C1610.2,1132,1606.1,1145.8,1608.1,1157.1z"/>
				<path fill="#A38D54" d="M1654.9,1176.5c-8.4,5-17.3,5.2-23.7,0.2c2.1-11.1,9.2-21.6,18.4-26.3c9.2-4.7,17.9-2.7,23.5,3.1
					C1669.7,1162.9,1663.4,1171.5,1654.9,1176.5z"/>
				<path fill="#A38D54" d="M1594.2,1202.7c3.9,10.8,11.7,15.2,19.7,14.1c3.6-10.9,4.5-23.2,1.6-33.7c-3-10.5-9.5-16.8-17.7-16.8
					C1591.9,1177.7,1590.3,1192,1594.2,1202.7z"/>
				<path fill="#A38D54" d="M1643.6,1213.7c-7.4,6.4-16.1,8.1-23.3,4.3c0.2-11.3,5.3-22.8,13.6-29c8.2-6.2,17.1-5.7,23.6-1
					C1655.7,1197.9,1651,1207.3,1643.6,1213.7z"/>
				<path fill="#A38D54" d="M1588.2,1250c5.6,9.9,14.1,12.9,21.8,10.5c1.7-11.4,0.6-23.6-4.1-33.4c-4.7-9.8-12.2-14.9-20.2-13.4
					C1581.8,1225.8,1582.6,1240.1,1588.2,1250z"/>
				<path fill="#A38D54" d="M1638.7,1252.2c-6.3,7.5-14.5,10.7-22.2,8.3c-1.7-11.1,1.5-23.3,8.5-30.8c7.1-7.5,15.9-8.6,23-5.1
					C1648,1234.5,1645,1244.6,1638.7,1252.2z"/>
				<path fill="#A38D54" d="M1590.2,1297.5c7.2,8.8,16.1,10.3,23.2,6.5c-0.2-11.5-3.3-23.3-9.6-32.2c-6.3-8.8-14.5-12.5-22.2-9.7
					C1579.8,1274.8,1583,1288.7,1590.2,1297.5z"/>
				<path fill="#A38D54" d="M1640.3,1290.9c-4.9,8.5-12.5,13.1-20.5,12c-3.5-10.7-2.4-23.3,3.3-31.9c5.7-8.6,14.2-11.2,21.8-9
					C1646.6,1271.9,1645.2,1282.4,1640.3,1290.9z"/>
				<path fill="#A38D54" d="M1600,1344.1c8.6,7.5,17.6,7.4,24,2.4c-2.1-11.4-7.2-22.5-14.9-30.2c-7.6-7.6-16.3-9.8-23.5-5.7
					C1586,1323.4,1591.5,1336.7,1600,1344.1z"/>
				<path fill="#A38D54" d="M1648.3,1328.9c-3.4,9.3-10.1,15.1-18.2,15.4c-5.3-10-6.3-22.6-2.1-32c4.2-9.5,12.1-13.5,20-12.7
					C1651.3,1309,1651.7,1319.6,1648.3,1328.9z"/>
				<path fill="#A38D54" d="M1617.8,1388.5c9.8,5.9,18.7,4.3,24.1-1.7c-4.1-10.9-11.1-21-20-27.3c-8.8-6.2-17.8-6.9-24.1-1.6
					C1600.3,1370.5,1608,1382.6,1617.8,1388.5z"/>
				<path fill="#A38D54" d="M1662.8,1365.1c-1.7,9.8-7.3,16.8-15.2,18.4c-7-9-10.2-21.3-7.7-31.4c2.5-10.2,9.7-15.5,17.6-16
					C1662.2,1344.9,1664.5,1355.3,1662.8,1365.1z"/>
				<path fill="#A38D54" d="M1643.5,1429.4c10.8,4.2,19.4,1.1,23.6-5.9c-6.2-10.1-15-19-24.9-23.6c-9.9-4.6-18.8-3.8-24.2,2.6
					C1622.8,1414.6,1632.7,1425.3,1643.5,1429.4z"/>
				<path fill="#A38D54" d="M1683.7,1398.5c0.1,10-4,17.9-11.6,20.9c-8.7-7.7-14.2-19.3-13.5-29.8c0.6-10.5,6.8-17,14.5-18.9
					C1679.4,1378.5,1683.6,1388.4,1683.7,1398.5z"/>
				<path fill="#A38D54" d="M1677.1,1465.7c11.7,2.3,19.7-2.3,22.5-9.9c-8.3-9-18.8-16.3-29.6-19.2c-10.7-2.9-19.5-0.5-23.5,6.7
					C1653.4,1454.5,1665.4,1463.4,1677.1,1465.7z"/>
				<path fill="#A38D54" d="M1711.1,1428c2.2,9.9-0.4,18.5-7.4,22.8c-10.3-6.1-18.1-16.8-19.5-27.3c-1.4-10.5,3.5-18,10.8-21.3
					C1702.8,1408.9,1708.9,1418.1,1711.1,1428z"/>
				<path fill="#A38D54" d="M1718.6,1496c12.4,0.3,19.6-5.6,20.7-13.6c-10.5-7.5-22.7-13-34.2-14c-11.4-1.1-19.7,2.8-22.3,10.7
					C1692.2,1488.9,1706.3,1495.7,1718.6,1496z"/>
				<path fill="#A38D54" d="M1745,1452.7c4.4,9.5,3.7,18.4-2.5,23.9c-11.9-4.4-22.1-13.6-25.7-23.8c-3.6-10.2-0.3-18.5,6.4-23
					C1732.4,1435.1,1740.5,1443.2,1745,1452.7z"/>
				<path fill="#A38D54" d="M1768,1519c12.9-1.8,19-8.9,18.3-17.1c-12.7-5.7-26.5-9-38.6-8.2c-11.9,0.9-19.5,6.2-20.4,14.4
					C1739.2,1516.4,1755.2,1520.9,1768,1519z"/>
				<path fill="#A38D54" d="M1785.3,1471.5c6.8,8.7,8.2,17.7,3,24.2c-13.4-2.3-26-9.8-32-19.3c-6-9.5-4.4-18.4,1.4-23.9
					C1768.2,1456.2,1778.4,1462.8,1785.3,1471.5z"/>
			</g>
			<path fill="#A38D54" d="M1786.3,1501.9c0,0,136.1,17.4,170.3,77.3l-16.8,7.8c0,0-24.8-60.7-163.5-81.9L1786.3,1501.9z"/>
		</g>
		<g>
			<g>
				<path fill="#A38D54" d="M2016.3,1042.3c4.8,11,1.9,19.6-5.1,23.9c-10.6-6.3-20.3-15.3-26.1-25.5c-5.7-10.2-5.5-19.3,1-24.6
					C1999.6,1021.1,2011.5,1031.3,2016.3,1042.3z"/>
				<path fill="#A38D54" d="M1962.4,1027.4c13.6,6.2,22.3,16.4,24.4,25.6c-9.4,2-21.5,0-33.8-5.6c-12.3-5.6-22.5-13.7-27.8-22.3
					C1934.4,1020.9,1948.9,1021.2,1962.4,1027.4z"/>
				<path fill="#A38D54" d="M1986,1082.9c10.4,0.2,18.3-4.1,21.1-11.7c-8.2-8.8-20.7-14.5-31.9-14c-11.2,0.5-17.9,6.6-19.3,14.5
					C1964.8,1078.3,1975.5,1082.7,1986,1082.9z"/>
				<path fill="#A38D54" d="M2053.9,1075.6c2.4,11.5-2.2,19.4-9.7,22.4c-8.9-7.8-16.4-18.2-19.7-29c-3.2-10.8-1.1-19.6,6.1-23.7
					C2042.4,1052.4,2051.6,1064.2,2053.9,1075.6z"/>
				<path fill="#A38D54" d="M2016.6,1110.1c9.9,1.9,18.3-0.9,22.6-7.9c-6.1-9.9-16.9-17.5-27.6-18.8c-10.7-1.4-18.3,3.5-21.4,10.9
					C1997.4,1102.2,2006.7,1108.2,2016.6,1110.1z"/>
				<path fill="#A38D54" d="M2083.7,1114.3c0.1,11.6-5.8,18.5-13.7,20.1c-7.2-9.1-12.4-20.5-13.4-31.5c-1-11,2.8-19.2,10.6-22
					C2077,1089.7,2083.6,1102.8,2083.7,1114.3z"/>
				<path fill="#A38D54" d="M2040.9,1141.6c9.3,3.5,18,2.2,23.5-3.9c-4.1-10.6-13.1-19.9-23.1-22.9c-10.1-3.1-18.3,0.4-22.7,7.1
					C2023.8,1130.7,2031.6,1138.1,2040.9,1141.6z"/>
				<path fill="#A38D54" d="M2105.5,1157.1c-2,11.3-9,17.1-17,17.4c-5.4-10.2-8.5-22.1-7.4-33.1c1.1-10.9,6.3-18.3,14.5-19.7
					C2103.4,1132,2107.5,1145.8,2105.5,1157.1z"/>
				<path fill="#A38D54" d="M2058.7,1176.5c8.4,5,17.3,5.2,23.7,0.2c-2.1-11.1-9.2-21.6-18.4-26.3c-9.2-4.7-17.9-2.7-23.5,3.1
					C2043.9,1162.9,2050.2,1171.5,2058.7,1176.5z"/>
				<path fill="#A38D54" d="M2119.4,1202.7c-3.9,10.8-11.7,15.2-19.7,14.1c-3.6-10.9-4.5-23.2-1.6-33.7c3-10.5,9.5-16.8,17.7-16.8
					C2121.7,1177.7,2123.3,1192,2119.4,1202.7z"/>
				<path fill="#A38D54" d="M2070,1213.7c7.4,6.4,16.1,8.1,23.3,4.3c-0.2-11.3-5.3-22.8-13.6-29c-8.2-6.2-17.1-5.7-23.6-1
					C2057.8,1197.9,2062.6,1207.3,2070,1213.7z"/>
				<path fill="#A38D54" d="M2125.4,1250c-5.6,9.9-14.1,12.9-21.8,10.5c-1.7-11.4-0.6-23.6,4.1-33.4c4.7-9.8,12.2-14.9,20.2-13.4
					C2131.8,1225.8,2131,1240.1,2125.4,1250z"/>
				<path fill="#A38D54" d="M2074.9,1252.2c6.3,7.5,14.5,10.7,22.2,8.3c1.7-11.1-1.5-23.3-8.5-30.8c-7.1-7.5-15.9-8.6-23-5.1
					C2065.5,1234.5,2068.6,1244.6,2074.9,1252.2z"/>
				<path fill="#A38D54" d="M2123.4,1297.5c-7.2,8.8-16.1,10.3-23.2,6.5c0.2-11.5,3.3-23.3,9.6-32.2c6.3-8.8,14.5-12.5,22.2-9.7
					C2133.8,1274.8,2130.6,1288.7,2123.4,1297.5z"/>
				<path fill="#A38D54" d="M2073.3,1290.9c4.9,8.5,12.5,13.1,20.5,12c3.5-10.7,2.4-23.3-3.3-31.9c-5.7-8.6-14.2-11.2-21.8-9
					C2067,1271.9,2068.4,1282.4,2073.3,1290.9z"/>
				<path fill="#A38D54" d="M2113.6,1344.1c-8.6,7.5-17.6,7.4-24,2.4c2.1-11.4,7.2-22.5,14.9-30.2c7.6-7.6,16.3-9.8,23.5-5.7
					C2127.6,1323.4,2122.1,1336.7,2113.6,1344.1z"/>
				<path fill="#A38D54" d="M2065.3,1328.9c3.4,9.3,10.1,15.1,18.2,15.4c5.3-10,6.3-22.6,2.1-32c-4.2-9.5-12.1-13.5-20-12.7
					C2062.3,1309,2061.9,1319.6,2065.3,1328.9z"/>
				<path fill="#A38D54" d="M2095.8,1388.5c-9.8,5.9-18.7,4.3-24.1-1.7c4.1-10.9,11.1-21,20-27.3c8.8-6.2,17.8-6.9,24.1-1.6
					C2113.3,1370.5,2105.6,1382.6,2095.8,1388.5z"/>
				<path fill="#A38D54" d="M2050.8,1365.1c1.7,9.8,7.3,16.8,15.2,18.4c7-9,10.2-21.3,7.7-31.4c-2.5-10.2-9.7-15.5-17.6-16
					C2051.3,1344.9,2049.1,1355.3,2050.8,1365.1z"/>
				<path fill="#A38D54" d="M2070.1,1429.4c-10.8,4.2-19.4,1.1-23.6-5.9c6.2-10.1,15-19,24.9-23.6c9.9-4.6,18.8-3.8,24.2,2.6
					C2090.8,1414.6,2080.9,1425.3,2070.1,1429.4z"/>
				<path fill="#A38D54" d="M2029.9,1398.5c-0.1,10,4,17.9,11.6,20.9c8.7-7.7,14.2-19.3,13.5-29.8c-0.6-10.5-6.8-17-14.5-18.9
					C2034.2,1378.5,2030,1388.4,2029.9,1398.5z"/>
				<path fill="#A38D54" d="M2036.5,1465.7c-11.7,2.3-19.7-2.3-22.5-9.9c8.3-9,18.8-16.3,29.6-19.2c10.7-2.9,19.5-0.5,23.5,6.7
					C2060.1,1454.5,2048.2,1463.4,2036.5,1465.7z"/>
				<path fill="#A38D54" d="M2002.5,1428c-2.2,9.9,0.4,18.5,7.4,22.8c10.3-6.1,18.1-16.8,19.5-27.3c1.4-10.5-3.5-18-10.8-21.3
					C2010.8,1408.9,2004.7,1418.1,2002.5,1428z"/>
				<path fill="#A38D54" d="M1995,1496c-12.4,0.3-19.6-5.6-20.7-13.6c10.5-7.5,22.7-13,34.2-14c11.4-1.1,19.7,2.8,22.3,10.7
					C2021.4,1488.9,2007.3,1495.7,1995,1496z"/>
				<path fill="#A38D54" d="M1968.6,1452.7c-4.4,9.5-3.7,18.4,2.5,23.9c11.9-4.4,22.1-13.6,25.7-23.8c3.6-10.2,0.3-18.5-6.4-23
					C1981.2,1435.1,1973.1,1443.2,1968.6,1452.7z"/>
				<path fill="#A38D54" d="M1945.5,1519c-12.9-1.8-19-8.9-18.3-17.1c12.7-5.7,26.5-9,38.6-8.2c11.9,0.9,19.5,6.2,20.4,14.4
					C1974.4,1516.4,1958.4,1520.9,1945.5,1519z"/>
				<path fill="#A38D54" d="M1928.3,1471.5c-6.8,8.7-8.2,17.7-3,24.2c13.4-2.3,26-9.8,32-19.3c6-9.5,4.4-18.4-1.4-23.9
					C1945.3,1456.2,1935.1,1462.8,1928.3,1471.5z"/>
			</g>
			<path fill="#A38D54" d="M1927.2,1501.9c0,0-136.1,17.4-170.3,77.3l16.8,7.8c0,0,24.8-60.7,163.5-81.9L1927.2,1501.9z"/>
		</g>
	</g>
	<g>
		<rect x="1831.9" y="1209.5" fill="#254460" width="13.1" height="147.6"/>
		<rect x="1851.5" y="1209.5" fill="#254460" width="13.1" height="147.6"/>
		<rect x="1871.1" y="1209.5" fill="#254460" width="13.1" height="147.6"/>
		<rect x="1825.6" y="1198.2" fill="#254460" width="64.9" height="7.1"/>
		<rect x="1815.6" y="1186.2" fill="#254460" width="84.9" height="7.1"/>
		
			<rect x="1825.6" y="1361.8" transform="matrix(-1 -1.224647e-16 1.224647e-16 -1 3716.1147 2730.6985)" fill="#254460" width="64.9" height="7.1"/>
		
			<rect x="1815.6" y="1373.8" transform="matrix(-1 -1.224647e-16 1.224647e-16 -1 3716.1147 2754.7029)" fill="#254460" width="84.9" height="7.1"/>
		<circle fill="#254460" cx="1814.3" cy="1195.8" r="9.6"/>
		<circle fill="#254460" cx="1901.4" cy="1195.8" r="9.6"/>
		<circle fill="#254460" cx="1814.3" cy="1371.4" r="9.6"/>
		<circle fill="#254460" cx="1901.4" cy="1371.4" r="9.6"/>
	</g>
</g>
</svg>
